{"glyphs":{"0":{"ha":536,"x_min":46,"x_max":557,"o":"m 529 864 q 479 997 517 953 q 414 1029 449 1033 q 347 1001 379 1025 q 288 942 315 976 q 247 883 261 908 q 196 773 218 833 q 161 648 174 713 q 147 519 149 583 q 158 394 146 454 q 180 321 164 363 q 219 248 196 279 q 275 206 243 217 q 347 224 307 194 q 411 295 382 249 q 463 399 440 342 q 500 522 485 457 q 524 649 515 586 q 533 767 532 711 q 529 864 535 824 m 154 206 q 88 304 111 249 q 55 422 64 360 q 51 551 46 485 q 69 678 56 617 q 106 796 83 740 q 153 894 128 851 q 220 981 182 943 q 299 1038 258 1018 q 379 1061 339 1058 q 454 1044 419 1064 q 514 980 489 1024 q 549 865 539 936 q 554 742 557 811 q 538 599 551 672 q 502 452 525 525 q 449 318 479 379 q 397 237 428 278 q 329 173 367 196 q 247 153 292 150 q 154 206 203 157 z "},"1":{"ha":361,"x_min":50,"x_max":367,"o":"m 269 1064 q 206 1022 243 1044 q 133 978 168 999 q 95 954 113 965 q 67 936 78 943 q 60 935 64 933 q 53 940 56 936 q 51 947 50 943 q 54 954 51 951 q 121 996 79 971 q 201 1045 160 1019 q 267 1089 242 1071 q 268 1093 265 1090 q 274 1097 272 1096 q 279 1100 276 1099 l 279 1101 q 281 1102 281 1101 q 283 1103 282 1103 q 328 1111 307 1114 q 365 1097 351 1111 q 365 1093 365 1093 q 365 1050 367 1090 q 360 945 364 1010 q 349 798 356 881 q 335 629 342 715 q 323 492 329 560 q 310 364 317 425 q 298 253 304 303 q 288 169 292 203 q 285 165 288 167 q 278 163 282 160 q 253 160 267 160 q 233 162 244 161 q 211 165 222 163 q 197 172 206 167 q 192 183 189 176 q 210 346 200 247 q 231 553 221 444 q 249 767 240 661 q 264 951 258 874 q 266 976 264 957 q 269 1016 268 996 q 272 1051 271 1036 q 269 1064 272 1065 z "},"2":{"ha":510,"x_min":31,"x_max":507,"o":"m 139 188 q 228 173 179 179 q 326 176 278 167 q 416 219 374 186 q 483 321 458 251 q 497 326 488 331 q 504 313 507 322 q 428 199 475 235 q 329 154 382 164 q 224 152 276 144 q 128 168 171 160 q 77 178 99 175 q 49 176 56 182 q 36 176 42 171 q 31 184 31 179 q 32 192 31 189 q 110 288 67 231 q 196 415 153 346 q 278 559 239 483 q 344 710 317 635 q 381 854 371 785 q 378 981 392 924 q 350 1035 369 1017 q 308 1056 331 1054 q 263 1039 285 1057 q 228 985 242 1021 q 218 900 215 951 q 208 889 218 889 q 197 900 197 889 q 206 981 194 942 q 242 1046 217 1019 q 304 1082 268 1072 q 375 1083 340 1092 q 438 1051 410 1075 q 475 985 465 1026 q 480 856 489 926 q 445 710 471 785 q 381 559 419 635 q 301 414 343 483 q 217 286 260 344 q 139 188 174 228 z "},"3":{"ha":379,"x_min":35,"x_max":400,"o":"m 396 972 q 385 899 400 939 q 346 821 371 858 q 290 753 321 783 q 229 707 258 722 q 339 640 303 689 q 382 531 375 592 q 370 402 389 469 q 317 279 351 335 q 233 188 282 224 q 132 151 185 151 q 58 173 79 150 q 35 246 38 196 q 44 256 35 257 q 56 246 54 256 q 91 184 61 189 q 160 221 121 179 q 212 294 186 250 q 254 387 238 338 q 276 487 271 436 q 267 581 281 538 q 215 654 253 624 q 111 693 178 685 q 101 701 101 694 q 108 713 101 708 q 114 715 111 715 q 122 717 117 715 q 173 745 147 724 q 222 794 199 767 q 262 851 244 822 q 288 903 279 881 q 300 962 299 933 q 290 1007 301 990 q 253 1023 278 1024 q 190 994 229 1022 q 165 974 178 986 q 111 893 126 938 q 99 887 108 883 q 92 900 89 890 q 115 949 99 925 q 153 991 132 972 q 200 1024 175 1010 q 250 1047 225 1039 q 299 1056 275 1056 q 344 1048 324 1057 q 379 1020 365 1039 q 396 972 393 1001 z "},"4":{"ha":590,"x_min":51,"x_max":603,"o":"m 58 589 q 116 629 79 597 q 195 706 153 661 q 282 803 238 751 q 363 903 326 854 q 422 994 399 953 q 446 1057 444 1035 q 460 1074 446 1067 q 490 1084 474 1082 q 522 1083 507 1086 q 540 1069 538 1079 q 540 1067 543 1069 l 540 1065 q 538 974 542 1026 q 529 857 535 921 q 515 722 524 793 q 499 578 507 651 q 544 590 522 583 q 585 607 565 596 q 598 603 593 613 q 594 589 603 594 q 496 557 551 565 q 454 161 471 358 q 439 149 454 153 q 406 144 424 144 q 373 149 389 144 q 356 164 357 154 q 377 357 365 261 q 400 549 389 453 q 304 552 353 549 q 208 560 256 556 q 132 567 169 564 q 63 569 94 569 q 53 578 54 569 q 58 589 51 586 m 401 569 q 428 802 417 692 q 446 993 440 913 q 380 890 422 947 q 288 775 338 832 q 189 668 239 718 q 99 589 139 618 q 210 581 149 588 q 305 573 257 576 q 401 569 353 569 z "},"5":{"ha":432,"x_min":49,"x_max":446,"o":"m 422 1057 q 438 1060 429 1065 q 440 1046 446 1054 q 397 997 424 1015 q 339 969 371 978 q 272 963 307 961 q 203 978 236 965 q 186 917 196 957 q 169 833 176 876 q 158 749 161 789 q 158 689 154 710 q 255 681 208 686 q 338 659 301 676 q 400 608 375 642 q 432 511 425 574 q 429 421 438 468 q 401 330 421 374 q 352 249 382 286 q 285 188 322 213 q 216 157 251 167 q 149 153 181 147 q 93 181 118 158 q 57 250 68 204 q 51 272 53 261 q 49 296 50 283 q 60 307 49 307 q 69 297 69 307 q 75 265 71 282 q 87 231 79 247 q 106 201 94 214 q 135 186 118 189 q 182 199 157 182 q 233 244 207 215 q 278 304 258 272 q 313 371 299 336 q 331 443 326 406 q 328 521 335 481 q 296 606 318 576 q 245 649 274 636 q 187 664 217 663 q 131 665 157 665 q 85 667 104 664 q 63 686 67 669 q 62 757 57 707 q 76 861 67 807 q 99 963 86 915 q 125 1026 113 1010 q 144 1031 135 1042 q 217 993 178 1006 q 296 983 257 981 q 369 1003 335 985 q 422 1057 403 1021 z "},"6":{"ha":497,"x_min":47,"x_max":535,"o":"m 393 494 q 357 551 381 528 q 302 590 333 575 q 235 610 271 604 q 167 610 200 615 q 156 542 160 578 q 151 468 151 506 q 153 394 150 431 q 168 324 157 357 q 243 221 199 240 q 328 225 288 201 q 381 276 363 244 q 407 344 400 307 q 410 419 414 381 q 393 494 406 458 m 172 632 q 246 629 208 636 q 317 605 283 622 q 375 561 350 588 q 413 500 400 535 q 431 399 431 450 q 415 304 431 349 q 365 224 399 260 q 283 169 332 188 q 215 160 250 157 q 146 188 179 163 q 99 242 118 208 q 67 321 81 276 q 47 469 47 388 q 66 633 47 550 q 122 795 85 717 q 217 935 160 874 q 350 1036 274 997 q 522 1078 426 1075 q 534 1067 533 1078 q 524 1057 535 1057 q 392 1013 451 1057 q 290 905 333 969 q 216 766 246 840 q 172 632 186 692 z "},"7":{"ha":453,"x_min":60,"x_max":475,"o":"m 72 986 q 60 998 61 988 q 71 1007 60 1008 q 147 1010 104 1004 q 231 1026 189 1015 q 269 1040 242 1029 q 330 1064 297 1051 q 394 1088 363 1076 q 447 1101 426 1099 q 468 1100 463 1104 q 471 1086 475 1093 q 403 867 433 982 q 347 633 374 751 q 294 394 321 514 q 238 163 268 275 q 222 149 238 153 q 187 147 206 146 q 152 153 168 147 q 139 169 136 160 q 195 392 168 282 q 249 612 222 503 q 303 831 275 721 q 363 1050 331 940 q 308 1028 342 1039 q 238 1007 275 1017 q 150 990 194 996 q 72 986 106 983 z "},"8":{"ha":467,"x_min":32,"x_max":469,"o":"m 250 649 q 185 575 221 618 q 119 483 149 532 q 72 381 89 433 q 63 281 54 329 q 83 226 67 247 q 121 195 99 206 q 170 183 143 185 q 225 189 197 182 q 324 244 285 203 q 372 347 364 285 q 353 485 381 408 q 250 649 325 563 m 236 1019 q 208 958 213 996 q 215 876 203 921 q 243 808 225 844 q 292 728 261 772 q 322 765 306 743 q 355 813 339 788 q 384 865 371 838 q 404 918 397 893 q 398 988 413 957 q 356 1034 383 1018 q 297 1048 329 1050 q 236 1019 264 1046 m 304 710 q 377 622 343 669 q 433 522 411 574 q 463 417 456 469 q 453 314 469 364 q 403 227 438 264 q 321 170 368 190 q 221 149 274 150 q 118 171 168 147 q 68 213 89 186 q 40 278 47 239 q 49 384 32 329 q 98 491 67 439 q 166 588 129 543 q 235 667 203 633 q 138 837 164 764 q 118 960 113 910 q 152 1041 124 1011 q 220 1081 181 1071 q 302 1084 260 1092 q 376 1053 344 1076 q 423 990 408 1029 q 421 897 438 950 q 399 844 413 871 q 368 792 385 817 q 335 747 351 768 q 304 710 318 725 z "},"9":{"ha":479,"x_min":26,"x_max":506,"o":"m 40 150 q 28 160 29 150 q 38 171 26 171 q 174 222 115 171 q 275 346 233 272 q 342 501 317 419 q 381 647 368 583 q 281 674 328 650 q 204 744 235 697 q 167 891 160 814 q 219 1026 174 968 q 292 1081 249 1063 q 382 1081 335 1099 q 451 1025 422 1067 q 495 906 485 976 q 499 754 506 835 q 469 590 492 674 q 415 433 447 507 q 344 301 383 360 q 264 214 306 243 q 165 167 219 183 q 40 150 111 150 m 385 668 q 395 747 390 703 q 399 835 400 790 q 391 924 399 881 q 364 1000 383 967 q 303 1057 333 1057 q 236 1014 272 1057 q 202 956 215 988 q 186 890 189 924 q 192 821 183 856 q 221 756 200 786 q 293 690 250 711 q 385 668 336 669 z "},"\u0000":{"ha":0,"x_min":0,"x_max":0,"o":""},"\r":{"ha":278,"x_min":0,"x_max":0,"o":""}," ":{"ha":278,"x_min":0,"x_max":0,"o":""},"@":{"ha":649,"x_min":28,"x_max":660,"o":"m 472 553 q 488 560 478 558 q 508 561 499 563 q 525 554 518 560 q 533 539 532 549 q 532 515 536 529 q 506 437 518 474 q 483 367 493 400 q 465 301 472 333 q 453 235 457 269 q 456 202 449 207 q 476 206 464 197 q 503 229 489 214 q 528 256 518 244 q 597 353 565 299 q 634 463 628 408 q 613 561 640 517 q 504 628 585 606 q 365 633 433 646 q 238 585 296 621 q 135 492 179 549 q 68 368 90 436 q 62 241 44 296 q 121 150 79 186 q 222 97 163 114 q 344 83 282 79 q 463 113 406 88 q 558 188 521 139 q 572 191 565 194 q 571 178 579 188 q 469 98 531 125 q 342 67 408 71 q 214 82 276 64 q 107 140 151 100 q 45 238 63 179 q 51 371 28 296 q 122 502 75 443 q 230 599 168 561 q 363 649 292 636 q 508 642 435 661 q 630 567 600 618 q 650 453 660 515 q 602 328 640 392 q 519 219 564 265 q 497 197 507 207 q 476 181 486 188 q 451 167 464 172 q 424 165 439 163 q 390 200 396 171 q 390 266 385 229 q 405 338 394 303 q 422 389 415 372 q 399 335 411 364 q 370 278 386 306 q 334 226 354 250 q 289 189 314 203 q 230 174 256 172 q 187 192 204 176 q 161 235 169 208 q 156 296 153 263 q 162 340 157 318 q 178 385 167 361 q 230 462 199 429 q 300 515 261 494 q 383 544 339 535 q 472 553 426 554 m 460 531 q 381 506 419 524 q 310 460 343 488 q 255 398 278 433 q 222 321 232 363 q 220 281 219 304 q 228 238 221 257 q 249 210 235 219 q 289 214 264 201 q 329 246 311 224 q 363 297 347 268 q 391 360 378 326 q 417 426 404 394 q 438 484 428 457 q 460 531 449 511 z "},"&":{"ha":719,"x_min":35,"x_max":661,"o":"m 428 200 q 301 149 368 160 q 176 155 233 138 q 79 219 118 172 q 38 340 40 265 q 50 424 35 385 q 90 498 65 464 q 149 563 115 532 q 218 622 182 594 q 210 804 200 732 q 246 917 221 876 q 305 972 271 958 q 369 975 339 985 q 418 937 399 965 q 433 865 438 908 q 397 768 429 822 q 289 656 364 714 q 291 638 290 647 q 292 621 292 629 q 300 583 297 601 q 307 549 303 565 q 385 594 342 582 q 467 597 428 606 q 536 561 506 589 q 578 490 567 533 q 582 420 588 456 q 561 352 576 385 q 522 290 546 319 q 474 236 499 260 q 544 215 511 213 q 599 237 576 217 q 630 291 621 257 q 631 365 639 325 q 637 378 628 375 q 649 371 646 381 q 644 275 661 317 q 594 210 628 233 q 517 183 561 186 q 428 200 472 179 m 431 275 q 465 319 449 296 q 491 369 481 343 q 504 422 501 396 q 499 476 507 449 q 469 530 489 507 q 423 563 449 553 q 369 565 397 572 q 313 526 340 557 q 332 463 321 497 q 358 394 343 429 q 392 328 374 360 q 431 275 410 297 m 222 603 q 158 547 189 576 q 105 486 128 518 q 68 418 82 454 q 56 342 54 382 q 97 230 61 279 q 194 171 132 181 q 294 181 243 163 q 385 232 344 200 q 315 332 342 286 q 271 422 288 378 q 244 509 254 465 q 222 603 233 553 m 290 831 q 283 763 283 801 q 288 676 282 725 q 379 772 351 728 q 410 851 407 817 q 399 904 414 885 q 364 924 385 924 q 322 901 343 924 q 290 831 300 879 z "},"´":{"ha":229,"x_min":61,"x_max":260,"o":"m 74 767 q 63 765 64 763 q 65 774 61 768 q 74 788 68 781 q 86 799 81 794 q 163 863 126 831 q 232 932 200 896 q 253 922 246 938 q 256 892 260 906 q 244 867 253 881 q 217 838 236 854 q 163 805 197 822 q 74 767 128 788 z "},"`":{"ha":221,"x_min":71,"x_max":244,"o":"m 240 800 q 242 788 244 790 q 233 789 239 786 q 219 797 226 792 q 208 807 213 803 q 144 876 176 843 q 74 938 111 910 q 74 950 71 944 q 85 960 78 956 q 100 965 92 964 q 115 965 108 967 q 138 957 125 964 q 167 933 151 950 q 201 883 183 915 q 240 800 219 851 z "},"˜":{"ha":429,"x_min":139,"x_max":461,"o":"m 149 665 q 142 672 139 663 q 154 727 146 706 q 181 763 163 749 q 254 779 217 785 q 302 772 272 778 q 363 763 332 765 q 417 765 393 760 q 444 796 440 771 q 454 801 447 803 q 458 793 461 800 q 429 728 458 750 q 373 712 401 711 q 317 719 344 713 q 261 733 289 726 q 207 736 233 740 q 171 712 182 729 q 157 671 160 694 q 149 665 157 663 z "},",":{"ha":169,"x_min":29,"x_max":160,"o":"m 158 213 q 153 174 158 199 q 138 124 147 149 q 115 81 128 99 q 86 63 103 63 q 76 67 79 63 q 78 75 74 71 q 101 117 97 93 q 101 164 106 140 q 61 175 78 164 q 37 202 44 186 q 33 237 29 218 q 53 271 36 256 q 92 290 72 289 q 126 281 111 292 q 151 252 142 271 q 158 213 160 233 z "},".":{"ha":210,"x_min":24,"x_max":128,"o":"m 49 250 q 83 263 64 265 q 113 247 101 261 q 126 207 128 231 q 108 168 125 183 q 72 150 92 150 q 39 167 51 150 q 26 210 24 185 q 49 250 29 235 z "},";":{"ha":174,"x_min":35,"x_max":181,"o":"m 78 576 q 124 593 100 596 q 164 572 147 590 q 179 519 181 550 q 157 468 178 489 q 111 444 138 444 q 65 467 85 444 q 49 523 46 490 q 78 576 53 556 m 165 281 q 158 242 164 267 q 143 192 153 217 q 121 149 133 167 q 92 131 108 131 q 81 135 85 131 q 83 143 78 139 q 107 185 103 161 q 107 232 111 208 q 67 243 83 232 q 42 270 50 254 q 38 305 35 286 q 58 339 42 324 q 96 358 76 357 q 131 349 115 360 q 157 320 147 339 q 165 281 167 301 z "},":":{"ha":176,"x_min":29,"x_max":186,"o":"m 61 296 q 106 313 82 315 q 147 292 131 310 q 163 239 164 269 q 140 188 161 208 q 93 164 119 164 q 47 186 67 164 q 32 242 29 210 q 61 296 35 275 m 82 600 q 128 617 104 619 q 167 596 151 614 q 184 543 186 574 q 160 492 182 513 q 114 468 140 468 q 68 490 88 468 q 54 547 51 514 q 82 600 57 579 z "},"(":{"ha":297,"x_min":35,"x_max":382,"o":"m 371 1092 q 379 1081 382 1090 q 367 1072 376 1072 q 313 1055 336 1072 q 272 1013 290 1038 q 241 960 254 988 q 218 913 228 933 q 167 775 183 844 q 140 639 151 706 q 121 474 125 549 q 124 329 117 400 q 133 276 128 306 q 149 222 139 247 q 177 178 160 196 q 225 160 194 160 q 233 150 236 160 q 222 140 231 140 q 148 161 178 140 q 98 213 118 182 q 67 281 78 244 q 49 351 56 318 q 42 504 35 429 q 60 656 49 579 q 96 792 74 726 q 153 919 118 858 q 192 981 169 950 q 241 1037 214 1013 q 301 1076 268 1061 q 371 1092 333 1092 z "},")":{"ha":350,"x_min":26,"x_max":374,"o":"m 38 140 q 28 151 26 142 q 40 160 31 160 q 94 177 71 160 q 136 219 118 194 q 168 272 154 244 q 192 319 182 299 q 242 457 226 388 q 269 593 257 526 q 288 758 283 683 q 285 903 292 832 q 274 955 279 925 q 258 1010 268 985 q 230 1054 247 1036 q 182 1072 213 1072 q 174 1082 171 1072 q 186 1092 178 1092 q 260 1071 231 1092 q 310 1019 290 1050 q 341 951 329 988 q 360 881 353 914 q 367 728 374 803 q 349 576 360 653 q 313 440 336 506 q 257 313 289 374 q 217 250 240 281 q 167 195 194 219 q 108 156 140 171 q 38 140 75 140 z "},"\\":{"ha":454,"x_min":161,"x_max":358,"o":"m 206 978 q 247 761 226 872 q 285 541 267 650 q 322 326 304 432 q 357 126 340 221 q 354 115 358 124 q 343 98 350 106 q 329 88 336 90 q 318 94 322 85 l 161 939 q 165 957 161 946 q 176 976 169 968 q 190 987 182 985 q 206 978 199 989 z "},"/":{"ha":285,"x_min":26,"x_max":315,"o":"m 68 97 q 52 88 60 86 q 39 99 44 90 q 30 118 33 107 q 28 136 26 129 l 278 981 q 289 988 282 990 q 302 977 296 985 q 312 960 308 969 q 314 949 315 951 q 257 749 286 854 q 197 534 228 643 q 133 314 165 425 q 68 97 101 203 z "},"-":{"ha":393,"x_min":39,"x_max":376,"o":"m 42 392 l 376 394 l 375 344 q 206 344 286 344 q 39 344 125 343 l 42 392 z "},"_":{"ha":489,"x_min":28,"x_max":478,"o":"m 31 211 l 478 214 l 475 164 q 372 164 431 164 q 251 164 313 164 q 130 164 189 164 q 28 164 71 164 l 31 211 z "},"+":{"ha":378,"x_min":42,"x_max":379,"o":"m 242 597 l 228 263 l 179 261 q 186 431 182 350 q 194 597 190 511 l 242 597 m 44 451 l 379 454 l 378 404 q 208 403 289 404 q 42 404 128 403 l 44 451 z "},"*":{"ha":332,"x_min":38,"x_max":338,"o":"m 218 585 l 201 251 l 149 249 q 160 419 156 339 q 171 586 164 500 l 218 585 m 94 554 l 317 315 l 281 281 q 168 401 222 344 q 60 521 114 458 l 94 554 m 38 328 l 307 542 l 338 504 q 201 395 265 447 q 67 290 136 343 l 38 328 z "},"|":{"ha":104,"x_min":29,"x_max":135,"o":"m 135 1083 q 119 813 126 943 q 108 560 113 683 q 97 319 103 438 q 86 85 92 201 q 77 71 86 76 q 57 64 68 65 q 38 67 46 63 q 29 86 29 72 q 42 356 36 226 q 55 607 49 485 q 67 847 61 729 q 79 1081 72 964 q 90 1097 81 1092 q 109 1103 99 1103 q 127 1098 119 1103 q 135 1083 135 1093 z "},"{":{"ha":363,"x_min":50,"x_max":474,"o":"m 188 613 q 92 542 150 561 q 168 482 147 525 q 191 390 189 439 q 188 288 193 340 q 207 93 165 143 q 326 43 249 43 q 335 33 336 43 q 321 22 333 22 q 133 85 186 22 q 92 242 79 147 q 108 367 104 336 q 108 451 111 397 q 92 519 104 504 q 58 536 81 533 q 50 542 50 538 q 60 549 50 547 q 100 569 83 554 q 135 637 117 583 q 157 720 153 690 q 174 845 161 750 q 258 1003 188 940 q 461 1060 329 1064 q 473 1052 474 1060 q 461 1044 472 1044 q 340 1004 385 1043 q 267 872 278 949 q 254 793 257 796 q 232 697 250 743 q 188 613 214 651 z "},"}":{"ha":356,"x_min":-47,"x_max":363,"o":"m 228 474 q 322 544 264 525 q 244 604 267 561 q 217 697 222 647 q 221 799 213 746 q 197 993 239 943 q 78 1043 156 1043 q 69 1053 68 1043 q 82 1064 69 1064 q 272 1001 217 1064 q 315 844 326 939 q 301 719 304 750 q 301 635 297 689 q 319 567 306 582 q 354 550 332 553 q 363 544 363 549 q 353 538 363 539 q 314 517 329 532 q 282 449 299 503 q 260 366 265 396 q 245 241 256 336 q 165 83 235 146 q -35 26 96 22 q -47 34 -47 26 q -35 42 -46 42 q 82 82 39 43 q 153 214 143 138 q 164 293 163 290 q 184 389 169 343 q 228 474 199 435 z "},"~":{"ha":493,"x_min":40,"x_max":494,"o":"m 494 435 l 490 425 q 408 323 464 342 q 249 350 353 304 q 124 399 146 396 q 63 369 83 404 q 58 367 63 368 q 40 374 54 367 q 106 442 61 432 q 176 447 150 453 q 285 402 201 440 q 386 363 369 364 q 428 372 403 363 q 472 432 453 381 q 494 435 478 442 z "},"⁄":{"ha":285,"x_min":29,"x_max":317,"o":"m 71 136 q 54 127 63 125 q 40 138 46 129 q 32 157 35 146 q 29 175 29 168 l 279 1019 q 290 1026 283 1029 q 303 1016 297 1024 q 313 999 310 1008 q 315 988 317 990 q 258 788 288 893 q 199 573 229 682 q 136 353 168 464 q 71 136 104 242 z "},"!":{"ha":140,"x_min":6,"x_max":172,"o":"m 172 972 q 152 768 165 868 q 124 569 139 668 q 95 372 108 471 q 76 169 82 272 q 63 153 75 157 q 42 165 50 150 q 36 214 36 175 q 38 310 36 253 q 45 436 40 367 q 56 578 50 506 q 69 719 63 650 q 81 843 75 788 q 91 935 86 899 q 97 978 96 971 q 106 993 97 988 q 125 999 114 999 q 149 994 136 1000 q 171 974 161 988 l 172 972 m 72 121 q 98 105 89 118 q 104 75 107 92 q 83 42 100 56 q 47 29 67 29 q 17 42 28 29 q 10 75 6 56 q 33 110 14 96 q 72 121 51 124 z "},"=":{"ha":500,"x_min":39,"x_max":508,"o":"m 54 576 l 508 579 l 508 529 q 403 529 464 529 q 278 529 342 529 q 155 529 215 529 q 53 529 94 529 l 54 576 m 42 401 l 496 404 l 494 354 q 390 354 450 354 q 265 354 329 354 q 142 354 201 354 q 39 354 82 354 l 42 401 z "},"˝":{"ha":442,"x_min":147,"x_max":319,"o":"m 231 799 q 224 792 232 786 q 213 806 215 799 q 183 854 197 831 q 150 897 168 878 q 158 910 147 907 q 175 910 168 913 q 202 885 188 906 q 231 799 217 864 m 318 800 q 310 794 319 788 q 299 807 301 801 q 269 856 285 832 q 235 900 254 881 q 242 912 232 908 q 260 911 253 915 q 290 887 274 908 q 318 800 306 865 z "},"<":{"ha":346,"x_min":40,"x_max":354,"o":"m 354 558 l 117 369 q 221 288 135 358 q 311 214 307 218 q 319 197 317 207 q 317 178 321 188 q 306 169 313 169 q 294 171 300 169 q 41 362 42 356 q 49 375 40 368 l 297 574 q 354 558 311 589 z "},">":{"ha":346,"x_min":31,"x_max":346,"o":"m 269 389 q 165 470 251 400 q 75 544 79 540 q 67 561 68 551 q 69 580 65 571 q 78 589 72 589 q 90 588 85 589 q 344 397 343 403 q 336 383 346 390 l 88 185 q 31 200 74 169 l 269 389 z "},"?":{"ha":456,"x_min":54,"x_max":478,"o":"m 400 939 q 460 858 442 907 q 469 701 478 808 q 381 494 460 593 q 276 333 301 396 q 246 175 251 271 q 231 164 244 164 q 218 175 217 164 q 220 215 218 186 q 222 270 222 243 q 230 329 222 297 q 257 400 238 361 q 314 488 276 439 q 361 574 340 522 q 393 685 382 626 q 399 793 401 746 q 372 885 397 840 q 290 927 347 929 q 188 872 233 925 q 134 764 142 819 q 123 681 126 708 q 87 648 119 654 q 68 736 54 642 q 115 882 82 831 q 191 953 147 933 q 294 974 235 974 q 400 939 353 974 m 242 146 q 268 130 260 143 q 274 100 276 117 q 253 67 269 81 q 217 54 236 54 q 186 67 197 54 q 179 100 175 81 q 202 135 183 121 q 242 146 221 149 z "},"−":{"ha":522,"x_min":42,"x_max":525,"o":"m 44 460 l 525 463 l 522 413 q 413 413 478 413 q 281 413 349 413 q 149 413 213 413 q 42 413 85 413 l 44 460 z "},"'":{"ha":118,"x_min":57,"x_max":150,"o":"m 57 590 q 65 691 63 653 q 70 751 68 729 q 73 784 72 774 q 75 800 74 794 q 83 815 75 810 q 103 822 92 821 q 126 816 114 822 q 150 796 139 810 l 150 794 q 135 733 140 756 q 124 698 129 711 q 117 677 119 685 q 112 659 114 669 q 107 634 110 649 q 100 592 104 619 q 83 580 92 582 q 57 590 74 578 z "},"%":{"ha":463,"x_min":64,"x_max":460,"o":"m 357 428 q 438 390 415 431 q 449 287 460 349 q 416 188 439 225 q 355 144 393 151 q 288 173 317 138 q 264 278 258 208 q 297 372 269 349 q 363 397 324 396 q 367 390 368 397 q 361 383 367 383 q 336 353 346 376 q 324 294 326 331 q 327 217 322 257 q 342 171 332 178 q 364 181 351 164 q 387 257 375 196 q 385 366 399 318 q 356 414 372 414 q 350 421 350 414 q 357 428 350 428 m 163 1019 q 244 981 221 1022 q 256 878 267 940 q 223 780 246 817 q 162 736 200 743 q 94 765 124 729 q 70 870 64 800 q 103 964 76 940 q 168 989 129 988 q 174 982 174 989 q 168 975 174 975 q 142 945 151 968 q 131 885 132 922 q 134 809 129 849 q 149 763 139 769 q 169 772 158 756 q 192 849 181 788 q 192 958 204 910 q 163 1006 179 1006 q 156 1013 157 1006 q 163 1019 156 1019 m 150 136 q 133 127 142 125 q 119 138 125 129 q 111 157 114 146 q 108 175 108 168 l 358 1019 q 369 1026 363 1029 q 383 1016 376 1024 q 392 999 389 1008 q 394 988 396 990 q 338 788 367 893 q 278 573 308 682 q 215 353 247 464 q 150 136 183 242 z "},"˘":{"ha":244,"x_min":58,"x_max":197,"o":"m 85 939 q 92 940 89 942 q 93 931 96 938 q 88 914 92 922 q 83 897 85 906 q 82 882 81 889 q 92 869 83 875 q 122 858 103 858 q 157 867 142 857 q 173 889 168 874 q 165 926 178 904 q 169 935 163 932 q 178 932 175 938 q 193 884 189 913 q 179 836 197 856 q 131 815 160 817 q 83 831 103 814 q 63 881 58 849 q 85 939 67 913 z "},"˙":{"ha":194,"x_min":82,"x_max":185,"o":"m 144 874 q 174 864 164 874 q 181 839 185 854 q 158 813 175 824 q 122 801 142 801 q 92 813 103 801 q 86 839 82 824 q 108 864 90 854 q 144 874 125 874 z "},"˚":{"ha":222,"x_min":92,"x_max":214,"o":"m 156 897 q 197 879 179 897 q 214 836 214 861 q 192 794 211 811 q 149 776 172 776 q 108 794 125 776 q 94 836 92 811 q 113 879 94 861 q 156 897 132 897 m 154 879 q 125 867 138 879 q 111 836 113 856 q 120 806 108 818 q 149 793 132 793 q 181 806 168 793 q 196 836 193 818 q 185 867 197 856 q 154 879 174 879 z "},"˛":{"ha":256,"x_min":15,"x_max":125,"o":"m 43 -29 q 61 -36 56 -33 q 68 -41 67 -39 q 68 -44 69 -43 q 65 -47 67 -46 q 54 -76 56 -58 q 60 -106 53 -93 q 81 -121 67 -117 q 115 -111 94 -125 q 123 -114 121 -108 q 119 -122 125 -119 q 76 -139 101 -133 q 32 -129 50 -144 q 15 -87 15 -114 q 28 -42 15 -61 q 35 -32 32 -37 q 43 -29 39 -26 z "},"ˇ":{"ha":260,"x_min":74,"x_max":276,"o":"m 90 917 q 132 877 111 893 q 174 858 153 861 q 216 867 194 854 q 258 913 238 879 q 271 908 265 913 q 276 896 276 904 q 264 878 271 888 q 246 860 257 868 q 199 835 225 840 q 147 836 172 829 q 103 860 122 843 q 75 906 83 878 q 81 914 74 908 q 90 917 89 919 z "},"\"":{"ha":249,"x_min":53,"x_max":271,"o":"m 53 603 q 61 703 58 665 q 65 764 64 742 q 67 797 67 786 q 69 813 68 807 q 78 828 69 822 q 97 834 86 833 q 122 828 108 835 q 144 808 135 822 l 144 807 q 130 746 136 768 q 119 710 124 724 q 113 690 115 697 q 107 672 110 682 q 101 647 104 661 q 94 604 99 632 q 78 592 88 594 q 53 603 69 590 m 179 603 q 188 703 185 665 q 192 764 190 742 q 194 797 193 786 q 196 813 194 807 q 204 828 196 822 q 224 834 213 833 q 248 828 235 835 q 271 808 261 822 l 271 807 q 256 746 263 768 q 246 710 250 724 q 239 690 242 697 q 233 672 236 682 q 228 647 231 661 q 221 604 225 632 q 205 592 214 594 q 179 603 196 590 z "},"#":{"ha":750,"x_min":36,"x_max":760,"o":"m 293 142 q 280 121 290 128 q 260 114 269 114 q 243 121 250 114 q 239 142 236 128 l 371 754 q 385 776 375 768 q 406 783 396 783 q 424 776 417 783 q 426 756 431 769 l 293 142 m 453 142 q 440 121 450 128 q 420 114 431 114 q 403 121 410 114 q 400 142 397 128 l 532 754 q 547 776 536 768 q 567 783 557 783 q 583 776 576 783 q 586 756 590 769 l 453 142 m 685 347 q 704 339 699 347 q 708 320 710 331 q 697 301 706 310 q 674 293 688 293 l 61 293 q 42 302 47 293 q 38 322 36 311 q 49 340 40 332 q 71 347 57 347 l 685 347 m 735 568 q 754 560 749 568 q 758 542 760 551 q 747 524 756 532 q 724 515 738 515 l 111 515 q 90 524 96 515 q 87 543 85 533 q 97 560 89 553 q 121 568 106 568 l 735 568 z "},"$":{"ha":519,"x_min":38,"x_max":547,"o":"m 133 179 q 78 222 100 193 q 47 285 56 250 q 40 358 38 321 q 58 429 43 396 q 72 435 64 439 q 78 421 81 431 q 61 358 64 392 q 66 292 58 324 q 93 236 74 261 q 143 199 113 211 q 209 189 175 185 q 272 210 243 193 q 324 256 301 228 q 358 318 347 285 q 364 395 369 357 q 342 472 358 433 q 302 549 325 511 q 256 626 279 588 q 214 704 233 665 q 188 782 194 743 q 195 903 174 851 q 256 988 217 956 q 344 1033 294 1021 q 438 1038 394 1046 q 513 999 482 1029 q 546 915 544 968 q 538 858 547 886 q 510 808 529 829 q 466 775 492 788 q 408 764 440 763 q 398 775 397 765 q 410 785 399 785 q 474 802 447 782 q 514 851 500 822 q 527 914 528 881 q 508 972 526 947 q 463 998 493 992 q 399 996 432 1004 q 335 964 365 988 q 292 901 306 940 q 288 806 278 863 q 343 675 297 749 q 399 579 374 625 q 441 488 425 533 q 460 399 457 443 q 450 306 464 354 q 400 222 435 254 q 320 174 365 189 q 226 160 275 158 q 133 179 176 161 m 374 1114 q 359 844 365 974 q 348 591 353 714 q 338 350 343 468 q 326 115 332 232 q 317 101 326 107 q 298 94 308 96 q 278 98 288 93 q 271 117 269 103 q 284 386 278 257 q 296 638 290 515 q 307 877 301 760 q 319 1111 313 994 q 328 1128 319 1122 q 348 1133 338 1133 q 366 1128 358 1133 q 374 1114 374 1124 z "},"[":{"ha":350,"x_min":22,"x_max":385,"o":"m 82 1054 q 182 1057 133 1056 q 270 1059 231 1058 q 337 1059 310 1060 q 372 1057 364 1058 q 382 1045 379 1056 q 383 1022 385 1035 q 376 1000 381 1010 q 363 990 371 990 q 344 990 363 990 q 296 990 325 990 q 230 990 267 990 q 158 989 193 989 q 132 524 139 750 q 113 69 125 297 q 180 72 146 71 q 242 73 214 72 q 292 73 271 74 q 319 71 313 72 q 328 59 326 69 q 328 36 331 49 q 322 14 326 24 q 308 4 317 4 q 276 4 308 4 q 199 4 244 4 q 104 3 153 4 q 22 3 56 3 q 38 251 32 126 q 49 506 43 376 q 63 771 56 635 q 82 1054 69 907 z "},"]":{"ha":350,"x_min":22,"x_max":383,"o":"m 325 11 q 224 8 274 10 q 135 6 175 7 q 69 6 96 6 q 33 8 42 6 q 24 20 26 10 q 24 43 22 31 q 31 65 26 56 q 44 75 36 75 q 63 75 44 75 q 110 75 81 75 q 175 76 139 75 q 247 76 211 76 q 274 542 267 315 q 294 996 281 768 q 227 994 261 994 q 164 992 193 993 q 114 992 135 992 q 86 994 93 992 q 77 1006 79 996 q 77 1029 75 1017 q 84 1051 79 1042 q 97 1061 89 1061 q 130 1061 97 1061 q 208 1061 163 1061 q 301 1062 253 1061 q 383 1063 350 1063 q 368 814 374 939 q 356 560 363 689 q 343 294 350 431 q 325 11 336 158 z "},"^":{"ha":708,"x_min":47,"x_max":717,"o":"m 664 468 l 379 828 q 243 656 363 800 q 118 504 124 511 q 91 490 107 493 q 61 491 75 486 q 48 506 47 496 q 51 524 49 515 q 374 948 364 946 q 393 936 383 950 l 693 561 q 664 468 717 542 z "},"‚":{"ha":171,"x_min":25,"x_max":156,"o":"m 154 106 q 147 67 153 92 q 133 17 142 42 q 110 -26 124 -8 q 81 -44 97 -44 q 71 -40 74 -44 q 72 -32 68 -36 q 97 10 92 -14 q 97 57 101 33 q 57 68 74 57 q 33 95 40 79 q 28 130 25 111 q 47 164 31 149 q 86 183 67 182 q 122 174 106 185 q 147 145 138 164 q 154 106 156 126 z "},"„":{"ha":324,"x_min":31,"x_max":314,"o":"m 160 200 q 153 161 158 186 q 138 111 147 136 q 115 68 128 86 q 86 50 103 50 q 76 54 79 50 q 79 63 74 58 q 102 104 97 81 q 103 151 107 128 q 63 163 79 151 q 38 190 46 174 q 33 224 31 206 q 53 258 36 243 q 92 278 72 276 q 127 269 111 279 q 152 240 143 258 q 160 200 161 221 m 313 200 q 306 161 311 186 q 290 111 300 136 q 268 68 281 86 q 239 50 256 50 q 229 54 232 50 q 232 63 226 58 q 255 104 250 81 q 256 151 260 128 q 215 163 232 151 q 191 190 199 174 q 186 224 183 206 q 206 258 189 243 q 244 278 225 276 q 280 269 264 279 q 305 240 296 258 q 313 200 314 221 z "},"…":{"ha":417,"x_min":15,"x_max":428,"o":"m 46 274 q 92 290 68 293 q 131 269 115 288 q 148 217 150 247 q 124 165 146 186 q 78 142 104 142 q 32 164 51 142 q 18 220 15 188 q 46 274 21 253 m 185 274 q 231 290 207 293 q 269 269 254 288 q 287 217 289 247 q 263 165 285 186 q 217 142 243 142 q 171 164 190 142 q 157 220 154 188 q 185 274 160 253 m 324 274 q 369 290 346 293 q 408 269 393 288 q 426 217 428 247 q 401 165 424 186 q 356 142 382 142 q 310 164 329 142 q 296 220 293 188 q 324 274 299 253 z "},"†":{"ha":378,"x_min":61,"x_max":399,"o":"m 271 1083 q 256 813 263 943 q 244 560 249 683 q 233 319 239 438 q 222 85 228 201 q 213 71 222 76 q 193 64 204 65 q 174 67 182 63 q 165 86 165 72 q 178 356 172 226 q 191 607 185 485 q 203 847 197 729 q 215 1081 208 964 q 226 1097 217 1092 q 245 1103 235 1103 q 263 1098 256 1103 q 271 1083 271 1093 m 64 799 l 399 801 l 397 751 q 228 751 308 751 q 61 751 147 750 l 64 799 z "},"‡":{"ha":278,"x_min":-67,"x_max":404,"o":"m 221 1083 q 206 813 213 943 q 194 560 199 683 q 183 319 189 438 q 172 85 178 201 q 163 71 172 76 q 143 64 154 65 q 124 67 132 63 q 115 86 115 72 q 128 356 122 226 q 141 607 135 485 q 153 847 147 729 q 165 1081 158 964 q 176 1097 167 1092 q 195 1103 185 1103 q 213 1098 206 1103 q 221 1083 221 1093 m -49 697 l 404 700 l 403 650 q 298 650 358 650 q 174 650 238 650 q 50 650 110 650 q -51 650 -10 650 l -49 697 m -65 465 l 389 468 l 388 418 q 283 418 343 418 q 158 418 222 418 q 35 418 94 418 q -67 418 -25 418 l -65 465 z "},"ˆ":{"ha":308,"x_min":64,"x_max":331,"o":"m 310 774 q 244 832 269 818 q 196 854 218 846 q 148 842 181 861 q 90 778 115 822 q 73 783 82 778 q 64 800 64 789 q 87 829 74 814 q 116 858 100 844 q 151 880 132 871 q 189 889 169 889 q 235 880 210 889 q 281 857 260 871 q 317 825 303 843 q 331 789 331 807 q 321 778 329 786 q 310 774 313 771 z "},"‰":{"ha":581,"x_min":63,"x_max":578,"o":"m 164 1017 q 242 978 219 1019 q 256 876 265 938 q 222 777 246 814 q 161 733 199 740 q 93 762 124 726 q 69 867 63 797 q 102 961 75 938 q 169 986 129 985 q 174 979 175 986 q 168 972 174 972 q 143 942 153 965 q 131 883 133 919 q 133 806 129 846 q 148 760 138 767 q 171 769 158 753 q 192 846 181 785 q 192 955 204 907 q 163 1003 179 1003 q 157 1010 157 1003 q 164 1017 157 1017 m 307 428 q 388 390 365 431 q 399 287 410 349 q 366 188 389 225 q 305 144 343 151 q 238 173 267 138 q 214 278 208 208 q 247 372 219 349 q 313 397 274 396 q 317 390 318 397 q 311 383 317 383 q 286 353 296 376 q 274 294 276 331 q 277 217 272 257 q 292 171 282 178 q 314 181 301 164 q 337 257 325 196 q 335 366 349 318 q 306 414 322 414 q 300 421 300 414 q 307 428 300 428 m 475 428 q 556 390 533 431 q 567 287 578 349 q 534 188 557 225 q 473 144 511 151 q 406 173 435 138 q 382 278 376 208 q 415 372 388 349 q 481 397 442 396 q 485 390 486 397 q 479 383 485 383 q 454 353 464 376 q 442 294 444 331 q 445 217 440 257 q 460 171 450 178 q 482 181 469 164 q 505 257 493 196 q 503 366 517 318 q 474 414 490 414 q 468 421 468 414 q 475 428 468 428 m 114 136 q 97 127 106 125 q 83 138 89 129 q 75 157 78 146 q 72 175 72 168 l 322 1019 q 333 1026 326 1029 q 347 1016 340 1024 q 356 999 353 1008 q 358 988 360 990 q 301 788 331 893 q 242 573 272 682 q 179 353 211 464 q 114 136 147 242 z "},"Š":{"ha":519,"x_min":38,"x_max":547,"o":"m 133 179 q 78 222 100 193 q 47 285 56 250 q 40 358 38 321 q 58 429 43 396 q 72 435 64 439 q 78 421 81 431 q 61 358 64 392 q 66 292 58 324 q 93 236 74 261 q 143 199 113 211 q 209 189 175 185 q 272 210 243 193 q 324 256 301 228 q 358 318 347 285 q 364 395 369 357 q 342 472 358 433 q 302 549 325 511 q 256 626 279 588 q 214 704 233 665 q 188 782 194 743 q 195 903 174 851 q 256 988 217 956 q 344 1033 294 1021 q 438 1038 394 1046 q 513 999 482 1029 q 546 915 544 968 q 538 858 547 886 q 510 808 529 829 q 466 775 492 788 q 408 764 440 763 q 398 775 397 765 q 410 785 399 785 q 474 802 447 782 q 514 851 500 822 q 527 914 528 881 q 508 972 526 947 q 463 998 493 992 q 399 996 432 1004 q 335 964 365 988 q 292 901 306 940 q 288 806 278 863 q 343 675 297 749 q 399 579 374 625 q 441 488 425 533 q 460 399 457 443 q 450 306 464 354 q 400 222 435 254 q 320 174 365 189 q 226 160 275 158 q 133 179 176 161 m 246 1194 q 288 1155 267 1171 q 329 1135 308 1139 q 372 1144 350 1132 q 414 1190 393 1157 q 426 1186 421 1190 q 432 1174 432 1182 q 419 1156 426 1165 q 401 1138 413 1146 q 354 1113 381 1118 q 303 1114 328 1107 q 258 1138 278 1121 q 231 1183 239 1156 q 237 1192 229 1186 q 246 1194 244 1197 z "},"‹":{"ha":547,"x_min":39,"x_max":561,"o":"m 561 639 l 142 331 q 313 173 186 313 q 447 28 440 33 q 458 0 456 15 q 453 -29 460 -15 q 436 -42 446 -43 q 418 -39 426 -42 q 40 328 40 318 q 53 347 39 338 l 471 669 q 561 639 493 693 z "},"‘":{"ha":168,"x_min":56,"x_max":186,"o":"m 60 714 q 73 751 64 726 q 95 799 82 775 q 124 838 108 822 q 156 853 140 854 q 165 846 161 850 q 161 839 168 842 q 133 801 142 824 q 124 754 124 778 q 162 736 147 750 q 181 705 176 722 q 180 669 186 688 q 156 639 174 651 q 115 626 135 624 q 82 640 96 628 q 62 673 68 653 q 60 714 56 693 z "},"’":{"ha":171,"x_min":60,"x_max":190,"o":"m 189 718 q 182 679 188 704 q 167 629 176 654 q 144 586 157 604 q 115 568 132 568 q 106 572 108 568 q 108 581 103 576 q 131 622 126 599 q 132 669 136 646 q 92 681 108 669 q 67 708 75 692 q 63 742 60 724 q 82 776 65 761 q 121 796 101 794 q 156 787 140 797 q 181 758 171 776 q 189 718 190 739 z "},"“":{"ha":325,"x_min":57,"x_max":344,"o":"m 61 728 q 74 765 65 740 q 97 813 83 789 q 126 852 110 836 q 157 867 142 868 q 166 860 163 864 q 163 853 169 856 q 133 815 142 838 q 125 768 125 792 q 163 750 149 764 q 183 719 178 736 q 181 683 188 701 q 156 653 174 665 q 115 640 135 638 q 83 654 96 642 q 63 687 69 667 q 61 728 57 707 m 218 728 q 231 765 222 740 q 253 813 240 789 q 283 852 267 836 q 314 867 299 868 q 323 860 319 864 q 319 853 326 856 q 290 815 299 838 q 282 768 282 792 q 320 750 306 764 q 340 719 335 736 q 338 683 344 701 q 313 653 331 665 q 272 640 292 638 q 240 654 253 642 q 220 687 226 667 q 218 728 214 707 z "},"”":{"ha":325,"x_min":60,"x_max":347,"o":"m 343 751 q 331 715 340 739 q 309 667 322 690 q 281 626 296 643 q 249 611 265 610 q 240 618 243 614 q 243 625 238 622 q 272 664 264 640 q 281 711 279 688 q 242 728 257 715 q 222 759 228 742 q 223 794 217 776 q 247 825 229 813 q 288 839 268 840 q 321 825 307 838 q 341 792 335 813 q 343 751 347 772 m 186 750 q 173 713 182 738 q 151 665 164 689 q 122 625 138 642 q 92 610 107 608 q 83 617 86 613 q 86 624 79 621 q 115 662 107 639 q 122 708 122 685 q 84 726 99 713 q 65 758 69 740 q 65 793 60 775 q 89 824 71 811 q 129 838 110 839 q 163 824 149 836 q 183 791 176 811 q 186 750 190 771 z "},"•":{"ha":303,"x_min":42,"x_max":306,"o":"m 101 549 q 194 580 146 585 q 274 539 242 575 q 298 490 290 517 q 303 434 306 463 q 290 378 301 406 q 258 331 279 351 q 213 296 238 307 q 164 284 189 285 q 115 294 139 283 q 74 326 92 306 q 49 380 57 350 q 45 440 42 410 q 63 499 49 469 q 101 549 76 528 z "},"–":{"ha":489,"x_min":39,"x_max":486,"o":"m 42 396 l 486 399 l 486 349 q 382 349 442 349 q 260 349 322 349 q 140 349 199 349 q 39 349 81 349 l 42 396 z "},"—":{"ha":594,"x_min":39,"x_max":593,"o":"m 42 401 l 593 404 l 592 354 q 472 354 547 354 q 314 354 396 354 q 157 354 232 354 q 39 354 82 354 l 42 401 z "},"›":{"ha":533,"x_min":21,"x_max":529,"o":"m 21 0 l 425 326 q 247 476 381 342 q 107 614 113 610 q 95 642 97 626 q 99 671 93 657 q 115 685 106 685 q 132 682 125 685 q 528 333 528 343 q 515 313 529 324 l 111 -26 q 21 0 88 -50 z "},"œ":{"ha":788,"x_min":7,"x_max":838,"o":"m 829 414 q 753 302 792 358 q 670 206 714 246 q 577 150 626 165 q 469 163 528 135 q 410 238 425 188 q 403 338 396 288 q 382 339 392 338 q 361 346 372 340 q 331 291 347 318 q 294 240 315 264 q 219 181 258 200 q 145 160 181 161 q 80 176 110 160 q 32 225 50 192 q 8 313 10 263 q 22 417 7 364 q 56 498 35 458 q 106 567 76 538 q 172 613 135 596 q 250 626 208 629 q 297 658 272 651 q 344 654 322 664 q 383 622 367 644 q 406 568 400 600 q 399 465 410 519 q 369 365 388 411 q 406 358 388 357 q 410 382 407 371 q 417 404 414 393 q 452 479 429 442 q 504 549 475 517 q 567 604 533 581 q 639 636 601 628 q 695 638 668 642 q 740 620 722 633 q 762 585 758 607 q 747 535 765 564 q 699 487 731 510 q 632 444 668 464 q 560 408 596 425 q 496 379 524 392 q 485 328 489 357 q 483 271 481 299 q 495 219 485 243 q 531 185 506 196 q 607 190 567 168 q 685 252 647 213 q 756 338 722 292 q 810 417 789 385 q 827 426 817 428 q 829 414 838 425 m 235 593 q 181 551 207 581 q 136 485 156 522 q 104 406 117 447 q 89 325 92 364 q 95 254 86 286 q 126 206 104 222 q 191 197 154 186 q 253 228 228 207 q 305 286 283 251 q 342 356 326 321 q 298 399 319 371 q 261 461 276 428 q 238 529 246 494 q 235 593 229 564 m 253 596 q 254 539 246 572 q 278 473 263 506 q 315 413 294 440 q 351 372 335 385 q 386 507 383 453 q 376 593 389 561 q 345 630 364 619 q 308 640 326 640 q 274 627 289 639 q 253 596 258 615 m 633 590 q 592 555 611 576 q 556 508 572 533 q 526 456 539 482 q 504 404 513 429 q 562 431 528 415 q 629 465 596 446 q 690 505 663 483 q 731 550 718 526 q 735 586 742 572 q 711 605 728 600 q 673 606 694 610 q 633 590 651 601 z "},"¨":{"ha":344,"x_min":83,"x_max":390,"o":"m 115 913 q 160 929 136 932 q 200 908 185 926 q 216 856 218 886 q 193 804 214 825 q 147 781 174 781 q 101 803 121 781 q 86 859 83 826 q 115 913 89 892 m 288 913 q 333 929 308 932 q 372 908 357 926 q 388 856 390 886 q 365 804 386 825 q 319 781 346 781 q 274 803 293 781 q 258 859 256 826 q 288 913 261 892 z "},"Ÿ":{"ha":619,"x_min":29,"x_max":636,"o":"m 294 569 q 326 624 311 594 q 355 683 342 653 q 380 742 368 714 q 401 794 392 771 q 415 826 408 810 q 432 853 421 842 q 458 871 443 867 q 487 872 472 875 q 513 860 501 869 q 532 838 525 851 q 540 767 542 814 q 531 668 539 719 q 513 569 524 617 q 496 496 503 521 q 615 465 593 507 q 578 347 636 424 q 563 345 571 339 q 561 360 556 351 q 594 457 614 429 q 489 475 574 485 q 458 390 475 433 q 419 309 442 347 q 366 238 396 271 q 297 182 336 204 q 218 153 260 161 q 140 148 176 144 q 75 166 103 151 q 38 204 47 181 q 44 259 29 228 q 108 328 60 290 q 187 379 143 354 q 272 424 231 404 q 348 459 314 444 q 399 478 382 474 q 410 525 403 496 q 422 589 417 554 q 433 660 428 624 q 440 728 438 696 q 442 785 443 760 q 433 822 440 811 q 419 792 431 822 q 391 719 408 763 q 350 626 374 675 q 299 540 326 576 q 242 485 272 503 q 181 488 211 468 q 142 535 157 503 q 124 610 126 567 q 128 711 121 657 q 149 821 135 765 q 183 928 163 876 q 225 1022 203 981 q 249 1040 231 1035 q 287 1046 268 1046 q 318 1040 306 1046 q 325 1024 331 1033 q 278 921 301 983 q 238 790 254 858 q 219 656 222 721 q 232 547 215 592 q 258 531 240 524 q 294 569 275 538 m 392 454 q 335 433 375 450 q 248 392 294 417 q 156 340 201 368 q 83 282 110 311 q 57 233 58 254 q 69 197 56 211 q 108 179 82 183 q 167 182 135 175 q 251 220 215 193 q 315 285 288 247 q 360 366 342 322 q 392 454 378 410 m 326 1240 q 372 1257 347 1260 q 411 1236 396 1254 q 427 1183 429 1214 q 404 1132 425 1153 q 358 1108 385 1108 q 313 1131 332 1108 q 297 1187 294 1154 q 326 1240 300 1219 m 499 1240 q 544 1257 519 1260 q 583 1236 568 1254 q 599 1183 601 1214 q 576 1132 597 1153 q 531 1108 557 1108 q 485 1131 504 1108 q 469 1187 467 1154 q 499 1240 472 1219 z "},"¡":{"ha":139,"x_min":29,"x_max":168,"o":"m 29 -33 q 42 171 32 71 q 65 370 53 271 q 87 569 76 469 q 100 771 97 668 q 113 787 100 783 q 133 775 126 790 q 141 727 139 765 q 142 632 143 689 q 140 506 142 575 q 133 364 138 436 q 125 223 129 292 q 117 99 121 154 q 109 7 113 43 q 104 -36 106 -29 q 96 -51 104 -46 q 76 -58 88 -57 q 52 -54 65 -60 q 29 -35 39 -49 l 29 -33 m 103 819 q 76 834 85 821 q 68 864 67 847 q 88 897 72 883 q 124 911 104 911 q 156 899 144 913 q 164 867 168 886 q 142 831 160 846 q 103 819 125 817 z "},"¢":{"ha":393,"x_min":8,"x_max":447,"o":"m 240 603 q 159 524 192 575 q 111 422 126 474 q 94 346 100 386 q 96 269 89 306 q 147 199 108 217 q 238 214 185 182 q 288 254 264 231 q 335 305 313 278 q 377 361 357 332 q 415 417 397 390 q 420 424 418 419 q 425 431 422 428 q 439 434 431 439 q 442 421 447 429 q 390 345 418 386 q 329 267 363 304 q 258 201 296 229 q 178 164 221 172 q 81 174 118 153 q 26 233 43 194 q 8 322 8 272 q 22 417 8 371 q 50 485 32 450 q 92 549 68 519 q 144 603 115 579 q 204 640 172 628 q 249 651 224 647 q 298 651 274 654 q 342 638 322 649 q 374 607 363 628 q 380 580 379 594 q 378 550 381 565 q 365 542 375 540 q 357 553 356 543 q 354 597 363 575 q 332 617 346 613 q 301 622 318 622 q 269 615 285 621 q 240 603 253 610 m 258 729 q 249 572 253 636 q 244 461 246 508 q 242 376 243 414 q 239 295 240 338 q 235 199 238 253 q 229 68 233 146 q 220 54 229 60 q 201 47 211 49 q 181 51 190 46 q 174 69 172 56 q 181 226 178 163 q 187 337 185 290 q 190 421 189 383 q 193 501 192 458 q 197 596 194 543 q 204 726 200 649 q 213 743 204 738 q 233 749 222 749 q 251 744 243 749 q 258 729 258 739 z "},"£":{"ha":656,"x_min":32,"x_max":644,"o":"m 242 669 l 404 671 q 431 844 419 758 q 457 1008 442 929 q 412 984 431 1001 q 380 942 393 967 q 360 892 367 918 q 350 842 353 865 q 338 831 349 831 q 328 843 328 832 q 354 940 335 903 q 399 999 374 978 q 451 1026 424 1019 q 501 1032 479 1033 q 538 1022 524 1031 q 551 1006 553 1014 q 534 850 544 938 q 508 671 524 763 l 576 672 l 575 622 l 497 622 q 467 499 483 560 q 428 388 450 439 q 382 297 407 338 q 326 235 357 257 q 477 204 397 215 q 632 206 557 193 q 641 204 638 207 q 644 197 644 201 q 642 190 644 193 q 633 185 639 186 q 469 183 554 171 q 307 217 385 196 q 249 181 283 196 q 179 162 215 167 q 110 163 143 157 q 54 193 76 169 q 33 239 35 211 q 56 283 32 267 q 95 296 72 296 q 142 290 118 296 q 190 276 167 285 q 231 263 213 268 q 334 426 297 333 q 393 621 371 519 q 316 621 354 621 q 239 622 278 621 l 242 669 m 160 206 q 214 246 188 224 q 179 258 199 250 q 140 270 160 265 q 100 275 119 275 q 68 267 81 275 q 54 238 51 256 q 71 208 57 219 q 114 191 89 189 q 160 206 139 193 z "},"¶":{"ha":622,"x_min":53,"x_max":650,"o":"m 307 432 q 206 442 253 428 q 124 488 160 457 q 71 562 89 518 q 56 661 53 606 q 67 728 57 689 q 108 805 76 768 q 197 868 139 842 q 356 894 256 894 l 650 894 l 647 847 l 593 847 l 540 -100 l 483 -100 l 536 847 l 386 847 l 333 -100 l 278 -100 l 307 432 z "},"µ":{"ha":456,"x_min":13,"x_max":475,"o":"m 418 743 l 475 743 l 440 125 l 383 125 l 390 235 l 389 235 q 362 190 376 213 q 328 151 347 168 q 285 122 308 133 q 235 111 261 111 q 144 147 181 111 q 90 228 108 182 l 88 228 l 67 -153 l 13 -153 l 61 743 l 117 743 l 96 375 q 106 269 93 311 q 139 203 118 228 q 185 168 160 178 q 231 158 210 158 q 281 169 253 158 q 333 206 308 179 q 376 278 357 232 q 399 394 394 324 l 418 743 z "},"·":{"ha":213,"x_min":42,"x_max":217,"o":"m 131 510 q 192 487 167 510 q 214 439 217 464 q 186 390 213 413 q 124 368 160 368 q 66 390 90 368 q 43 439 42 413 q 72 487 46 464 q 131 510 97 510 z "},"¤":{"ha":639,"x_min":35,"x_max":640,"o":"m 543 701 l 588 743 q 613 753 600 754 q 633 743 625 751 q 640 722 640 735 q 628 697 640 708 l 560 636 q 576 496 578 568 q 556 361 575 424 l 621 293 q 631 269 632 282 q 621 247 629 256 q 599 238 613 239 q 575 247 586 236 l 528 296 q 506 264 519 282 q 441 208 482 229 q 354 180 400 186 q 265 183 308 174 q 193 221 222 193 q 164 256 175 238 q 144 293 153 274 l 86 243 q 61 232 74 231 q 42 242 49 233 q 35 263 35 250 q 47 289 35 276 l 125 358 q 126 490 113 421 q 171 621 139 558 l 93 703 q 83 728 82 715 q 93 751 85 742 q 114 761 101 760 q 138 750 126 763 l 206 679 q 296 774 247 738 q 390 819 344 811 q 476 799 436 826 q 543 701 517 772 m 236 378 q 278 288 242 317 q 359 262 314 258 q 448 302 404 265 q 511 411 492 339 q 524 508 525 464 q 515 596 524 553 q 473 697 501 668 q 411 724 444 726 q 345 697 378 722 q 290 636 313 671 q 259 573 271 604 q 241 510 247 542 q 234 447 235 479 q 236 378 233 414 z "},"™":{"ha":563,"x_min":71,"x_max":589,"o":"m 172 732 q 187 688 181 713 q 186 642 193 663 q 164 619 179 622 q 140 633 149 617 q 134 660 135 643 q 135 697 133 678 q 138 735 136 717 q 143 767 140 754 q 114 807 129 790 q 114 811 111 808 q 118 811 117 814 q 146 776 132 797 q 160 846 153 811 q 175 915 167 881 q 149 909 165 913 q 115 905 132 906 q 85 909 99 904 q 71 928 72 914 q 74 932 71 929 q 79 929 76 932 q 102 913 81 914 q 154 918 124 913 q 219 932 185 924 q 281 942 253 940 q 326 937 310 944 q 338 903 342 929 q 334 899 338 899 q 331 903 331 900 q 320 930 335 924 q 285 935 306 936 q 244 930 265 935 q 213 924 222 925 q 190 828 200 878 q 172 732 179 779 m 171 717 q 166 681 168 700 q 169 646 164 661 q 176 638 174 636 q 179 645 178 639 q 181 660 181 651 q 182 671 182 668 q 178 693 182 682 q 171 717 175 704 m 394 921 q 412 927 397 928 q 424 915 426 926 q 408 856 418 892 q 388 783 397 821 q 376 711 379 746 q 379 653 372 676 q 385 689 381 665 q 397 739 390 713 q 414 790 404 765 q 435 832 424 815 q 477 862 456 861 q 499 822 499 863 q 515 859 506 842 q 535 888 524 876 q 572 903 556 908 q 586 869 589 899 q 576 807 585 840 q 556 739 567 774 q 538 672 546 704 q 528 614 529 640 q 536 596 526 603 q 557 589 546 589 q 553 583 563 586 q 515 583 533 576 q 497 614 497 589 q 497 631 497 622 q 500 649 497 640 q 514 701 506 674 q 531 758 522 729 q 547 813 540 786 q 556 864 554 840 q 556 886 557 876 q 539 883 554 896 q 508 830 521 865 q 485 756 494 794 q 467 687 475 718 q 450 646 458 656 q 442 646 444 643 q 440 680 438 658 q 448 724 443 701 q 457 769 453 747 q 461 806 461 792 q 461 817 461 810 q 460 831 461 825 q 456 838 460 836 q 447 832 453 839 q 420 780 432 813 q 401 716 408 747 q 389 660 393 685 q 385 635 385 636 q 364 634 381 628 q 344 665 347 640 q 344 723 340 689 q 358 793 349 757 q 377 863 367 829 q 394 921 388 897 z "},"¦":{"ha":101,"x_min":11,"x_max":131,"o":"m 90 276 q 76 31 83 149 q 64 -199 69 -86 l 11 -197 q 23 43 17 -74 q 36 276 29 160 l 90 276 m 131 979 q 118 734 124 851 q 107 504 113 617 l 53 506 q 65 746 60 629 q 76 979 69 863 l 131 979 z "},"®":{"ha":626,"x_min":46,"x_max":639,"o":"m 356 863 q 469 839 417 863 q 560 774 522 815 q 618 679 597 733 q 635 563 639 625 q 604 447 631 501 q 535 353 578 393 q 437 291 492 314 q 321 268 382 268 q 212 291 263 268 q 124 353 161 314 q 66 447 86 393 q 50 563 46 501 q 81 679 54 625 q 149 774 107 733 q 244 839 190 815 q 356 863 297 863 m 351 803 q 260 784 304 803 q 183 732 217 765 q 128 653 150 699 q 104 554 107 608 q 118 464 101 506 q 165 391 135 422 q 236 342 194 360 q 325 324 278 324 q 425 342 379 324 q 505 391 471 360 q 560 464 539 422 q 583 554 581 506 q 571 653 586 608 q 524 732 556 699 q 449 784 493 765 q 351 803 406 803 m 343 726 q 322 645 336 700 q 296 532 307 590 q 338 540 319 531 q 370 565 357 549 q 391 601 383 581 q 400 642 399 621 q 397 684 401 663 q 382 722 393 706 q 353 746 371 738 q 310 749 335 754 q 271 732 290 744 q 239 701 251 719 q 224 672 229 688 q 225 642 218 657 q 223 636 228 638 q 217 639 218 635 q 215 674 210 657 q 232 706 221 690 q 285 749 251 733 q 351 763 318 764 q 424 726 401 763 q 442 642 446 689 q 431 598 440 619 q 408 559 422 576 q 374 531 393 542 q 329 519 354 521 q 358 494 347 511 q 375 458 368 476 q 388 427 382 440 q 404 415 394 414 q 430 433 414 415 q 472 497 446 451 q 481 499 476 500 q 482 494 485 497 q 465 465 478 485 q 438 426 453 444 q 405 395 422 407 q 374 392 388 383 q 354 415 363 399 q 337 448 346 431 q 317 482 328 465 q 293 506 307 499 q 291 487 292 497 q 289 465 290 476 q 313 429 301 450 q 325 388 324 408 q 315 355 331 361 q 283 356 300 349 q 258 381 267 364 q 248 417 250 397 q 247 457 246 436 q 251 494 249 478 q 189 514 224 514 q 186 519 186 514 q 189 525 186 525 q 253 503 222 525 q 254 517 253 510 q 257 531 256 524 q 228 550 240 538 q 228 582 217 563 q 234 583 231 585 q 235 575 238 581 q 238 552 228 561 q 257 539 247 543 q 278 637 267 588 q 304 733 290 686 q 313 740 306 738 q 326 742 319 742 q 339 738 333 742 q 343 726 344 735 m 289 453 q 290 403 288 425 q 301 374 292 382 q 314 366 308 361 q 319 385 319 371 q 307 422 315 404 q 289 453 299 439 z "},"©":{"ha":626,"x_min":46,"x_max":639,"o":"m 356 863 q 469 839 417 863 q 560 774 522 815 q 618 679 597 733 q 635 563 639 625 q 604 447 631 501 q 535 353 578 393 q 437 291 492 314 q 321 268 382 268 q 212 291 263 268 q 124 353 161 314 q 66 447 86 393 q 50 563 46 501 q 81 679 54 625 q 149 774 107 733 q 244 839 190 815 q 356 863 297 863 m 351 803 q 260 784 304 803 q 183 732 217 765 q 128 653 150 699 q 104 554 107 608 q 118 464 101 506 q 165 391 135 422 q 236 342 194 360 q 325 324 278 324 q 425 342 379 324 q 505 391 471 360 q 560 464 539 422 q 583 554 581 506 q 571 653 586 608 q 524 732 556 699 q 449 784 493 765 q 351 803 406 803 m 358 714 q 299 656 322 693 q 263 579 275 618 q 249 522 253 551 q 253 467 246 493 q 288 414 260 426 q 354 425 317 401 q 429 492 396 449 q 489 575 463 535 q 496 586 490 578 q 506 589 500 593 q 508 578 513 585 q 470 522 492 553 q 424 464 449 492 q 372 415 400 436 q 313 388 343 394 q 240 394 268 379 q 199 439 213 410 q 185 505 186 468 q 196 575 185 542 q 217 626 204 600 q 248 674 231 651 q 286 714 265 696 q 332 742 307 732 q 365 749 346 747 q 401 749 383 751 q 435 740 419 747 q 457 717 450 732 q 463 697 463 707 q 461 675 463 686 q 451 669 458 668 q 446 676 443 669 q 443 710 449 696 q 427 724 438 721 q 404 727 417 728 q 380 722 392 726 q 358 714 368 718 z "},"°":{"ha":314,"x_min":58,"x_max":333,"o":"m 203 868 q 255 857 231 868 q 297 827 279 846 q 324 783 315 808 q 332 728 333 757 q 318 674 331 699 q 285 630 306 649 q 240 601 265 611 q 186 590 214 590 q 135 601 158 590 q 94 630 111 611 q 67 674 76 649 q 60 728 58 699 q 74 783 61 757 q 106 827 86 808 q 150 857 125 846 q 203 868 175 868 m 200 828 q 130 799 160 828 q 97 725 100 769 q 122 658 94 685 q 189 631 149 631 q 263 658 233 631 q 294 725 292 685 q 271 799 297 769 q 200 828 244 828 z "},"±":{"ha":381,"x_min":29,"x_max":382,"o":"m 244 597 l 231 263 l 182 261 q 189 431 185 350 q 197 597 193 511 l 244 597 m 47 451 l 382 454 l 381 404 q 211 403 292 404 q 44 404 131 403 l 47 451 m 32 221 l 367 224 l 365 174 q 196 173 276 174 q 29 174 115 172 l 32 221 z "},"¸":{"ha":238,"x_min":18,"x_max":219,"o":"m 136 182 q 167 166 151 175 q 193 146 182 157 q 213 113 207 132 q 219 73 219 93 q 211 33 218 53 q 190 -3 204 13 q 152 -29 174 -22 q 108 -35 131 -36 q 62 -26 85 -35 q 19 -6 39 -18 q 21 9 18 4 q 36 11 24 14 q 62 3 49 8 q 87 -3 75 -1 q 110 -3 99 -6 q 132 11 121 -1 q 146 36 140 19 q 154 71 151 53 q 156 106 157 89 q 150 135 156 124 q 138 153 146 144 q 118 168 129 163 l 136 182 z "},"ª":{"ha":335,"x_min":58,"x_max":356,"o":"m 254 883 q 276 888 263 890 q 292 875 289 886 q 290 861 292 867 q 260 768 272 808 q 242 685 247 728 q 244 665 239 668 q 256 668 249 663 q 273 682 264 674 q 288 697 282 690 q 317 736 303 717 q 343 774 332 756 q 351 779 346 779 q 353 772 356 779 q 333 742 344 760 q 308 708 321 725 q 282 676 296 692 q 256 653 268 661 q 225 643 239 642 q 205 665 208 647 q 204 704 201 682 q 213 747 207 726 q 222 779 219 768 q 192 711 211 747 q 143 658 174 675 q 106 648 122 647 q 79 658 90 649 q 63 685 68 668 q 60 722 58 701 q 74 774 60 747 q 148 856 99 828 q 254 883 197 885 m 246 869 q 155 824 197 861 q 103 736 113 788 q 100 713 100 726 q 104 687 100 699 q 117 670 108 675 q 143 672 126 665 q 186 723 168 685 q 219 801 204 761 q 233 838 226 819 q 246 869 239 857 z "},"«":{"ha":772,"x_min":39,"x_max":786,"o":"m 561 639 l 142 331 q 313 173 186 313 q 447 28 440 33 q 458 0 456 15 q 453 -29 460 -15 q 436 -42 446 -43 q 418 -39 426 -42 q 40 328 40 318 q 53 347 39 338 l 471 669 q 561 639 493 693 m 786 639 l 367 331 q 538 173 411 313 q 672 28 665 33 q 683 0 681 15 q 678 -29 685 -15 q 661 -42 671 -43 q 643 -39 651 -42 q 265 328 265 318 q 278 347 264 338 l 696 669 q 786 639 718 693 z "},"»":{"ha":763,"x_min":21,"x_max":758,"o":"m 244 7 l 654 328 q 478 480 611 344 q 339 621 346 615 q 328 647 329 632 q 333 677 326 663 q 349 691 339 692 q 365 688 358 690 q 758 333 757 343 q 743 313 758 324 l 335 -21 q 244 7 313 -44 m 21 0 l 428 321 q 253 473 386 338 q 115 614 121 608 q 103 642 106 626 q 108 671 101 657 q 123 684 114 685 q 140 681 132 683 q 532 326 531 336 q 518 307 533 317 l 110 -28 q 21 0 88 -51 z "},"¬":{"ha":586,"x_min":53,"x_max":597,"o":"m 56 640 l 597 643 l 588 410 l 536 408 l 546 593 q 425 593 494 593 q 286 593 356 593 q 154 593 217 593 q 53 593 92 593 l 56 640 z "},"²":{"ha":286,"x_min":57,"x_max":308,"o":"m 117 731 q 163 723 138 726 q 214 724 189 719 q 260 747 239 729 q 296 800 282 764 q 303 802 299 804 q 307 794 308 800 q 267 736 292 754 q 216 713 243 718 q 160 712 189 708 q 110 719 132 715 q 83 726 94 724 q 69 725 72 728 q 63 725 67 721 q 61 732 57 728 q 124 814 88 763 q 189 924 160 865 q 235 1040 218 982 q 242 1143 251 1099 q 205 1181 232 1181 q 163 1144 178 1182 q 158 1124 160 1135 q 158 1100 156 1114 q 151 1094 157 1094 q 147 1100 146 1094 q 150 1142 144 1122 q 169 1176 156 1163 q 202 1195 183 1190 q 239 1196 221 1200 q 272 1178 257 1192 q 290 1144 286 1165 q 286 1040 301 1099 q 242 924 271 982 q 179 813 214 865 q 117 731 144 761 z "},"³":{"ha":243,"x_min":58,"x_max":276,"o":"m 274 1139 q 267 1096 276 1119 q 244 1049 258 1072 q 211 1008 229 1026 q 176 981 193 990 q 241 941 219 969 q 267 876 263 913 q 260 799 271 839 q 228 726 249 758 q 178 672 207 693 q 118 650 150 650 q 74 662 86 649 q 61 706 63 675 q 65 712 58 713 q 74 706 71 711 q 94 669 76 672 q 135 692 111 665 q 179 761 158 717 q 203 849 200 806 q 185 929 207 893 q 104 974 164 965 q 99 977 99 974 q 104 983 100 981 q 111 986 104 983 q 142 1003 126 990 q 172 1032 158 1015 q 194 1067 185 1049 q 208 1099 204 1085 q 217 1134 217 1117 q 211 1161 218 1151 q 190 1170 204 1171 q 153 1153 175 1169 q 145 1147 149 1150 q 138 1139 142 1144 q 118 1116 126 1128 q 104 1092 110 1104 q 97 1088 101 1086 q 94 1097 92 1090 q 130 1150 103 1126 q 188 1183 157 1174 q 243 1185 215 1194 q 274 1139 271 1175 z "},"¹":{"ha":214,"x_min":79,"x_max":258,"o":"m 204 1188 q 169 1165 190 1178 q 128 1142 147 1153 q 107 1129 117 1135 q 90 1119 97 1124 q 85 1121 85 1117 q 86 1129 79 1126 q 102 1140 93 1135 q 122 1151 111 1144 q 168 1178 144 1165 q 204 1201 192 1192 l 204 1203 q 208 1206 207 1204 q 211 1207 208 1207 l 213 1208 q 213 1210 213 1210 q 236 1213 226 1215 q 256 1206 251 1213 q 256 1204 256 1204 q 257 1203 257 1204 q 256 1180 258 1201 q 249 1124 254 1158 q 238 1046 244 1090 q 222 956 231 1001 q 201 813 211 881 q 181 710 190 746 q 179 707 181 708 q 178 706 178 707 q 175 707 178 706 q 163 704 172 704 q 140 707 151 707 q 133 711 136 708 q 131 717 125 714 q 147 803 138 750 q 165 914 156 856 q 182 1029 174 972 q 197 1128 190 1086 q 200 1141 199 1131 q 203 1163 201 1151 q 205 1181 204 1174 q 204 1188 206 1189 z "},"º":{"ha":396,"x_min":40,"x_max":399,"o":"m 215 585 q 233 532 215 561 q 275 476 250 503 q 327 429 300 450 q 375 401 354 408 q 371 539 385 488 q 335 617 357 590 q 294 643 315 638 q 256 642 274 649 q 227 620 239 636 q 215 585 215 604 m 357 261 q 301 184 333 214 q 234 143 268 154 q 166 139 200 132 q 106 172 132 146 q 58 249 74 201 q 40 350 42 297 q 50 436 40 393 q 80 515 60 479 q 131 578 100 551 q 204 613 163 604 q 241 656 218 643 q 288 666 264 668 q 335 647 313 664 q 371 601 357 631 q 392 518 386 564 q 397 426 399 472 q 384 338 394 381 q 357 261 374 294 m 197 576 q 158 522 174 557 q 133 447 142 488 q 125 363 125 406 q 133 282 125 319 q 159 217 142 244 q 203 181 176 190 q 236 178 219 175 q 269 190 253 182 q 298 211 285 199 q 319 238 311 224 q 353 308 342 269 q 369 383 365 347 q 315 412 344 392 q 261 459 286 432 q 219 517 236 486 q 197 576 201 549 z "},"¼":{"ha":590,"x_min":68,"x_max":583,"o":"m 163 968 q 107 933 139 951 q 76 915 86 922 q 72 918 72 915 q 74 924 68 922 q 86 931 79 926 q 101 940 93 935 q 134 960 117 950 q 163 978 151 971 q 164 979 163 979 q 165 981 165 981 q 168 983 165 982 l 169 985 q 179 987 175 986 q 188 988 183 988 q 203 982 197 988 l 203 979 q 201 963 203 979 q 196 919 200 946 q 187 860 192 893 q 176 792 182 826 q 160 685 169 736 q 144 606 151 633 l 144 604 q 140 603 143 603 q 136 602 138 603 q 132 601 135 601 q 123 603 128 603 q 114 604 118 603 q 110 607 110 608 q 108 613 106 610 q 119 678 113 638 q 133 762 126 718 q 145 848 139 806 q 156 922 151 890 q 158 932 157 924 q 161 949 160 940 q 163 963 163 957 q 163 968 164 969 m 214 97 q 198 88 206 86 q 185 99 190 90 q 176 118 179 107 q 174 136 172 129 l 424 981 q 435 988 428 990 q 448 977 442 985 q 458 960 454 969 q 460 949 461 951 q 403 749 432 854 q 342 534 374 643 q 279 314 311 425 q 214 97 247 203 m 374 272 q 410 302 386 278 q 460 356 435 326 q 503 413 485 385 q 522 453 522 440 q 540 463 524 461 q 558 458 556 465 l 560 457 q 556 376 561 426 q 542 268 550 326 q 575 279 560 272 q 581 278 578 282 q 581 272 583 275 q 543 261 563 264 q 532 184 536 222 q 525 108 528 146 q 519 103 525 106 q 508 101 514 101 q 495 103 501 101 q 489 110 489 106 q 497 183 492 146 q 504 257 501 221 q 468 258 486 257 q 432 261 450 260 q 376 265 399 265 q 372 269 374 265 q 374 272 371 272 m 507 265 q 515 355 511 313 q 522 429 519 397 q 497 389 513 411 q 462 344 481 367 q 424 303 443 322 q 389 272 404 283 q 409 272 399 272 q 431 269 419 271 q 468 267 449 268 q 507 265 488 265 z "},"½":{"ha":581,"x_min":68,"x_max":568,"o":"m 163 936 q 135 919 151 929 q 104 900 119 908 q 88 890 97 894 q 76 883 79 886 q 69 885 74 881 q 68 888 68 886 q 69 890 68 890 q 83 898 76 893 q 99 908 90 903 q 134 928 117 918 q 163 946 151 939 q 164 947 163 947 q 168 950 167 950 q 169 951 169 950 l 169 953 q 179 955 175 954 q 188 956 183 956 q 201 949 199 956 l 204 947 q 202 929 204 946 q 197 886 200 913 q 188 826 193 860 q 178 757 183 792 q 160 647 168 699 q 144 568 151 596 l 144 567 q 142 565 143 567 q 140 567 140 564 q 131 564 138 564 q 121 565 125 564 q 114 567 117 567 q 110 568 111 568 q 106 569 108 568 l 106 575 q 118 640 111 600 q 132 726 125 681 q 146 815 139 771 q 157 890 153 858 q 158 899 157 892 q 160 915 160 907 q 162 930 161 924 q 163 936 163 936 m 236 97 q 220 88 228 86 q 207 99 213 90 q 198 118 201 107 q 196 136 194 129 l 446 981 q 457 988 450 990 q 470 977 464 985 q 480 960 476 969 q 482 949 483 951 q 425 749 454 854 q 365 534 396 643 q 301 314 333 425 q 236 97 269 203 m 422 125 q 458 119 439 121 q 497 120 478 117 q 533 136 517 124 q 560 176 550 149 q 565 179 563 181 q 567 174 568 178 q 536 129 554 143 q 497 112 518 115 q 456 111 476 108 q 418 118 435 114 q 399 122 407 121 q 388 121 392 124 q 383 121 388 117 q 382 126 382 122 q 430 188 403 149 q 479 271 457 226 q 514 360 501 315 q 518 438 526 404 q 506 458 514 451 q 490 466 499 465 q 472 460 481 467 q 458 439 464 453 q 454 404 451 424 q 449 400 453 400 q 446 404 446 400 q 449 435 446 421 q 464 461 453 450 q 488 476 474 472 q 516 476 503 479 q 540 464 529 474 q 554 439 551 454 q 551 360 563 404 q 519 271 540 315 q 471 188 497 226 q 422 125 444 149 z "},"¾":{"ha":533,"x_min":54,"x_max":526,"o":"m 211 950 q 206 918 213 935 q 190 885 200 901 q 166 855 179 868 q 140 835 153 842 q 187 806 171 826 q 206 758 203 785 q 200 703 208 732 q 176 650 192 674 q 140 610 161 626 q 97 594 119 594 q 65 604 74 594 q 54 636 57 614 q 58 640 54 640 q 64 636 63 640 q 80 609 67 611 q 110 625 93 607 q 142 676 126 643 q 160 740 157 708 q 147 798 163 772 q 89 829 132 824 q 85 832 85 829 q 88 838 85 835 q 92 839 89 839 q 115 851 103 842 q 136 873 126 861 q 153 897 146 885 q 165 919 161 910 q 170 946 169 933 q 166 965 171 958 q 151 972 161 972 q 124 960 140 972 q 113 950 115 954 q 88 915 97 936 q 83 913 86 911 q 81 918 79 914 q 107 958 88 940 q 149 982 126 975 q 189 982 169 989 q 211 950 208 975 m 200 97 q 184 88 192 86 q 171 99 176 90 q 162 118 165 107 q 160 136 158 129 l 410 981 q 421 988 414 990 q 434 977 428 985 q 444 960 440 969 q 446 949 447 951 q 389 749 418 854 q 328 534 360 643 q 265 314 297 425 q 200 97 233 203 m 329 271 q 363 299 340 276 q 410 349 386 321 q 451 403 433 376 q 471 442 469 429 q 475 448 471 446 q 485 451 479 450 q 497 451 492 451 q 504 446 503 450 l 503 444 q 501 369 506 417 q 489 267 496 321 q 505 272 497 269 q 519 278 513 274 q 525 277 524 281 q 524 271 526 274 q 489 260 507 261 q 480 188 483 224 q 474 115 476 151 q 456 110 472 110 q 438 117 439 110 q 444 187 440 153 q 453 257 449 221 q 417 258 435 257 q 385 260 400 258 q 329 264 353 264 q 326 267 326 264 q 329 271 325 269 m 453 264 q 463 349 460 308 q 469 418 467 389 q 445 381 461 401 q 412 339 429 360 q 376 300 394 318 q 343 271 357 282 q 362 270 353 271 q 382 268 371 269 q 453 264 419 264 z "},"¿":{"ha":451,"x_min":31,"x_max":450,"o":"m 113 68 q 49 148 68 99 q 37 305 31 197 q 121 513 43 413 q 222 676 199 613 q 250 835 244 739 q 263 846 249 846 q 278 835 276 846 q 274 795 275 824 q 274 740 272 767 q 268 681 275 713 q 242 610 261 649 q 189 521 224 571 q 142 433 161 486 q 114 322 122 381 q 109 214 106 261 q 138 123 113 167 q 221 83 164 79 q 323 140 278 86 q 374 249 368 193 q 383 331 379 304 q 418 365 386 358 q 438 278 450 372 q 396 131 426 183 q 321 58 365 79 q 217 36 276 38 q 113 68 157 35 m 251 864 q 224 878 233 865 q 218 908 215 892 q 239 942 222 928 q 275 956 256 956 q 306 944 294 957 q 313 911 317 931 q 291 876 310 890 q 251 864 272 861 z "},"š":{"ha":304,"x_min":-58,"x_max":350,"o":"m 219 519 q 206 513 215 510 q 200 525 196 515 q 207 578 210 554 q 192 614 204 601 q 161 624 181 626 q 117 599 142 621 q 85 508 81 554 q 108 417 89 463 q 140 347 124 381 q 168 281 157 313 q 326 417 267 344 q 343 423 336 431 q 344 408 350 415 q 309 367 329 388 q 266 326 289 346 q 219 290 243 307 q 175 260 196 272 q 184 169 186 217 q 166 79 182 121 q 118 7 150 38 q 36 -32 86 -24 q -20 -26 8 -37 q -54 19 -49 -14 q -42 77 -58 47 q -1 134 -26 107 q 51 185 24 161 q 99 225 79 208 q 64 319 88 269 q 22 417 40 368 q 5 476 11 447 q 1 532 -1 504 q 46 618 8 586 q 126 656 83 650 q 182 649 160 660 q 215 619 204 639 q 228 574 226 600 q 219 519 229 547 m 103 203 q 60 166 88 190 q 9 114 33 142 q -28 58 -15 86 q -26 8 -40 31 q -10 -3 -19 -3 q 10 1 0 -4 q 56 38 36 15 q 88 89 76 61 q 104 146 100 117 q 103 203 108 175 m 114 843 q 156 803 135 819 q 197 784 176 788 q 240 793 218 781 q 282 839 261 806 q 294 835 289 839 q 300 822 300 831 q 288 804 294 814 q 269 786 281 794 q 222 761 249 767 q 171 763 196 756 q 126 787 146 769 q 99 832 107 804 q 105 840 97 835 q 114 843 113 846 z "},"a":{"ha":514,"x_min":-1,"x_max":553,"o":"m 379 586 q 347 611 371 601 q 303 618 322 621 q 235 591 267 613 q 178 540 204 569 q 132 478 153 511 q 96 415 111 444 q 76 364 88 399 q 63 294 65 329 q 71 233 60 260 q 118 207 82 207 q 274 383 174 207 q 326 483 301 432 q 379 586 351 535 m 383 597 q 392 615 388 607 q 400 632 396 624 q 433 636 425 635 q 445 638 442 638 q 453 638 449 638 q 472 640 457 639 q 451 599 465 626 q 421 538 438 572 q 386 465 404 504 q 351 386 368 425 q 333 331 342 361 q 319 274 324 300 q 316 228 314 247 q 331 207 318 210 q 363 219 342 204 q 418 271 383 235 q 485 352 451 308 q 539 425 518 396 q 550 426 544 428 q 552 422 553 424 q 551 417 551 419 q 497 344 531 389 q 426 263 463 300 q 381 218 408 243 q 321 192 353 193 q 274 213 286 190 q 261 267 261 236 q 269 331 261 299 q 282 379 276 363 q 253 327 271 358 q 213 267 235 296 q 165 217 190 238 q 115 196 140 196 q 45 216 71 196 q 9 269 19 236 q 3 345 -1 303 q 26 431 8 388 q 69 505 42 468 q 133 571 97 542 q 211 617 169 600 q 297 632 253 633 q 342 622 315 631 q 383 597 368 614 z "},"b":{"ha":425,"x_min":-17,"x_max":463,"o":"m -10 318 q 21 417 -4 354 q 81 555 46 479 q 158 713 117 631 q 239 870 200 794 q 311 1008 278 946 q 363 1106 344 1069 q 395 1110 386 1108 q 408 1111 404 1111 q 415 1112 411 1111 q 433 1114 419 1113 q 361 967 404 1051 q 271 792 318 882 q 181 618 224 703 q 108 471 138 533 q 139 519 122 493 q 174 566 156 544 q 214 602 193 588 q 256 617 235 617 q 333 594 306 618 q 368 531 361 569 q 365 445 375 493 q 329 351 354 397 q 278 279 308 313 q 211 222 249 246 q 280 252 249 235 q 340 294 311 269 q 396 351 368 319 q 453 424 424 383 q 460 425 457 431 q 463 417 463 424 q 331 271 399 325 q 165 197 263 217 q 120 184 143 189 q 74 181 97 179 q 21 192 40 182 q -8 221 1 203 q -16 264 -17 239 q -10 318 -15 289 m 46 310 q 35 267 39 289 q 33 228 32 244 q 42 201 33 211 q 68 194 50 192 q 123 215 96 199 q 175 254 150 231 q 222 308 200 278 q 261 371 243 339 q 296 454 283 413 q 309 530 308 496 q 296 585 310 564 q 251 606 282 606 q 213 589 233 606 q 171 545 192 572 q 130 485 150 518 q 93 419 110 451 q 64 357 76 386 q 46 310 51 328 z "},"c":{"ha":358,"x_min":3,"x_max":396,"o":"m 19 415 q 92 542 42 485 q 145 588 113 565 q 215 624 178 611 q 290 632 253 636 q 354 597 326 628 q 350 592 354 594 q 344 590 346 589 q 313 613 335 604 q 272 618 290 621 q 206 583 239 613 q 143 510 172 553 q 117 463 129 488 q 94 415 106 439 q 72 342 82 386 q 64 263 61 299 q 90 209 67 226 q 167 213 113 192 q 247 263 207 228 q 313 331 286 297 q 353 381 335 357 q 383 425 371 406 q 393 426 388 429 q 396 417 396 424 q 365 375 383 400 q 324 322 346 350 q 253 250 292 283 q 169 201 214 217 q 76 194 113 182 q 21 240 39 207 q 3 320 3 274 q 19 415 3 367 z "},"d":{"ha":496,"x_min":7,"x_max":658,"o":"m 365 586 q 332 611 357 601 q 288 618 307 621 q 222 591 251 613 q 169 540 193 569 q 127 478 146 511 q 96 415 108 444 q 81 364 89 399 q 72 294 72 329 q 85 233 72 260 q 135 207 99 207 q 276 383 188 207 q 322 483 301 432 q 365 586 343 535 m 379 619 q 431 741 400 669 q 492 885 461 813 q 550 1018 524 957 q 589 1107 576 1079 q 621 1111 613 1110 q 633 1113 629 1113 q 640 1113 636 1113 q 658 1115 643 1114 q 613 1010 640 1074 q 556 877 585 946 q 499 745 526 808 q 454 640 472 682 q 438 599 449 626 q 412 538 426 572 q 382 465 397 504 q 354 386 367 425 q 339 331 346 361 q 329 274 332 300 q 330 228 326 247 q 346 207 333 210 q 377 219 357 204 q 429 271 397 235 q 481 352 460 308 q 522 425 501 396 q 532 426 526 429 q 535 417 535 424 q 492 344 514 389 q 439 263 471 300 q 395 218 422 243 q 338 192 368 193 q 290 213 304 190 q 273 267 275 236 q 275 331 271 299 q 283 379 279 363 q 258 327 274 358 q 223 267 243 296 q 180 217 203 238 q 132 196 157 196 q 60 216 88 196 q 19 269 32 236 q 8 345 7 303 q 24 431 10 388 q 63 505 38 468 q 122 571 88 542 q 197 617 156 600 q 282 632 238 633 q 326 623 299 632 q 369 599 354 614 q 374 609 372 604 q 379 619 376 614 z "},"e":{"ha":361,"x_min":3,"x_max":401,"o":"m 21 415 q 97 545 44 486 q 225 626 149 604 q 271 633 250 633 q 313 627 293 633 q 344 609 332 621 q 361 580 357 597 q 357 539 365 563 q 317 487 346 507 q 251 456 288 467 q 176 445 214 446 q 113 451 139 444 q 92 402 103 432 q 74 341 81 372 q 65 280 67 310 q 74 230 64 250 q 106 203 83 210 q 168 213 128 197 q 232 249 201 225 q 290 303 263 274 q 342 365 318 333 q 386 425 365 397 q 397 426 393 431 q 399 418 401 422 q 351 355 378 389 q 296 290 325 321 q 234 233 267 258 q 168 196 201 208 q 73 190 110 176 q 19 238 36 204 q 3 319 3 272 q 21 415 4 367 m 235 604 q 167 540 199 581 q 119 464 136 499 q 178 459 143 458 q 247 469 213 460 q 308 496 281 478 q 344 543 336 514 q 346 587 354 569 q 320 612 338 604 q 279 618 303 619 q 235 604 256 617 z "},"f":{"ha":314,"x_min":-168,"x_max":429,"o":"m 96 464 q 42 317 63 375 q 11 229 21 260 q 15 230 13 229 q 21 231 18 231 q 79 238 40 233 q 165 260 118 242 q 258 316 211 278 q 339 424 304 354 q 347 426 342 429 q 351 423 349 425 q 351 418 353 421 q 267 307 315 346 q 172 249 219 268 q 83 226 124 231 q 24 218 43 221 l 22 218 q 69 164 51 194 q 96 99 86 133 q 107 26 106 64 q 107 -47 108 -11 q 82 -151 103 -100 q 32 -243 61 -201 q -31 -313 3 -285 q -93 -349 -64 -342 q -143 -337 -122 -356 q -168 -265 -164 -318 q -156 -176 -168 -237 q -120 -32 -143 -115 q -67 151 -97 51 q 0 354 -36 250 q 63 541 29 447 q 131 719 97 635 q 201 877 165 804 q 269 1002 236 950 q 331 1082 301 1054 q 385 1106 360 1110 q 419 1065 408 1101 q 421 971 429 1028 q 379 827 408 901 q 308 685 350 753 q 212 559 265 617 q 96 464 158 501 m 99 475 q 206 565 154 507 q 299 694 257 624 q 369 838 340 764 q 407 972 397 911 q 409 1046 414 1017 q 388 1078 404 1075 q 344 1040 371 1079 q 288 940 318 1001 q 226 803 257 878 q 168 662 194 729 q 123 542 142 594 q 99 475 104 490 m 10 215 q -6 171 6 203 q -31 97 -17 139 q -60 4 -44 54 q -90 -95 -76 -46 q -114 -188 -104 -144 q -126 -264 -124 -232 q -117 -326 -131 -311 q -80 -333 -103 -342 q -28 -297 -57 -325 q 26 -230 0 -269 q 72 -142 53 -190 q 94 -47 90 -94 q 94 26 96 -11 q 83 97 92 63 q 56 162 74 132 q 10 215 39 192 z "},"g":{"ha":513,"x_min":-72,"x_max":556,"o":"m 217 156 q 80 38 133 103 q -3 -90 26 -26 q -41 -210 -32 -153 q -44 -304 -50 -267 q -23 -355 -39 -342 q 13 -344 -7 -368 q 44 -296 26 -329 q 81 -218 63 -262 q 119 -123 100 -174 q 156 -22 139 -72 q 190 74 174 28 q 217 156 206 121 m 338 582 q 302 607 328 597 q 260 614 276 617 q 198 587 225 608 q 151 536 171 565 q 115 474 131 507 q 90 411 100 440 q 83 385 86 401 q 78 348 79 368 q 77 307 76 328 q 82 267 78 286 q 111 212 93 225 q 150 205 129 199 q 192 233 171 211 q 228 283 213 254 q 250 326 239 303 q 272 379 261 350 q 307 479 292 428 q 338 582 322 531 m 281 375 q 263 326 274 356 q 235 269 251 297 q 189 215 214 233 q 138 193 164 196 q 88 203 113 190 q 43 243 63 215 q 15 327 19 278 q 21 426 10 376 q 51 501 31 464 q 100 567 71 538 q 167 613 129 596 q 249 628 204 629 q 296 619 267 628 q 342 594 325 610 q 347 611 344 603 q 351 629 350 619 q 387 632 368 631 q 421 636 406 633 q 364 419 392 528 q 304 203 336 311 q 367 243 333 217 q 433 300 400 269 q 493 363 465 331 q 540 424 521 396 q 550 424 544 428 q 551 417 556 421 q 501 353 532 388 q 436 285 471 318 q 365 226 401 253 q 299 185 329 199 q 229 -19 265 79 q 157 -194 193 -117 q 87 -322 121 -271 q 22 -385 53 -374 q -34 -376 -11 -397 q -65 -310 -57 -354 q -62 -206 -72 -267 q -19 -78 -53 -144 q 73 54 14 -12 q 221 175 132 121 q 253 274 236 219 q 281 375 269 329 z "},"h":{"ha":451,"x_min":-64,"x_max":493,"o":"m 385 1126 l 139 540 q 177 573 156 554 q 222 608 199 592 q 270 633 246 624 q 315 638 294 642 q 357 599 343 633 q 365 561 364 581 q 363 521 365 542 q 325 392 350 454 q 285 267 300 331 q 282 251 283 260 q 281 232 281 242 q 285 215 282 222 q 297 207 289 208 q 342 232 315 204 q 395 298 368 260 q 444 373 422 336 q 478 425 467 410 q 488 426 482 431 q 490 417 493 422 q 449 356 472 393 q 401 281 426 318 q 346 218 375 244 q 286 190 317 192 q 240 208 253 189 q 226 260 226 228 q 236 333 226 293 q 259 410 246 372 q 285 481 272 449 q 304 529 299 513 q 319 572 313 553 q 324 601 325 590 q 313 621 325 617 q 269 615 296 628 q 215 582 243 603 q 161 538 186 561 q 124 501 136 515 l 3 194 l -64 196 l 117 658 l 306 1108 l 385 1126 z "},"i":{"ha":243,"x_min":-14,"x_max":282,"o":"m 192 774 q 224 772 210 778 q 242 756 239 767 q 231 731 243 743 q 200 715 219 719 q 167 717 181 711 q 150 735 153 722 q 160 758 147 746 q 192 774 172 769 m 122 640 q 153 644 144 643 q 167 645 163 644 q 176 647 172 646 q 196 649 181 647 q 172 597 189 635 q 134 512 156 560 q 92 411 113 464 q 58 314 71 358 q 43 240 44 269 q 58 207 42 210 q 91 219 69 204 q 147 271 113 233 q 214 351 181 307 q 269 424 247 394 q 276 425 274 431 q 279 417 282 424 q 225 344 258 389 q 157 261 192 299 q 108 217 138 242 q 49 190 79 192 q 4 210 19 190 q -13 265 -12 231 q -4 339 -14 299 q 22 423 6 379 q 56 508 38 467 q 93 583 75 549 q 122 640 111 618 z "},"j":{"ha":226,"x_min":-378,"x_max":264,"o":"m -61 161 q -208 44 -150 108 q -300 -84 -267 -21 q -344 -204 -333 -147 q -351 -299 -356 -261 q -331 -349 -347 -336 q -290 -339 -314 -362 q -254 -290 -274 -324 q -214 -212 -235 -257 q -172 -117 -193 -168 q -130 -17 -150 -67 q -92 80 -110 33 q -61 161 -75 126 m 139 768 q 172 767 158 772 q 192 749 186 761 q 186 726 196 738 q 157 710 176 714 q 124 711 139 706 q 103 728 108 717 q 110 752 100 740 q 139 768 119 764 m 89 635 q 124 638 106 636 q 158 642 142 639 q 92 425 124 533 q 28 208 61 317 q 88 248 57 222 q 149 303 119 274 q 206 365 179 333 q 253 424 233 396 q 261 425 256 431 q 264 417 264 424 q 215 354 244 388 q 151 289 185 321 q 84 231 118 257 q 19 190 50 204 q -56 -13 -17 85 q -135 -188 -96 -111 q -212 -317 -175 -265 q -281 -379 -250 -368 q -340 -370 -317 -392 q -371 -305 -364 -349 q -365 -200 -378 -261 q -316 -73 -353 -139 q -215 60 -279 -7 q -57 181 -151 126 q 16 408 -17 293 q 89 635 49 522 z "},"k":{"ha":467,"x_min":-79,"x_max":533,"o":"m 432 1126 l 147 540 l 149 542 q 151 549 149 542 q 242 629 193 588 q 340 704 290 671 q 438 754 389 738 q 529 760 486 771 q 533 753 533 757 q 525 747 532 747 q 459 747 494 756 q 387 719 424 739 q 313 670 350 699 q 240 611 275 642 q 288 634 264 626 q 331 638 311 642 q 369 599 358 633 q 375 561 376 581 q 368 521 374 542 q 348 456 360 488 q 323 392 336 424 q 297 330 310 361 q 275 267 285 299 q 272 251 274 260 q 269 232 269 242 q 272 215 268 222 q 283 207 275 208 q 332 232 301 204 q 395 298 363 260 q 455 373 428 336 q 493 425 482 410 q 503 426 497 431 q 504 417 508 422 q 450 344 483 389 q 381 263 417 300 q 331 217 361 242 q 271 190 301 192 q 224 208 236 189 q 215 260 213 228 q 230 333 217 293 q 259 410 243 372 q 290 481 275 449 q 313 529 306 513 q 328 572 321 553 q 336 601 336 590 q 326 621 338 617 q 283 615 310 628 q 226 582 256 603 q 169 538 196 561 q 129 501 143 515 l -11 194 l -79 196 l 133 658 l 351 1108 l 432 1126 z "},"l":{"ha":242,"x_min":-15,"x_max":397,"o":"m 326 1111 q 358 1115 350 1114 q 371 1117 367 1117 q 379 1117 375 1117 q 397 1119 383 1118 q 371 1060 393 1111 q 315 936 349 1010 q 244 776 282 863 q 170 608 206 689 q 108 463 135 528 q 71 371 81 399 q 52 310 60 339 q 42 260 44 282 q 44 224 40 238 q 60 208 49 210 q 92 221 71 206 q 146 272 113 236 q 211 350 179 308 q 265 421 243 392 q 277 428 274 432 q 278 417 281 424 q 223 345 257 389 q 154 264 189 301 q 110 219 139 244 q 50 193 81 194 q 22 197 32 192 q 3 211 11 201 q -12 284 -15 239 q 7 382 -8 329 q 39 467 14 407 q 97 603 64 526 q 168 765 131 681 q 238 922 206 849 q 295 1047 271 994 q 326 1111 319 1099 z "},"m":{"ha":649,"x_min":-67,"x_max":686,"o":"m 176 251 q 251 432 224 365 q 293 534 279 499 q 311 581 307 569 q 317 599 315 593 q 307 618 317 613 q 268 615 292 624 q 218 588 244 606 q 166 550 192 571 q 122 513 140 529 q 88 424 106 471 q 52 332 69 376 q 21 249 35 288 q -1 183 7 210 l -67 181 q -43 248 -58 207 q -10 336 -28 289 q 26 433 7 383 q 61 525 44 482 q 92 601 78 568 q 113 649 106 635 l 181 657 q 165 619 178 649 q 138 550 153 590 q 176 578 154 563 q 222 608 199 594 q 269 630 246 622 q 310 635 293 638 q 345 607 338 631 q 356 561 353 583 q 392 590 372 575 q 433 617 413 606 q 473 633 453 628 q 510 635 493 639 q 547 596 536 631 q 546 518 560 563 q 526 453 538 485 q 501 390 514 421 q 475 327 488 358 q 453 264 463 296 q 449 248 451 257 q 447 229 447 239 q 451 213 447 219 q 463 204 454 206 q 511 229 481 201 q 574 295 542 257 q 635 370 607 333 q 674 422 663 407 q 681 424 676 428 q 682 414 686 419 q 639 353 665 390 q 581 278 613 315 q 515 215 549 242 q 451 188 481 189 q 404 206 417 186 q 394 258 392 225 q 408 330 396 290 q 437 408 421 369 q 468 478 453 446 q 490 526 483 510 q 507 569 500 550 q 515 599 514 588 q 507 618 515 613 q 476 617 494 624 q 436 599 457 611 q 393 571 415 588 q 351 539 371 554 q 336 473 349 513 q 308 392 324 433 q 275 313 292 351 q 249 251 258 275 l 176 251 z "},"n":{"ha":450,"x_min":-65,"x_max":489,"o":"m -65 181 q -42 248 -57 207 q -9 336 -26 289 q 27 433 8 383 q 63 525 46 482 q 93 601 79 568 q 114 649 107 635 l 182 657 q 167 619 179 649 q 139 550 154 590 q 178 578 156 563 q 224 608 200 594 q 271 630 247 622 q 311 635 294 638 q 350 596 339 631 q 349 518 363 563 q 303 390 333 451 q 254 264 274 328 q 251 248 253 257 q 250 229 250 239 q 253 213 250 219 q 264 204 256 206 q 313 229 282 201 q 376 295 343 257 q 436 370 408 333 q 475 422 464 407 q 483 424 478 428 q 485 414 489 419 q 431 342 465 386 q 363 260 396 297 q 313 214 342 239 q 253 188 283 189 q 206 206 218 186 q 197 258 194 225 q 211 330 199 290 q 240 408 224 369 q 271 478 256 446 q 293 526 286 510 q 309 569 303 550 q 318 599 315 588 q 308 618 318 613 q 269 615 293 624 q 219 588 246 606 q 167 550 193 571 q 124 513 142 529 q 89 424 107 471 q 53 332 71 376 q 22 249 36 288 q 0 183 8 210 l -65 181 z "},"o":{"ha":454,"x_min":-4,"x_max":492,"o":"m 314 525 q 287 564 307 549 q 239 575 267 579 q 178 542 208 569 q 124 476 149 515 q 79 392 96 436 q 58 326 68 365 q 51 255 49 288 q 74 206 53 222 q 143 210 94 190 q 218 258 183 225 q 279 332 253 290 q 226 351 251 338 q 181 383 200 364 q 153 428 163 403 q 146 486 143 454 q 151 496 146 492 q 161 501 156 500 q 171 499 167 501 q 175 490 175 497 q 285 343 163 365 q 317 435 308 388 q 314 525 326 483 m 296 342 q 398 357 349 335 q 481 422 447 379 q 485 424 483 425 q 489 421 488 422 q 492 417 490 418 q 455 376 476 394 q 406 347 433 358 q 350 330 379 335 q 292 329 321 325 l 289 329 q 226 250 263 285 q 146 200 190 215 q 61 194 94 182 q 12 235 28 206 q -4 306 -4 264 q 11 392 -4 349 q 38 451 21 422 q 75 506 54 481 q 108 535 89 521 q 148 562 126 550 q 192 581 169 574 q 239 588 215 588 q 294 573 271 588 q 326 529 317 558 q 328 437 338 486 q 296 342 319 388 z "},"p":{"ha":438,"x_min":-226,"x_max":478,"o":"m 79 604 q 116 610 96 607 q 153 618 136 614 q 128 538 140 578 q 104 458 115 499 q 125 505 113 481 q 152 549 138 529 q 183 583 167 569 q 219 599 200 597 q 301 583 269 604 q 346 524 332 561 q 357 438 360 486 q 336 342 354 389 q 299 265 324 303 q 242 199 275 226 q 359 286 304 232 q 463 425 414 340 q 472 426 467 429 q 476 417 478 421 q 430 349 457 383 q 372 281 403 314 q 306 219 340 247 q 238 172 272 190 q 183 151 213 158 q 124 143 153 143 q 69 152 94 143 q 29 182 44 161 q -22 27 1 100 q -67 -114 -44 -46 q -110 -247 -89 -182 q -157 -379 -132 -312 l -226 -383 q -146 -130 -186 -260 q -67 128 -106 0 q 8 376 -29 256 q 79 604 46 497 m 61 278 q 65 193 54 218 q 94 168 75 168 q 140 187 114 168 q 190 235 165 206 q 235 297 215 264 q 265 356 256 329 q 285 442 279 399 q 287 518 292 485 q 265 571 282 551 q 217 589 247 590 q 163 548 189 586 q 116 459 138 510 q 80 357 94 408 q 61 278 65 306 z "},"q":{"ha":617,"x_min":1,"x_max":654,"o":"m 300 271 l 311 271 q 364 270 328 271 q 446 282 400 269 q 543 325 492 294 q 640 418 594 356 q 649 422 643 424 q 654 417 654 421 q 589 343 621 369 q 522 297 557 317 q 424 265 476 274 q 310 258 372 257 q 374 128 364 203 q 374 -21 385 53 q 341 -121 365 -72 q 284 -208 317 -169 q 215 -269 251 -246 q 149 -297 179 -293 q 101 -278 119 -300 q 82 -203 82 -256 q 95 -126 82 -176 q 131 -6 108 -75 q 183 145 153 63 q 251 318 214 228 q 220 271 236 296 q 184 227 204 246 q 139 199 164 208 q 82 199 114 190 q 33 228 51 207 q 8 280 15 250 q 5 345 1 310 q 21 417 8 381 q 60 497 35 458 q 119 566 85 536 q 196 613 154 596 q 286 629 238 631 q 331 621 304 629 q 374 597 357 613 q 381 614 376 606 q 389 631 385 622 q 427 633 407 631 q 467 639 447 636 l 439 583 q 368 427 403 504 q 300 271 333 350 m 368 586 q 335 609 358 600 q 292 615 311 618 q 230 593 260 611 q 174 548 200 575 q 127 487 149 521 q 92 418 106 453 q 69 353 76 385 q 60 294 61 321 q 67 245 60 267 q 92 214 75 224 q 148 213 119 196 q 201 260 176 229 q 244 326 225 292 q 272 381 263 361 q 322 482 300 429 q 368 586 343 535 m 293 257 q 274 215 288 244 q 244 144 261 185 q 207 54 226 103 q 170 -42 188 6 q 139 -132 153 -89 q 121 -207 125 -175 q 127 -272 114 -254 q 165 -283 140 -289 q 219 -254 189 -278 q 279 -194 250 -231 q 331 -112 308 -158 q 361 -19 353 -67 q 367 54 367 17 q 361 128 368 92 q 338 197 354 164 q 293 257 321 229 z "},"r":{"ha":415,"x_min":22,"x_max":458,"o":"m 157 669 q 140 701 147 685 q 132 732 132 717 q 153 775 133 758 q 197 795 174 792 q 238 788 221 799 q 251 749 256 776 q 242 720 249 735 q 226 691 235 706 q 208 664 217 676 q 193 643 199 651 q 252 585 226 603 q 290 551 278 567 q 299 510 303 535 q 271 432 296 486 q 244 370 258 404 q 219 303 231 336 q 203 245 208 271 q 207 208 199 219 q 219 201 211 201 q 242 207 228 200 q 277 230 257 214 q 324 274 297 246 q 390 355 357 311 q 444 428 424 399 q 454 428 450 433 q 454 419 458 424 q 401 347 435 392 q 332 265 367 303 q 233 188 275 203 q 169 194 190 172 q 149 268 147 215 q 181 394 151 321 q 226 493 210 464 q 243 538 242 522 q 231 569 244 553 q 185 629 217 585 q 151 581 169 608 q 114 525 133 554 q 69 463 90 493 q 33 410 49 432 q 24 411 26 404 q 22 417 22 414 q 60 470 39 440 q 103 532 81 500 q 143 589 124 561 q 178 639 163 617 q 168 653 172 646 q 157 669 164 661 m 186 653 q 199 671 190 660 q 215 695 207 682 q 230 722 224 708 q 239 749 236 736 q 229 778 243 769 q 197 783 215 786 q 162 767 178 779 q 146 733 146 754 q 160 688 144 710 q 186 653 175 667 z "},"s":{"ha":304,"x_min":-12,"x_max":346,"o":"m 13 196 q -11 236 -10 214 q -1 281 -12 258 q 28 324 10 304 q 64 357 47 344 q 74 356 72 360 q 72 346 79 353 q 42 317 58 335 q 14 281 25 300 q 2 242 3 261 q 21 207 1 222 q 53 199 36 196 q 85 214 69 203 q 114 240 101 225 q 133 268 126 256 q 156 314 149 292 q 163 358 163 336 q 160 401 164 381 q 153 444 157 422 q 144 494 149 468 q 140 546 139 521 q 142 561 140 556 q 84 478 114 519 q 29 407 54 438 q 19 403 24 400 q 18 413 14 407 q 83 499 47 449 q 151 597 119 549 l 154 603 q 190 644 167 629 q 235 662 213 658 q 274 658 257 665 q 296 635 292 651 q 278 592 303 617 q 269 592 272 586 q 269 601 264 596 q 285 629 286 618 q 273 642 285 640 q 244 635 261 644 q 213 604 226 626 q 196 530 192 571 q 207 454 200 489 q 220 360 218 406 q 190 260 222 314 q 176 242 183 251 q 163 225 169 233 q 184 243 174 232 q 208 269 194 254 q 276 351 243 307 q 332 424 310 394 q 339 425 335 429 q 342 415 346 419 q 288 343 321 388 q 218 261 254 299 q 174 223 200 242 q 121 192 149 204 q 65 178 93 179 q 13 196 36 178 z "},"t":{"ha":242,"x_min":-14,"x_max":772,"o":"m 324 1097 q 357 1101 347 1100 q 371 1102 367 1101 q 379 1103 375 1103 q 397 1106 383 1104 q 375 1055 394 1099 q 326 946 356 1011 l 772 947 l 771 935 l 322 933 q 251 775 289 861 q 178 609 213 689 q 115 465 143 529 q 78 372 88 400 q 58 311 67 340 q 47 260 50 282 q 47 224 43 238 q 61 208 50 210 q 93 221 72 206 q 149 272 114 236 q 213 350 181 308 q 267 421 244 392 q 279 428 275 432 q 281 417 283 424 q 224 345 258 389 q 156 264 190 301 q 111 219 140 244 q 51 193 82 194 q 6 211 21 192 q -10 284 -14 239 q 8 382 -7 329 q 42 469 17 407 q 103 611 68 532 q 177 776 139 690 q 249 933 215 863 l 74 933 l 74 946 l 253 946 q 299 1045 281 1004 q 324 1097 317 1086 z "},"u":{"ha":488,"x_min":-12,"x_max":528,"o":"m 124 633 q 155 638 146 636 q 168 640 164 639 q 177 640 172 640 q 196 642 182 640 q 173 591 190 628 q 135 507 156 554 q 93 408 114 460 q 59 313 72 357 q 44 240 46 269 q 58 207 42 210 q 90 219 69 204 q 147 271 111 235 q 213 349 181 307 q 268 422 244 392 q 319 544 292 488 q 367 633 347 600 q 398 638 389 636 q 411 639 407 639 q 419 640 415 639 q 439 642 424 640 q 416 591 433 628 q 378 507 399 554 q 337 408 357 460 q 303 313 317 357 q 289 240 290 269 q 304 207 288 210 q 336 219 315 204 q 393 271 357 235 q 460 352 426 308 q 514 425 493 396 q 524 426 518 429 q 525 417 528 422 q 472 344 506 389 q 401 263 438 300 q 355 218 383 243 q 296 192 326 193 q 250 210 265 190 q 234 283 231 238 q 253 382 238 329 q 208 322 233 354 q 156 263 182 290 q 109 218 138 243 q 50 192 81 193 q 4 210 19 190 q -12 265 -11 231 q -3 338 -12 299 q 22 421 6 378 q 58 503 39 464 q 94 577 76 543 q 124 633 111 611 z "},"v":{"ha":504,"x_min":-12,"x_max":543,"o":"m 124 640 q 155 644 146 643 q 168 645 164 644 q 177 646 172 646 q 196 647 182 646 q 176 604 190 635 q 143 533 161 574 q 106 447 125 493 q 72 357 88 400 q 49 278 57 314 q 44 224 40 243 q 63 199 49 204 q 97 201 78 193 q 124 217 110 207 q 150 237 138 226 q 172 256 163 247 q 183 269 181 265 q 242 339 214 301 q 293 406 269 376 q 272 509 274 451 q 282 617 269 567 q 303 674 292 649 q 331 719 315 700 q 385 765 357 753 q 432 772 413 778 q 460 740 451 765 q 458 671 468 714 q 438 613 451 646 q 401 540 425 581 q 356 471 378 503 q 308 404 333 439 q 357 351 328 364 q 418 344 386 338 q 480 372 450 350 q 531 425 510 393 l 543 418 q 488 360 521 383 q 419 331 454 338 q 353 339 385 325 q 300 392 321 353 q 250 328 278 364 q 194 261 222 292 q 154 224 179 247 q 99 190 129 201 q 47 183 74 179 q 6 208 21 188 q -12 264 -11 229 q -3 339 -12 299 q 23 423 7 379 q 58 508 39 467 q 94 583 76 549 q 124 640 111 618 m 303 417 q 347 481 328 451 q 389 546 367 510 q 425 618 413 586 q 444 674 438 650 q 448 734 454 713 q 426 760 442 756 q 387 751 410 764 q 340 710 364 739 q 314 668 325 692 q 296 614 303 644 q 284 515 283 568 q 303 417 285 461 z "},"w":{"ha":749,"x_min":-11,"x_max":788,"o":"m 447 661 q 424 610 439 644 q 390 534 408 576 q 352 445 371 492 q 318 356 333 399 q 294 277 303 313 q 289 224 286 242 q 308 198 293 203 q 342 200 322 193 q 369 216 356 206 q 395 237 383 226 q 415 256 407 247 q 428 269 424 265 q 487 338 458 301 q 538 404 515 375 q 516 508 518 451 q 526 615 514 565 q 576 718 544 678 q 630 765 603 751 q 676 772 657 778 q 704 740 696 765 q 703 671 713 714 q 683 613 696 644 q 646 540 669 581 q 601 470 624 501 q 553 403 578 439 q 603 349 572 365 q 676 347 633 332 q 732 379 707 357 q 776 425 757 401 l 788 417 q 740 369 767 392 q 681 335 713 346 q 599 335 633 319 q 544 392 565 351 q 494 327 522 364 q 439 260 467 290 q 400 224 426 246 q 346 189 374 201 q 292 182 318 178 q 251 208 267 186 q 234 251 236 225 q 236 307 232 276 q 253 381 240 342 q 207 320 233 353 q 156 260 181 288 q 135 238 147 250 q 109 215 124 226 q 79 197 94 204 q 50 189 64 189 q 6 208 19 188 q -11 263 -11 229 q -2 337 -11 297 q 24 419 7 376 q 58 503 40 463 q 94 578 76 543 q 122 635 111 613 q 156 639 147 638 q 170 640 165 640 q 179 641 175 640 q 199 643 183 642 q 174 592 192 629 q 135 508 157 556 q 93 408 114 460 q 59 312 72 356 q 44 238 46 268 q 58 206 42 208 q 91 217 69 203 q 146 269 113 232 q 213 348 181 306 q 265 419 244 390 q 291 483 276 450 q 321 547 306 515 q 349 604 336 578 q 372 650 363 631 l 447 661 m 547 417 q 592 479 571 450 q 635 546 613 508 q 689 674 679 626 q 692 733 699 711 q 670 759 686 754 q 631 751 654 764 q 585 710 608 739 q 559 667 571 690 q 540 614 547 643 q 528 514 528 567 q 547 417 529 461 z "},"x":{"ha":481,"x_min":-61,"x_max":521,"o":"m 133 632 q 144 585 138 613 q 157 529 150 558 q 172 471 164 500 q 186 418 179 442 q 406 642 307 532 l 414 632 q 307 521 364 578 q 189 406 250 464 q 237 285 211 339 q 293 219 263 232 q 325 220 308 213 q 357 242 342 228 q 385 271 372 256 q 408 297 399 286 q 467 372 439 335 q 507 424 496 408 q 516 425 511 429 q 518 415 521 421 q 474 356 503 394 q 410 278 444 317 q 342 213 376 240 q 279 186 307 185 q 233 207 254 188 q 196 253 213 226 q 166 311 179 281 q 144 364 153 342 q 43 269 93 315 q -56 179 -7 224 l -61 189 q 37 280 -15 233 q 140 375 89 326 q 119 441 129 404 q 101 513 110 478 q 85 581 92 549 q 74 633 78 613 q 68 651 71 644 l 133 632 z "},"y":{"ha":479,"x_min":-132,"x_max":519,"o":"m 179 161 q 35 44 92 108 q -55 -84 -22 -21 q -99 -204 -87 -147 q -105 -299 -110 -261 q -83 -349 -100 -336 q -43 -339 -67 -362 q -8 -290 -28 -324 q 31 -212 11 -257 q 72 -117 51 -168 q 113 -17 93 -67 q 150 80 133 33 q 179 161 167 126 m 96 632 q 128 635 119 635 q 142 637 138 636 q 151 638 146 638 q 171 640 156 639 q 151 590 165 626 q 122 508 138 554 q 91 411 106 461 q 68 319 76 361 q 61 247 60 276 q 81 215 63 218 q 125 240 97 213 q 181 304 153 267 q 233 378 210 342 q 267 431 257 415 l 268 436 q 299 536 283 486 q 333 635 314 586 q 368 638 350 636 q 403 642 386 639 q 338 425 368 533 q 271 208 307 317 q 333 248 300 222 q 399 303 367 274 q 458 365 431 333 q 506 424 486 396 q 515 426 510 429 q 517 417 519 422 q 467 354 497 388 q 401 289 436 321 q 330 231 367 257 q 263 190 293 204 q 186 -13 225 85 q 108 -188 147 -111 q 33 -317 69 -265 q -33 -379 -3 -368 q -93 -370 -69 -392 q -124 -305 -117 -349 q -119 -200 -132 -261 q -71 -73 -107 -139 q 28 60 -35 -7 q 185 181 92 126 q 219 281 204 231 q 251 382 235 332 q 212 326 232 356 q 171 271 192 296 q 129 226 156 251 q 72 200 103 201 q 28 218 43 199 q 5 272 10 239 q 5 344 0 306 q 22 424 10 382 q 47 504 33 465 q 74 576 60 543 q 96 632 88 610 z "},"z":{"ha":522,"x_min":-260,"x_max":556,"o":"m 158 672 q 140 703 147 688 q 133 735 132 719 q 154 778 133 761 q 199 798 175 794 q 240 790 222 801 q 253 751 257 779 q 242 723 250 738 q 226 694 235 708 q 209 667 218 679 q 194 646 200 654 q 230 610 211 625 q 265 581 249 596 q 293 547 282 565 q 306 503 304 529 q 288 441 307 475 q 235 343 269 407 q 302 300 274 333 q 326 225 331 267 q 388 267 360 246 q 441 313 415 289 q 492 364 467 338 q 546 419 518 390 l 556 414 q 445 303 499 353 q 324 210 392 254 q 295 103 315 161 q 244 -16 275 44 q 175 -135 214 -76 q 90 -241 136 -193 q -7 -324 44 -289 q -111 -372 -58 -358 q -178 -377 -147 -381 q -228 -358 -208 -374 q -253 -316 -247 -343 q -247 -249 -260 -289 q -165 -101 -221 -164 q -40 10 -110 -39 q 106 99 29 60 q 254 181 183 139 q 263 251 267 225 q 245 290 258 276 q 215 309 232 304 q 185 319 199 314 q 167 331 172 324 q 172 357 161 339 q 222 430 196 396 q 258 500 249 464 q 258 539 264 522 q 241 570 253 556 q 214 599 229 585 q 185 632 199 614 q 110 520 147 575 q 33 410 72 465 l 22 417 q 100 529 61 474 q 176 642 139 585 q 167 656 172 649 q 158 672 163 664 m -118 -335 q 2 -248 -56 -308 q 108 -115 60 -187 q 193 33 157 -42 q 249 165 229 108 q 105 87 179 126 q -37 -1 31 47 q -157 -109 -104 -49 q -236 -250 -210 -169 q -242 -308 -247 -286 q -218 -340 -236 -331 q -174 -349 -200 -350 q -118 -335 -147 -347 m 186 656 q 198 674 190 663 q 214 698 206 685 q 229 725 222 711 q 239 751 236 739 q 229 781 243 772 q 197 785 215 789 q 163 769 179 782 q 147 736 147 757 q 161 691 147 713 q 186 656 175 669 z "},"A":{"ha":1129,"x_min":58,"x_max":1197,"o":"m 1100 1143 q 1097 1146 1097 1143 l 1094 1146 q 1060 1117 1082 1143 q 1010 1050 1038 1090 q 951 961 982 1010 q 892 866 919 913 q 841 781 864 819 q 806 724 818 743 q 908 743 856 735 q 1017 760 960 751 q 1027 794 1024 778 q 1038 829 1031 811 q 1090 1010 1068 931 q 1107 1124 1111 1089 q 1101 1143 1104 1140 l 1100 1143 m 236 167 q 371 238 299 186 q 449 304 410 265 q 526 396 488 343 q 624 536 574 460 q 724 692 675 613 q 513 631 606 664 q 348 563 419 599 q 226 489 276 526 q 142 414 175 451 q 85 318 97 364 q 85 236 72 272 q 145 173 101 192 q 236 167 189 154 m 732 708 q 770 772 747 732 q 821 856 793 811 q 878 949 849 901 q 935 1037 907 996 q 987 1108 963 1078 q 1028 1149 1011 1138 q 1033 1151 1028 1149 q 1065 1168 1046 1160 q 1104 1158 1085 1176 q 1121 1126 1115 1153 q 1117 1078 1122 1108 q 1102 1010 1113 1049 q 1078 924 1092 971 q 1050 826 1065 878 q 1040 794 1044 810 q 1029 761 1036 778 q 1107 772 1068 768 q 1186 779 1146 776 l 1186 767 q 1105 758 1144 763 q 1026 747 1065 753 q 979 581 1001 665 q 943 417 957 496 q 928 271 929 339 q 943 156 926 203 q 1022 79 964 96 q 1192 107 1081 63 l 1197 96 q 1094 65 1139 72 q 1016 67 1049 58 q 963 97 983 75 q 929 151 942 119 q 914 267 913 199 q 929 415 915 336 q 965 579 943 494 q 1013 746 988 664 q 900 729 953 738 q 797 710 847 721 q 692 543 744 625 q 588 393 640 461 q 405 214 496 271 q 240 150 314 157 q 140 163 189 144 q 74 231 92 181 q 72 319 58 269 q 135 422 86 369 q 220 499 168 460 q 345 574 272 538 q 514 645 418 611 q 732 708 610 679 z "},"B":{"ha":1179,"x_min":8,"x_max":1078,"o":"m 379 575 q 307 556 342 568 q 240 529 272 544 q 290 500 263 511 q 348 486 318 489 q 408 488 378 483 q 465 508 438 493 q 515 550 496 525 q 546 605 535 575 q 559 667 557 635 q 556 729 561 699 l 568 732 q 558 599 582 665 q 468 497 535 533 q 343 474 410 465 q 228 522 276 482 q 122 451 172 494 q 47 349 72 407 q 28 247 22 296 q 72 157 35 197 q 120 118 94 131 q 173 105 146 106 q 228 113 200 104 q 286 136 257 121 q 386 210 340 165 q 474 313 432 256 q 410 439 438 365 l 421 444 q 450 379 435 408 q 481 324 465 350 q 601 546 549 424 q 706 794 654 668 q 765 945 733 871 q 828 1086 796 1019 q 684 1103 760 1106 q 535 1080 608 1101 q 395 1019 461 1058 q 281 925 329 979 q 217 835 244 886 q 178 731 189 783 q 177 627 167 678 q 229 538 188 576 q 301 567 264 554 q 379 586 338 579 l 379 575 m 833 1099 q 871 1167 853 1135 q 910 1231 889 1200 q 920 1236 911 1233 q 941 1241 929 1239 q 963 1242 953 1243 q 981 1238 974 1242 q 934 1162 956 1201 q 889 1078 913 1122 q 983 1014 944 1053 q 1043 917 1022 975 q 1058 860 1054 889 q 1058 803 1063 831 q 1022 726 1050 757 q 954 675 994 694 q 990 644 972 661 q 1022 606 1008 626 l 1026 601 q 1073 450 1078 526 q 1026 311 1068 374 q 909 205 981 244 q 760 161 838 165 q 620 185 685 156 q 506 269 556 214 q 414 175 465 218 q 300 108 363 132 q 236 92 268 97 q 173 92 204 88 q 113 110 142 96 q 63 149 85 124 q 15 244 22 192 q 35 354 8 297 q 112 457 63 413 q 217 531 161 501 q 165 625 175 572 q 165 733 154 678 q 205 840 176 788 q 271 932 233 892 q 389 1028 321 988 q 533 1092 457 1069 q 686 1117 608 1114 q 833 1099 764 1119 m 756 179 q 876 228 826 194 q 957 307 925 263 q 1000 438 993 367 q 983 572 1007 508 q 957 622 972 599 q 919 661 942 644 q 896 655 910 658 q 868 649 882 651 q 841 648 854 647 q 818 654 828 649 q 803 677 803 663 q 816 702 803 692 q 854 714 829 713 q 914 699 879 715 q 919 696 914 699 q 972 745 951 715 q 1000 811 993 775 q 1001 889 1010 847 q 965 994 994 947 q 882 1065 935 1042 q 825 933 853 1001 q 768 793 797 864 q 655 518 715 653 q 514 279 594 383 q 563 234 535 256 q 622 198 590 213 q 687 177 653 183 q 756 179 721 171 m 892 682 q 831 697 849 704 q 819 688 822 694 q 817 676 815 682 q 827 666 819 669 q 851 667 835 663 q 874 674 863 669 q 892 682 885 679 z "},"C":{"ha":867,"x_min":158,"x_max":1028,"o":"m 736 1082 q 616 998 674 1046 q 510 896 558 950 q 658 908 583 896 q 797 944 732 921 q 897 984 856 963 q 965 1026 939 1006 q 988 1048 976 1035 q 1007 1075 1000 1061 q 1013 1103 1014 1089 q 1000 1131 1013 1118 q 942 1154 976 1153 q 869 1144 907 1156 q 797 1115 832 1133 q 736 1082 761 1097 m 499 885 q 419 783 463 849 q 340 638 376 717 q 281 476 304 558 q 258 323 257 393 q 294 204 260 253 q 408 146 329 156 q 517 156 461 139 q 626 202 574 172 q 724 271 678 232 q 801 349 769 310 l 810 342 q 730 260 776 300 q 630 190 683 221 q 520 142 576 160 q 410 125 464 124 q 264 171 313 126 q 203 284 215 215 q 207 438 190 353 q 259 608 224 524 q 342 767 294 692 q 438 889 390 842 q 278 935 353 899 q 158 1046 203 972 l 171 1053 q 290 944 215 979 q 449 900 365 910 q 572 1016 507 963 q 713 1108 638 1069 q 782 1138 742 1122 q 865 1163 822 1154 q 947 1167 908 1171 q 1011 1142 986 1164 q 1026 1110 1025 1126 q 1021 1076 1028 1093 q 1001 1044 1014 1060 q 975 1018 989 1029 q 904 974 947 996 q 800 932 861 951 q 654 895 731 908 q 499 885 578 882 z "},"D":{"ha":1247,"x_min":6,"x_max":1417,"o":"m 899 953 q 1013 863 965 917 q 1090 742 1061 808 q 1124 602 1118 676 q 1113 453 1131 528 q 1067 338 1097 393 q 988 236 1036 283 q 872 151 936 185 q 742 106 808 117 q 610 111 675 96 q 493 174 546 126 q 415 99 456 132 q 328 42 374 65 q 183 9 249 4 q 74 47 118 14 q 21 115 36 76 q 9 196 6 154 q 32 278 13 238 q 83 351 51 318 q 193 431 125 396 q 148 483 165 453 q 122 547 131 513 q 115 616 114 581 q 125 686 117 651 q 188 812 143 756 q 292 909 232 868 q 425 976 353 950 q 571 1013 497 1003 q 715 1014 644 1022 q 844 978 786 1006 q 954 1145 897 1075 q 1086 1257 1011 1215 q 1228 1301 1163 1301 q 1342 1271 1294 1301 q 1399 1207 1381 1244 q 1417 1128 1417 1169 q 1400 1045 1417 1088 q 1353 968 1383 1003 q 1256 883 1311 917 q 1139 825 1201 849 l 1135 835 q 1249 893 1196 858 q 1344 976 1303 928 q 1388 1049 1372 1010 q 1405 1126 1404 1088 q 1389 1199 1406 1164 q 1335 1260 1372 1235 q 1214 1283 1275 1299 q 1096 1219 1153 1268 q 988 1099 1039 1171 q 899 953 938 1026 m 206 438 q 333 485 261 465 q 497 517 406 506 q 511 576 508 546 q 510 636 514 607 l 524 639 q 524 578 526 608 q 513 519 522 547 q 573 524 542 522 q 638 528 604 525 q 736 753 689 644 q 839 967 783 863 q 643 1004 753 1006 q 430 965 533 1003 q 246 856 326 928 q 138 683 165 785 q 135 548 119 617 q 206 438 151 479 m 890 936 q 827 799 854 858 q 778 692 800 740 q 739 605 757 644 q 704 528 721 565 q 879 519 785 528 l 876 507 q 699 515 781 515 q 607 338 654 422 q 501 185 560 253 q 611 126 553 139 q 729 127 669 114 q 844 175 789 140 q 944 260 900 210 q 1006 351 981 301 q 1047 456 1032 401 q 1063 588 1064 521 q 1044 719 1063 656 q 989 837 1025 782 q 900 931 953 892 l 890 936 m 507 506 q 452 431 488 460 q 374 392 417 403 q 285 389 331 382 q 203 422 240 396 q 140 385 167 404 q 93 343 114 365 q 44 274 63 311 q 22 197 25 236 q 33 122 19 158 q 83 58 47 86 q 184 26 131 21 q 288 60 238 32 q 383 132 339 89 q 458 214 428 175 q 407 353 418 269 l 418 354 q 436 283 424 315 q 465 225 449 251 q 553 361 514 288 q 632 514 593 435 q 507 506 567 513 m 217 429 q 291 401 250 407 q 371 404 332 394 q 442 439 410 414 q 493 504 475 464 q 338 474 406 493 q 217 429 269 456 z "},"E":{"ha":960,"x_min":67,"x_max":1111,"o":"m 1053 1149 q 844 1089 940 1138 q 683 978 749 1040 q 721 990 703 985 q 757 1000 739 994 q 796 1010 776 1006 q 836 1022 815 1015 q 896 1041 867 1032 q 953 1061 925 1050 q 1008 1084 982 1072 q 1061 1110 1035 1096 q 1095 1141 1093 1128 q 1053 1149 1097 1154 m 665 960 q 660 956 663 958 q 590 847 610 901 q 581 778 575 808 q 668 811 628 801 q 739 824 708 821 q 812 813 789 826 q 835 777 835 799 q 815 732 835 756 q 758 692 794 708 q 665 671 714 672 q 579 696 617 669 q 553 721 564 706 q 451 648 503 689 q 355 558 399 607 q 281 452 311 508 q 243 336 250 396 q 242 283 240 308 q 256 235 244 257 q 308 157 274 185 q 387 119 343 129 q 480 117 431 110 q 576 140 529 124 q 675 190 626 160 q 761 261 724 219 q 815 348 793 297 q 838 446 836 399 q 815 519 839 499 q 759 533 792 539 q 692 503 726 528 q 634 443 657 479 q 608 365 611 407 q 636 283 604 322 l 626 275 q 594 365 592 318 q 623 450 597 411 q 688 515 649 489 q 763 546 726 542 q 825 528 799 550 q 850 447 851 506 q 826 344 849 397 q 769 253 803 290 q 683 178 732 210 q 581 128 633 147 q 482 103 535 111 q 379 99 429 94 q 285 125 329 104 q 211 188 242 146 q 183 247 192 214 q 175 315 174 279 q 214 450 179 385 q 301 572 249 515 q 415 676 353 629 q 533 754 476 722 q 526 806 524 778 q 539 863 528 835 q 556 897 546 879 q 581 933 565 914 q 410 867 493 904 q 260 776 328 829 q 144 652 192 724 q 79 485 96 581 l 67 486 q 135 662 85 588 q 258 791 186 736 q 417 884 331 846 q 594 951 504 922 q 603 962 599 957 q 614 972 608 967 q 750 1078 667 1026 q 828 1117 788 1100 q 910 1144 869 1133 q 986 1160 950 1154 q 1050 1165 1022 1165 q 1108 1144 1106 1164 q 1065 1097 1111 1124 q 1013 1072 1040 1083 q 958 1049 986 1060 q 899 1028 929 1038 q 838 1010 869 1019 q 801 999 819 1004 q 760 988 782 994 q 713 974 736 981 q 665 960 689 967 m 743 804 q 665 781 704 797 q 592 744 626 764 q 661 690 618 697 q 753 704 704 683 q 802 738 783 718 q 822 776 821 758 q 805 803 824 793 q 743 804 786 813 z "},"F":{"ha":908,"x_min":75,"x_max":1324,"o":"m 903 963 q 1115 1012 1015 982 q 1285 1097 1214 1042 q 1308 1134 1310 1118 q 1274 1157 1306 1150 q 1181 1150 1233 1167 q 1075 1103 1128 1133 q 976 1035 1022 1074 q 903 963 929 996 m 892 947 q 844 870 867 913 q 801 783 821 828 q 763 694 781 739 q 729 608 744 649 q 838 634 779 621 q 940 671 896 647 l 947 660 q 838 621 899 635 q 724 594 776 607 q 680 488 704 546 q 626 369 656 429 q 562 250 597 308 q 485 144 526 192 q 393 65 443 97 q 285 25 343 33 q 135 54 185 11 q 81 169 86 97 q 110 324 75 240 q 218 476 146 408 q 175 533 183 499 q 175 607 167 568 q 205 682 183 646 q 250 743 226 718 q 326 805 283 778 q 415 851 368 832 q 509 885 461 871 q 603 910 557 900 q 576 985 599 953 l 589 993 q 617 913 608 958 q 720 932 668 924 q 825 950 772 940 q 908 1042 863 1003 q 1002 1108 954 1081 q 1096 1150 1050 1135 q 1182 1171 1142 1165 q 1231 1174 1207 1174 q 1278 1169 1254 1175 q 1320 1137 1317 1160 q 1292 1088 1324 1114 q 1114 999 1218 1029 q 892 947 1010 968 m 228 486 q 313 555 265 519 q 419 626 360 590 l 425 617 q 322 547 367 581 q 240 481 276 513 q 319 481 278 467 q 402 528 361 496 q 481 608 443 561 q 547 706 518 656 q 590 807 575 757 q 604 897 606 857 q 513 874 560 888 q 420 840 465 860 q 334 794 375 821 q 260 735 293 768 q 217 677 238 711 q 188 606 196 643 q 187 537 179 569 q 228 486 194 504 m 229 471 q 148 369 179 424 q 103 262 117 314 q 96 163 90 210 q 124 85 101 117 q 187 42 147 54 q 282 47 226 31 q 401 128 344 65 q 506 272 458 192 q 590 434 553 351 q 650 575 626 517 q 562 544 606 563 q 476 501 518 526 q 394 439 433 475 q 321 354 354 403 l 310 361 q 387 450 346 413 q 472 515 428 488 q 563 560 517 542 q 654 590 608 578 q 689 676 671 631 q 727 767 707 721 q 769 856 747 813 q 815 935 790 899 q 716 919 765 926 q 617 900 667 911 q 601 803 618 857 q 555 697 585 750 q 485 594 525 643 q 402 513 446 546 q 314 466 358 479 q 229 471 269 453 z "},"G":{"ha":946,"x_min":129,"x_max":1029,"o":"m 757 976 q 583 869 654 932 q 468 735 513 806 q 642 763 554 742 q 810 817 729 785 q 920 870 872 842 q 990 926 968 899 q 998 980 1013 957 q 954 1014 983 1003 q 907 1021 932 1022 q 856 1013 882 1019 q 804 997 829 1007 q 757 976 779 986 m 460 721 q 457 716 458 718 q 454 711 456 714 q 415 622 432 671 q 393 525 397 574 q 393 467 390 497 q 405 410 396 438 q 431 360 414 382 q 476 325 449 338 q 530 322 500 315 q 592 347 560 329 q 657 389 624 364 q 719 440 690 414 q 772 489 749 465 q 808 528 794 513 q 835 557 819 542 q 868 575 851 572 q 888 571 882 578 q 896 553 894 564 q 894 532 897 543 q 888 513 892 521 q 835 395 860 454 q 782 278 810 336 q 881 233 838 265 q 950 142 925 200 l 936 138 q 870 224 913 193 q 775 265 828 254 q 665 81 728 174 q 518 -75 603 -12 q 442 -117 479 -103 q 372 -135 404 -132 q 301 -126 336 -137 q 243 -92 267 -115 q 213 -37 219 -69 q 226 35 207 -6 q 263 88 240 61 q 313 136 286 114 q 367 176 339 158 q 417 207 394 194 q 564 265 485 243 q 718 285 643 288 q 772 401 747 343 q 824 517 796 458 l 826 521 q 832 533 829 528 q 836 543 835 539 q 818 519 829 533 q 620 349 708 399 q 468 304 532 300 q 397 326 426 306 q 351 378 368 347 q 329 448 335 410 q 328 524 324 486 q 349 623 331 572 q 392 718 368 674 q 219 746 292 718 q 129 840 147 774 l 140 844 q 172 790 149 813 q 228 755 194 768 q 306 736 263 742 q 399 731 350 731 q 531 885 447 813 q 740 1006 615 958 q 790 1021 763 1014 q 846 1032 817 1028 q 903 1035 875 1036 q 957 1026 932 1035 q 1011 985 993 1014 q 1001 919 1029 957 q 928 860 978 889 q 813 804 879 831 q 638 750 729 772 q 460 721 547 728 m 713 272 q 564 253 639 275 q 422 196 489 231 q 375 167 401 185 q 322 128 349 150 q 273 81 296 106 q 238 29 250 56 q 224 -35 221 -6 q 247 -83 228 -64 q 299 -110 267 -103 q 369 -108 331 -117 q 478 -52 426 -94 q 573 47 529 -10 q 652 163 617 103 q 713 272 688 224 z "},"H":{"ha":943,"x_min":58,"x_max":1231,"o":"m 508 783 q 422 690 460 722 q 353 650 383 658 q 289 661 310 639 q 267 726 268 683 q 283 824 265 768 q 334 934 300 879 q 416 1036 368 989 q 524 1110 464 1083 q 559 1123 540 1118 q 597 1128 578 1128 q 633 1122 615 1128 q 664 1100 650 1115 q 685 1017 689 1071 q 665 902 682 963 q 622 785 647 842 q 581 692 597 728 q 687 736 632 717 q 800 767 742 756 q 836 854 817 806 q 878 954 856 903 q 928 1058 901 1006 q 986 1157 956 1110 q 1055 1251 1018 1210 q 1133 1322 1092 1293 q 1165 1342 1149 1333 q 1194 1356 1181 1351 q 1218 1357 1208 1360 q 1231 1343 1228 1354 q 1153 1291 1192 1329 q 1079 1201 1115 1253 q 1010 1088 1043 1149 q 950 969 978 1028 q 901 858 922 910 q 865 772 879 807 q 917 775 892 775 q 968 772 943 775 l 969 760 q 917 763 943 763 q 863 758 890 763 l 857 746 q 790 552 819 647 q 741 377 760 457 q 716 238 722 297 q 721 153 710 179 q 714 141 724 144 q 692 137 704 138 q 667 138 679 136 q 654 144 656 140 q 653 235 646 174 q 679 379 660 297 q 728 557 699 461 q 796 751 758 653 q 679 720 736 740 q 571 672 622 700 l 546 622 q 476 493 515 563 q 391 358 438 424 q 290 237 344 292 q 174 151 235 182 q 135 138 158 144 q 90 132 113 131 q 67 144 76 135 q 60 175 58 154 q 88 249 61 206 q 158 342 115 293 q 251 439 200 390 q 349 528 301 488 q 436 599 397 569 q 493 640 475 629 q 538 736 511 678 q 586 857 564 794 q 618 977 608 919 q 611 1069 628 1035 q 576 1107 597 1101 q 526 1100 554 1113 q 426 1031 471 1075 q 349 934 382 986 q 299 830 317 882 q 280 737 281 778 q 296 674 279 696 q 350 663 313 653 q 414 702 376 671 q 496 792 451 733 l 508 783 m 482 619 q 429 581 465 610 q 349 512 393 551 q 256 425 304 472 q 167 332 207 378 q 100 244 126 286 q 72 174 74 203 q 93 149 69 146 q 166 181 128 153 q 242 252 204 210 q 315 346 279 294 q 383 448 351 397 q 440 544 415 499 q 482 619 465 589 z "},"I":{"ha":808,"x_min":169,"x_max":1144,"o":"m 1053 1113 q 971 1051 1008 1089 q 901 968 933 1014 q 961 988 926 976 q 1030 1017 996 1000 q 1090 1054 1064 1033 q 1125 1103 1117 1075 q 1125 1131 1132 1125 q 1105 1134 1118 1136 q 1077 1124 1092 1132 q 1053 1113 1063 1117 m 892 951 q 808 787 843 876 q 739 606 772 697 q 654 390 699 492 q 547 224 610 288 q 466 163 510 185 q 378 138 422 142 q 334 136 354 135 q 292 143 314 138 q 203 204 235 161 q 169 307 172 247 l 181 308 q 215 212 186 253 q 297 156 244 171 q 335 151 319 149 q 375 161 351 153 q 435 190 407 172 q 486 232 463 208 q 540 303 515 263 q 587 390 565 343 q 628 488 608 436 q 668 594 649 540 q 730 763 697 679 q 807 922 763 847 q 624 844 718 890 q 447 726 531 799 l 440 736 q 626 859 528 813 q 819 939 725 906 q 914 1058 860 1006 q 1042 1142 968 1110 q 1078 1152 1058 1149 q 1113 1152 1097 1156 q 1137 1136 1129 1149 q 1136 1099 1144 1124 q 1099 1045 1128 1068 q 1033 1004 1069 1022 q 957 974 996 986 q 892 951 918 961 z "},"J":{"ha":869,"x_min":222,"x_max":1168,"o":"m 822 386 q 736 385 778 388 q 657 375 694 382 q 584 231 621 297 q 507 117 547 165 q 424 40 467 68 q 336 11 382 11 q 270 27 303 11 q 229 79 238 43 q 244 160 222 122 q 306 233 265 199 q 375 283 336 260 q 453 325 414 307 q 529 356 493 343 q 590 375 565 368 q 670 564 633 468 q 743 756 707 660 q 817 947 779 851 q 899 1132 854 1042 q 796 1079 849 1107 q 694 1024 743 1051 q 603 972 644 997 q 535 922 561 946 q 510 897 521 910 q 496 871 499 883 q 501 847 493 858 q 532 828 508 836 l 528 817 q 490 840 500 826 q 483 867 481 853 q 497 898 485 882 q 526 929 510 914 q 597 981 554 954 q 688 1036 639 1008 q 791 1091 738 1064 q 894 1144 844 1118 l 908 1150 q 942 1210 921 1176 q 990 1275 964 1244 q 1046 1327 1015 1306 q 1108 1350 1076 1349 q 1160 1326 1151 1351 q 1139 1271 1168 1300 q 1101 1241 1124 1256 q 1057 1214 1079 1226 q 1016 1192 1035 1201 q 989 1178 997 1182 q 899 992 940 1090 q 820 790 858 893 q 744 585 782 688 q 664 389 707 483 q 742 399 701 396 q 826 399 783 401 l 822 386 m 332 33 q 464 149 403 60 q 583 361 525 238 q 526 343 560 356 q 456 313 493 331 q 381 274 418 296 q 315 226 344 251 q 256 158 276 194 q 242 82 235 122 q 276 38 249 54 q 332 33 303 22 m 999 1197 q 1025 1211 1008 1203 q 1060 1230 1042 1219 q 1097 1253 1079 1240 q 1129 1278 1115 1265 q 1149 1306 1147 1296 q 1144 1317 1151 1315 q 1122 1315 1136 1319 q 1094 1303 1108 1311 q 1041 1256 1064 1283 q 999 1197 1018 1229 z "},"K":{"ha":1075,"x_min":217,"x_max":1340,"o":"m 521 761 q 488 817 472 781 q 535 868 497 840 q 624 926 572 896 q 737 988 676 957 q 854 1046 797 1018 q 899 1111 878 1082 q 939 1160 919 1140 q 967 1182 950 1169 q 1001 1204 983 1194 q 1037 1220 1018 1214 q 1071 1225 1056 1226 q 1099 1203 1096 1222 q 1086 1165 1103 1185 q 1072 1151 1079 1158 q 1054 1138 1065 1144 q 997 1102 1028 1118 q 940 1074 965 1086 q 858 930 900 1013 q 771 754 815 847 q 709 632 739 693 q 647 513 679 571 q 704 515 675 515 q 763 510 733 515 l 760 497 q 640 499 703 507 q 558 357 600 424 q 472 241 515 290 q 383 164 428 192 q 292 139 338 136 q 247 150 268 140 q 221 188 225 160 q 224 226 217 206 q 242 266 231 246 q 269 303 254 286 q 296 333 283 321 q 417 428 346 383 q 574 496 489 472 q 642 626 610 560 q 706 760 674 693 q 777 902 742 835 q 844 1026 813 969 q 731 970 789 999 q 625 913 674 942 q 542 859 576 885 q 499 813 508 833 q 526 774 488 788 l 521 761 m 1215 83 l 1224 75 q 1074 52 1138 42 q 963 103 1010 63 q 885 206 917 143 q 834 338 854 268 q 801 480 814 408 q 781 608 789 551 q 757 614 769 611 q 736 624 744 617 q 728 651 725 635 q 747 672 732 667 q 767 672 756 675 q 788 662 778 668 q 808 648 799 656 q 821 635 817 640 q 903 683 856 650 q 1014 782 950 717 l 1018 783 q 1074 840 1038 804 q 1155 908 1111 875 q 1243 964 1199 942 q 1321 979 1288 986 q 1334 972 1328 978 q 1333 965 1340 967 q 1244 922 1285 950 q 1165 860 1203 894 q 1090 789 1126 826 q 1014 717 1053 751 q 932 655 975 682 q 838 614 889 628 q 863 489 851 558 q 890 351 875 419 q 928 222 906 283 q 989 121 951 161 q 1081 67 1026 81 q 1215 83 1136 54 m 289 160 q 359 201 324 172 q 429 273 394 231 q 497 369 464 315 q 564 482 531 422 q 419 415 486 458 q 306 325 351 372 q 281 297 294 314 q 255 263 267 281 q 236 226 243 244 q 232 190 229 207 q 253 161 236 169 q 289 160 269 153 m 954 1094 q 1001 1119 975 1106 q 1050 1147 1026 1132 l 1078 1172 q 1085 1197 1096 1194 q 1056 1190 1074 1199 q 999 1149 1024 1176 q 954 1094 974 1122 m 776 624 l 778 624 q 774 635 776 628 q 769 649 772 643 q 760 660 765 656 q 749 660 756 664 q 740 647 740 656 q 746 633 740 639 q 776 624 756 624 z "},"L":{"ha":996,"x_min":10,"x_max":1001,"o":"m 349 776 q 317 831 301 794 q 364 882 326 854 q 453 940 401 910 q 567 1000 506 969 q 686 1058 628 1031 q 728 1124 707 1094 q 769 1172 750 1153 q 797 1195 783 1185 q 826 1215 811 1206 q 853 1228 840 1222 q 879 1235 867 1233 q 903 1233 892 1236 q 922 1223 915 1231 q 929 1205 929 1215 q 919 1181 929 1194 q 890 1152 908 1165 q 849 1126 871 1139 q 806 1104 828 1114 q 768 1086 785 1094 q 685 944 728 1026 q 597 769 643 861 q 483 549 542 660 q 363 349 425 438 q 268 243 315 283 q 367 217 318 233 q 461 185 417 201 q 593 138 528 161 q 725 103 658 115 q 859 94 792 90 q 997 125 926 97 l 1001 113 q 862 81 931 85 q 725 90 793 78 q 590 126 657 103 q 456 174 524 149 q 359 207 410 190 q 256 232 308 224 q 210 200 235 215 q 157 173 185 185 q 101 156 129 161 q 47 153 74 150 q 10 174 11 156 q 38 210 10 192 q 122 244 78 235 q 208 250 165 253 q 255 297 232 271 q 300 356 278 324 q 419 553 361 443 q 533 775 478 664 q 604 915 569 849 q 674 1039 639 982 q 560 983 618 1011 q 454 926 503 954 q 372 873 406 899 q 328 826 338 847 q 354 789 317 803 l 349 776 m 196 239 q 118 231 156 239 q 44 200 81 222 q 23 178 25 189 q 49 167 21 167 q 88 174 67 167 q 129 193 108 182 q 167 217 150 204 q 196 239 185 229 m 783 1107 q 815 1123 797 1114 q 851 1142 833 1132 q 884 1164 868 1153 q 911 1188 900 1175 q 918 1202 918 1197 q 914 1208 918 1207 q 903 1208 910 1210 q 889 1203 896 1206 q 831 1163 857 1190 q 783 1107 804 1135 z "},"M":{"ha":1617,"x_min":121,"x_max":1742,"o":"m 689 704 q 809 850 744 776 q 942 986 874 924 q 977 1018 951 996 q 1036 1065 1003 1040 q 1106 1112 1069 1089 q 1176 1146 1143 1135 q 1232 1152 1208 1157 q 1264 1115 1256 1147 q 1263 1057 1269 1092 q 1242 981 1257 1022 q 1208 893 1228 939 q 1165 804 1188 847 q 1137 751 1150 776 q 1110 701 1124 725 q 1142 745 1125 722 q 1179 794 1160 768 q 1275 917 1224 853 q 1379 1047 1326 982 q 1510 1196 1454 1139 q 1607 1285 1565 1253 q 1644 1308 1624 1297 q 1682 1322 1664 1319 q 1714 1313 1700 1324 q 1733 1274 1728 1303 q 1724 1138 1742 1224 q 1674 946 1707 1051 q 1594 726 1640 840 q 1503 509 1549 613 q 1414 322 1457 406 q 1343 193 1371 238 q 1331 191 1342 190 q 1310 195 1321 192 q 1292 203 1300 199 q 1289 214 1285 207 q 1363 346 1322 265 q 1444 522 1403 426 q 1526 719 1486 617 q 1597 917 1565 821 q 1612 960 1600 924 q 1637 1046 1624 997 q 1662 1146 1650 1094 q 1674 1235 1674 1197 q 1662 1286 1675 1272 q 1614 1274 1649 1300 q 1519 1188 1575 1244 q 1389 1040 1464 1131 q 1285 910 1336 974 q 1189 788 1233 846 q 1138 719 1161 751 q 1096 663 1115 688 l 1022 663 q 1035 686 1029 674 q 1050 713 1042 699 q 1067 743 1053 718 q 1098 803 1081 768 q 1135 880 1115 838 q 1172 963 1156 922 q 1197 1040 1188 1004 q 1204 1099 1207 1075 q 1188 1126 1203 1119 q 1142 1118 1174 1133 q 1048 1061 1097 1097 q 949 978 999 1025 q 799 819 872 906 q 667 653 725 733 l 665 654 q 590 515 629 579 q 501 406 551 451 q 402 340 454 361 q 301 317 350 318 q 263 318 281 315 q 225 328 244 321 q 147 391 172 347 q 122 492 121 435 l 135 492 q 158 399 133 439 q 231 339 182 358 q 265 332 247 332 q 299 335 282 332 q 375 366 336 343 q 442 415 414 389 q 504 488 475 446 q 560 577 533 529 q 610 678 586 625 q 658 786 635 731 q 747 972 700 879 q 851 1146 793 1065 q 782 1133 817 1139 q 711 1121 747 1128 q 547 1090 626 1106 q 408 1056 468 1075 l 406 1068 q 545 1103 467 1088 q 708 1133 624 1118 q 787 1147 749 1140 q 864 1161 825 1154 q 965 1268 908 1221 q 1092 1346 1021 1315 q 1143 1358 1119 1358 q 1180 1348 1167 1358 q 1192 1318 1193 1338 q 1169 1272 1190 1299 q 1120 1230 1149 1247 q 1059 1200 1092 1213 q 994 1178 1026 1188 q 933 1163 961 1169 q 817 980 867 1079 q 724 781 768 881 q 706 742 714 761 q 689 704 697 724 m 1107 1315 q 1021 1254 1061 1289 q 944 1179 981 1219 q 1001 1193 971 1185 q 1059 1213 1031 1201 q 1113 1241 1088 1225 q 1157 1278 1139 1257 q 1181 1315 1176 1301 q 1176 1333 1185 1329 q 1150 1333 1168 1338 q 1107 1315 1132 1328 z "},"N":{"ha":1243,"x_min":113,"x_max":1311,"o":"m 719 678 q 853 798 788 742 q 977 901 918 854 q 1088 982 1036 947 q 1181 1038 1139 1017 q 1256 1060 1228 1060 q 1297 1046 1283 1061 q 1310 1003 1310 1031 q 1306 946 1311 976 q 1289 883 1300 915 q 1268 828 1278 851 q 1196 676 1238 753 q 1115 521 1154 599 q 1049 366 1076 443 q 1018 214 1021 289 q 1023 158 1017 183 q 1044 119 1029 133 q 1083 105 1058 106 q 1140 121 1107 104 l 1146 110 q 1084 88 1117 94 q 1024 89 1051 82 q 976 117 996 96 q 954 176 957 138 q 961 275 950 221 q 994 387 972 329 q 1044 504 1015 444 q 1101 622 1072 564 q 1158 735 1131 681 q 1203 835 1185 789 q 1216 867 1207 844 q 1233 915 1225 889 q 1245 967 1240 942 q 1247 1011 1250 993 q 1230 1034 1244 1029 q 1186 1025 1215 1039 q 1091 967 1144 1004 q 976 882 1038 931 q 845 774 914 833 q 706 649 776 714 q 656 544 681 593 q 604 450 632 496 q 662 433 633 443 q 721 413 690 424 l 715 400 q 654 422 683 413 q 597 439 625 432 l 593 433 q 543 357 569 393 q 486 292 517 321 q 369 214 422 236 q 301 197 339 201 q 228 197 264 192 q 164 219 193 201 q 121 269 135 236 q 117 317 113 294 q 133 361 121 340 q 165 399 146 382 q 203 429 183 417 q 342 474 256 461 q 549 464 428 488 q 622 608 588 536 q 690 752 656 681 q 763 892 725 824 q 846 1024 800 960 q 711 978 781 1003 q 574 924 642 953 q 444 860 507 894 q 332 783 382 825 l 322 793 q 441 872 375 836 q 578 938 507 907 q 720 994 649 968 q 858 1043 792 1019 q 967 1162 907 1108 q 1103 1250 1028 1215 q 1151 1267 1131 1264 q 1182 1263 1171 1269 q 1199 1243 1197 1256 q 1197 1217 1201 1231 q 1183 1190 1192 1203 q 1168 1172 1174 1178 q 1133 1142 1153 1157 q 1085 1114 1113 1128 q 1018 1085 1057 1100 q 933 1056 979 1071 q 816 873 867 971 q 719 678 765 775 m 947 1072 q 1022 1100 988 1088 q 1081 1125 1056 1113 q 1126 1151 1107 1138 q 1158 1179 1146 1165 q 1184 1215 1176 1199 q 1187 1240 1192 1232 q 1165 1245 1182 1249 q 1118 1222 1147 1242 q 1065 1182 1093 1206 q 1013 1136 1038 1158 q 969 1096 988 1114 q 947 1072 951 1078 m 338 236 q 381 263 360 247 q 425 299 403 278 q 532 436 483 357 q 535 444 533 440 q 540 453 538 449 q 343 463 425 475 q 208 418 261 450 q 172 390 189 407 q 143 355 154 374 q 129 315 132 336 q 135 275 126 294 q 170 228 146 243 q 224 211 194 214 q 283 216 253 208 q 338 236 314 224 z "},"O":{"ha":804,"x_min":100,"x_max":822,"o":"m 515 918 q 385 814 449 878 q 271 674 321 750 q 210 561 239 625 q 173 432 182 497 q 181 308 164 367 q 254 211 197 250 q 352 185 303 178 q 451 218 401 193 q 541 276 497 242 q 624 353 585 311 q 697 442 664 394 q 753 538 729 489 q 789 638 779 590 q 799 732 800 683 q 787 822 799 781 q 752 897 775 864 q 695 945 729 929 q 616 956 661 961 q 515 918 571 951 m 208 681 q 324 824 260 758 q 457 929 389 889 q 623 977 550 983 q 742 924 696 971 q 806 799 789 876 q 801 635 822 721 q 788 585 796 611 q 767 535 779 560 q 709 437 743 485 q 635 346 675 389 q 549 267 594 303 q 456 207 503 232 q 322 168 390 174 q 231 183 274 165 q 158 236 189 201 q 109 340 118 282 q 112 457 100 397 q 151 575 124 517 q 208 681 178 633 z "},"P":{"ha":883,"x_min":64,"x_max":1050,"o":"m 497 1018 q 458 1048 481 1040 q 410 1055 435 1056 q 361 1046 386 1054 q 314 1028 336 1038 l 308 1039 q 361 1058 333 1050 q 415 1067 389 1067 q 465 1058 442 1068 q 507 1024 489 1049 q 656 1070 578 1056 q 808 1076 733 1085 q 835 1108 815 1086 q 879 1149 856 1131 q 924 1176 903 1168 q 957 1163 946 1183 q 908 1124 931 1147 q 864 1068 886 1100 q 949 1035 911 1057 q 1011 980 988 1013 q 1042 904 1035 947 q 1036 810 1050 861 q 982 699 1019 749 q 893 615 944 649 q 781 567 842 582 q 658 564 719 553 q 613 436 636 500 q 564 313 590 372 q 625 300 592 310 q 682 274 658 290 l 672 263 q 618 288 653 281 q 558 301 583 296 q 499 181 531 236 q 429 82 468 126 q 357 12 397 42 q 264 -32 317 -18 q 183 -39 219 -44 q 125 -12 147 -33 q 98 42 103 8 q 113 122 93 76 q 178 217 135 179 q 276 278 222 256 q 390 310 331 301 q 504 317 450 318 q 564 472 536 392 q 619 631 592 551 q 706 872 664 758 q 801 1065 749 986 q 656 1058 726 1072 q 515 1013 585 1043 q 540 913 539 968 q 535 810 542 858 q 503 701 524 757 q 452 596 482 646 q 385 506 422 546 q 303 443 347 465 q 192 413 242 411 q 113 442 143 415 q 73 519 82 469 q 83 631 64 568 q 149 764 106 706 q 249 868 193 822 q 368 950 304 914 q 497 1018 432 986 m 503 1008 q 393 942 449 982 q 289 853 338 903 q 201 749 240 804 q 144 635 163 693 q 136 549 131 592 q 163 478 142 507 q 218 439 183 449 q 297 453 253 429 q 377 515 340 475 q 442 603 414 554 q 491 706 471 651 q 519 813 511 760 q 528 913 529 857 q 503 1008 526 968 m 858 1057 l 857 1058 q 766 870 807 979 q 685 639 725 761 q 673 608 678 624 q 661 576 668 593 q 766 583 717 567 q 856 633 815 600 q 926 713 897 667 q 968 811 954 760 q 962 958 989 890 q 858 1057 935 1025 m 499 306 q 390 298 446 307 q 281 267 333 289 q 188 208 229 244 q 124 117 146 171 q 113 46 108 78 q 135 -5 117 14 q 186 -27 154 -24 q 257 -12 218 -31 q 336 44 300 7 q 403 125 372 81 q 457 217 433 169 q 499 306 481 264 z "},"Q":{"ha":836,"x_min":113,"x_max":843,"o":"m 476 379 q 524 344 500 365 q 567 304 547 324 q 674 411 622 350 q 760 542 725 472 q 808 685 796 611 q 800 831 821 758 q 698 963 771 935 q 525 932 625 990 q 395 828 458 892 q 281 688 332 764 q 205 528 228 607 q 185 383 182 449 q 216 271 189 318 q 291 207 243 224 q 406 210 339 190 q 557 296 474 229 q 515 335 538 314 q 471 368 493 356 l 476 379 m 575 296 q 626 251 599 274 q 687 210 654 228 q 758 180 719 192 q 843 168 797 168 l 843 156 q 755 167 794 156 q 681 198 715 179 q 619 240 647 217 q 565 288 590 264 q 403 194 479 217 q 267 184 326 171 q 170 243 208 197 q 122 358 132 289 q 135 513 113 426 q 218 694 157 600 q 333 838 268 772 q 467 943 399 903 q 576 985 522 975 q 678 983 631 996 q 760 933 725 969 q 814 835 796 896 q 821 685 835 761 q 772 539 807 610 q 684 406 736 468 q 575 296 632 343 z "},"R":{"ha":1100,"x_min":128,"x_max":1185,"o":"m 715 543 q 671 459 693 500 q 624 381 649 418 q 697 351 664 369 q 718 338 708 346 q 735 324 728 331 l 726 315 q 711 328 719 322 q 689 342 703 335 q 618 369 661 357 q 555 279 593 329 q 471 185 517 229 q 373 109 425 140 q 267 76 321 78 q 194 87 225 74 q 145 124 163 100 q 128 183 128 149 q 153 257 129 217 q 232 342 183 311 q 338 388 281 374 q 454 403 394 403 q 568 394 514 404 q 649 540 610 464 q 728 690 688 615 q 847 918 788 811 q 969 1096 906 1025 q 825 1109 897 1113 q 681 1086 753 1106 q 690 984 699 1040 q 668 881 682 928 q 622 776 650 828 q 556 678 593 724 q 474 599 518 633 q 382 549 431 565 q 253 540 304 522 q 185 602 203 557 q 184 713 167 647 q 258 847 201 778 q 415 982 315 917 q 663 1094 515 1047 q 629 1130 650 1118 q 585 1144 608 1142 q 535 1142 561 1146 q 485 1131 508 1138 l 482 1143 q 537 1156 508 1151 q 592 1156 565 1160 q 640 1139 618 1153 q 675 1097 661 1125 q 827 1123 750 1119 q 978 1107 904 1126 q 1011 1136 988 1117 q 1060 1170 1035 1156 q 1106 1188 1085 1185 q 1135 1171 1128 1192 q 1081 1139 1107 1160 q 1031 1090 1056 1118 q 1137 1019 1101 1063 q 1179 926 1172 976 q 1179 867 1185 897 q 1161 807 1174 838 q 1094 706 1138 750 q 996 635 1050 661 q 881 603 942 610 q 763 615 821 597 q 787 509 775 568 q 815 390 799 450 q 853 276 831 331 q 910 185 875 222 q 994 135 944 149 q 1114 144 1043 122 l 1117 132 q 985 112 1040 107 q 890 142 931 117 q 823 210 850 167 q 776 308 796 254 q 743 422 757 361 q 715 543 729 483 m 668 1082 q 469 988 551 1046 q 334 865 386 929 q 261 737 282 800 q 247 628 240 674 q 287 561 253 582 q 379 560 321 540 q 468 608 425 575 q 547 686 511 642 q 611 782 583 731 q 656 885 639 833 q 678 983 671 929 q 668 1082 686 1038 m 1096 815 q 1113 889 1110 849 q 1108 967 1117 929 q 1078 1035 1100 1004 q 1021 1081 1057 1065 q 947 978 982 1035 q 880 863 913 922 q 818 744 847 804 q 761 629 789 683 q 864 621 813 613 q 960 656 915 629 q 1040 725 1004 683 q 1096 815 1075 767 m 561 383 q 452 391 510 392 q 340 376 394 390 q 240 332 286 363 q 164 251 193 301 q 142 184 143 215 q 156 131 142 153 q 199 99 171 110 q 265 97 228 89 q 353 138 310 106 q 435 212 396 169 q 506 300 474 254 q 561 383 538 346 z "},"S":{"ha":954,"x_min":51,"x_max":1179,"o":"m 1024 1007 q 966 979 996 996 q 908 942 936 963 q 858 896 881 921 q 819 844 835 871 q 897 866 854 854 q 983 892 940 878 q 1066 925 1026 907 q 1133 965 1106 943 q 1163 1005 1165 990 q 1140 1024 1161 1019 q 1086 1024 1119 1028 q 1024 1007 1053 1019 m 811 829 q 790 742 790 785 q 801 658 790 700 q 826 575 811 617 q 849 488 840 533 q 853 394 857 443 q 822 292 850 346 q 728 174 788 222 q 597 99 668 126 q 498 74 553 82 q 390 73 443 65 q 292 105 336 81 q 222 178 247 129 q 206 277 199 225 q 250 371 213 329 q 335 434 288 414 q 428 456 382 454 q 515 444 475 458 q 575 404 554 431 q 592 326 604 368 q 542 253 581 283 q 445 213 504 224 q 319 232 386 203 l 326 244 q 439 226 385 219 q 530 259 493 233 q 580 322 567 285 q 568 392 593 358 q 512 431 549 417 q 431 444 475 446 q 340 424 386 443 q 260 364 294 404 q 219 276 226 324 q 233 183 211 228 q 291 117 256 140 q 369 88 326 94 q 456 89 411 82 q 540 111 500 96 q 672 188 614 139 q 761 304 731 238 q 788 399 785 354 q 784 485 792 443 q 763 566 776 526 q 738 645 749 606 q 725 725 728 685 q 736 808 722 765 q 519 735 629 776 q 316 631 410 693 q 154 483 222 569 q 64 275 86 396 l 51 276 q 144 490 74 401 q 310 642 214 579 q 520 748 407 706 q 742 822 633 790 q 788 894 757 860 q 856 956 818 928 q 937 1005 894 985 q 1017 1036 979 1025 q 1085 1044 1047 1044 q 1147 1035 1122 1044 q 1176 1006 1172 1025 q 1142 957 1179 988 q 1072 914 1113 933 q 985 879 1031 894 q 893 851 939 864 q 811 829 847 839 z "},"T":{"ha":1100,"x_min":299,"x_max":1782,"o":"m 901 1124 q 679 1064 779 1111 q 501 917 579 1017 q 468 863 483 892 q 444 803 453 833 q 437 741 436 772 q 451 681 438 710 q 516 622 478 631 q 596 628 554 613 q 677 676 638 644 q 744 738 717 708 q 807 818 775 771 q 863 917 839 865 q 898 1024 886 969 q 901 1124 910 1078 m 829 460 q 918 630 875 543 q 1007 802 961 717 q 1104 969 1053 888 q 1219 1122 1156 1050 q 1065 1130 1142 1128 q 914 1125 989 1132 q 910 1022 922 1076 q 874 913 899 967 q 818 812 850 860 q 753 729 786 764 q 667 658 718 693 q 563 608 617 624 q 462 606 510 593 q 386 678 414 619 q 372 740 372 708 q 379 805 371 772 q 404 867 388 838 q 440 924 421 897 q 534 1019 483 979 q 642 1084 585 1058 q 764 1125 700 1110 q 894 1147 828 1140 q 863 1192 883 1176 q 818 1213 843 1207 q 765 1215 793 1218 q 711 1206 738 1213 l 707 1217 q 768 1227 738 1225 q 826 1223 799 1229 q 874 1199 853 1217 q 907 1149 896 1182 q 1077 1158 990 1157 q 1250 1156 1164 1158 q 1342 1238 1290 1197 q 1453 1306 1394 1278 q 1572 1343 1511 1333 q 1690 1335 1632 1353 q 1731 1316 1711 1328 q 1763 1288 1750 1304 q 1779 1251 1776 1271 q 1769 1206 1782 1231 q 1720 1155 1754 1174 q 1641 1126 1686 1136 q 1545 1113 1596 1115 q 1445 1110 1494 1110 q 1353 1114 1396 1111 q 1283 1118 1311 1117 q 1167 965 1219 1046 q 1069 797 1115 883 q 979 623 1022 711 q 892 451 936 535 q 844 368 871 413 q 787 281 818 324 q 719 198 756 238 q 643 128 683 158 q 558 81 603 99 q 465 65 514 64 q 395 81 428 67 q 340 119 363 94 q 308 174 318 143 q 307 240 299 206 l 321 239 q 324 175 314 206 q 355 122 335 144 q 403 87 375 99 q 461 82 431 75 q 580 135 525 94 q 681 231 635 176 q 763 346 726 285 q 829 460 800 407 m 1318 1154 q 1415 1151 1353 1153 q 1542 1155 1476 1150 q 1664 1174 1607 1160 q 1744 1218 1721 1189 q 1749 1223 1747 1221 q 1751 1228 1750 1225 q 1758 1260 1761 1244 q 1742 1288 1754 1275 q 1715 1308 1731 1300 q 1685 1321 1699 1317 q 1587 1322 1638 1333 q 1488 1284 1536 1310 q 1395 1223 1439 1258 q 1318 1154 1351 1188 z "},"U":{"ha":1408,"x_min":153,"x_max":1517,"o":"m 706 1035 q 672 1072 693 1060 q 627 1087 651 1083 q 576 1087 603 1090 q 525 1078 550 1083 l 524 1089 q 579 1099 550 1096 q 635 1098 608 1103 q 684 1079 661 1093 q 721 1038 707 1065 q 807 1051 760 1046 q 902 1056 854 1057 q 994 1044 950 1054 q 1070 1010 1038 1033 q 1119 948 1103 986 q 1129 854 1136 910 q 1110 767 1125 813 q 1074 674 1094 721 q 1028 581 1053 628 q 982 492 1004 535 q 965 458 978 483 q 938 401 951 433 q 912 333 924 368 q 899 273 900 299 q 910 235 897 247 q 960 235 924 222 q 1047 292 999 249 q 1144 391 1096 336 q 1234 502 1192 446 q 1304 596 1276 558 q 1378 733 1339 663 q 1447 868 1418 803 q 1465 885 1451 879 q 1490 890 1478 890 q 1510 884 1503 890 q 1511 864 1517 878 q 1460 767 1497 831 q 1378 622 1422 703 q 1292 450 1335 540 q 1226 274 1250 360 q 1203 115 1201 189 q 1249 -4 1204 42 q 1365 -15 1283 -42 l 1368 -26 q 1283 -39 1319 -42 q 1222 -17 1247 -36 q 1169 55 1185 13 q 1155 147 1154 97 q 1169 249 1156 196 q 1200 354 1182 303 q 1239 453 1218 406 q 1276 538 1260 500 q 1212 453 1250 501 q 1131 358 1174 406 q 1044 274 1088 311 q 963 224 1000 236 q 877 210 906 204 q 840 240 849 217 q 839 297 832 263 q 859 369 846 332 q 889 440 872 406 q 917 496 906 475 q 962 584 939 538 q 1005 677 985 631 q 1040 769 1025 724 q 1060 857 1056 815 q 1040 974 1069 933 q 962 1031 1011 1015 q 851 1042 913 1046 q 735 1028 790 1039 q 725 1025 731 1028 q 735 950 738 993 q 699 806 731 885 q 643 700 676 753 q 569 601 610 647 q 480 520 528 556 q 382 468 432 485 q 294 454 333 453 q 225 471 254 456 q 178 513 196 486 q 158 575 161 540 q 178 688 153 633 q 249 789 204 742 q 352 876 293 836 q 474 947 411 915 q 597 1001 536 979 q 706 1035 657 1024 m 713 1022 q 614 984 668 1008 q 504 927 560 960 q 397 855 449 894 q 305 771 344 815 q 242 678 265 726 q 224 581 219 631 q 238 528 225 551 q 270 491 250 506 q 318 473 290 476 q 378 481 346 469 q 473 531 426 497 q 560 609 519 564 q 633 706 600 654 q 688 810 665 757 q 711 883 703 847 q 722 950 719 918 q 713 1022 725 992 z "},"V":{"ha":1233,"x_min":86,"x_max":1410,"o":"m 306 535 q 378 579 343 551 q 442 643 413 607 q 496 719 472 679 q 536 801 519 760 q 554 864 547 833 q 563 922 561 894 q 544 1003 565 972 q 476 978 514 996 q 400 934 439 960 q 323 876 361 908 q 253 807 285 843 q 186 717 213 763 q 156 628 160 671 q 162 573 153 597 q 191 535 171 549 q 240 519 211 521 q 306 535 268 518 m 390 1047 q 433 1056 411 1053 q 477 1056 456 1058 q 517 1044 499 1053 q 551 1018 536 1036 q 626 1027 586 1025 q 704 1024 665 1029 q 778 1005 743 1019 q 836 965 813 990 q 886 858 876 919 q 888 732 896 797 q 863 602 881 667 q 829 486 844 538 q 810 419 822 461 q 787 331 797 376 q 773 245 776 286 q 781 181 769 204 q 792 167 786 172 q 803 158 797 161 q 833 159 817 154 q 865 173 850 164 q 892 194 879 182 q 914 214 906 206 q 1002 328 960 263 q 1085 466 1044 393 q 1165 614 1126 539 q 1243 758 1204 689 q 1322 884 1282 826 q 1401 978 1361 942 l 1410 968 q 1331 875 1369 932 q 1253 750 1292 818 q 1175 606 1214 682 q 1095 458 1136 531 q 1011 319 1054 385 q 922 206 968 254 q 864 158 894 176 q 794 142 833 139 q 737 164 756 143 q 713 216 718 185 q 713 286 707 247 q 728 363 718 325 q 748 434 738 400 q 765 489 758 468 q 797 597 779 538 q 822 716 814 656 q 826 834 831 776 q 790 936 821 892 q 689 1006 753 992 q 558 1007 625 1019 q 575 922 578 971 q 567 863 574 894 q 546 797 561 831 q 505 714 529 756 q 451 635 481 672 q 385 569 421 599 q 311 524 350 540 q 183 505 236 490 q 108 564 129 519 q 103 674 86 608 q 186 808 119 739 q 231 850 207 829 q 286 892 256 871 q 417 970 354 940 q 536 1014 481 1000 q 481 1042 517 1036 q 392 1035 446 1049 l 390 1047 z "},"W":{"ha":1626,"x_min":229,"x_max":1874,"o":"m 669 1065 q 616 1093 650 1086 q 526 1085 582 1100 l 524 1097 q 567 1106 544 1103 q 610 1106 589 1108 q 651 1095 632 1104 q 685 1068 671 1086 q 763 1079 724 1076 q 838 1077 801 1082 q 906 1059 874 1072 q 963 1022 938 1046 q 1010 952 994 992 q 1027 867 1025 913 q 1022 774 1029 822 q 1001 678 1014 725 q 972 588 988 632 q 944 508 957 544 q 898 376 918 438 q 878 265 878 314 q 880 235 878 250 q 889 211 882 221 q 908 199 896 201 q 938 204 919 196 q 1010 270 974 222 q 1081 381 1047 318 q 1147 511 1115 443 q 1203 636 1178 579 q 1246 731 1226 693 q 1292 807 1276 793 q 1313 810 1306 819 q 1319 788 1319 800 q 1317 734 1322 767 q 1306 672 1313 701 q 1288 607 1299 642 q 1265 533 1276 572 q 1236 436 1250 485 q 1213 343 1222 388 q 1199 263 1201 299 q 1206 208 1196 228 q 1237 189 1214 186 q 1275 201 1260 192 q 1353 270 1311 222 q 1442 383 1396 318 q 1535 522 1488 447 q 1629 671 1583 597 q 1697 780 1664 726 q 1761 878 1731 833 q 1819 956 1792 922 q 1867 1010 1846 990 l 1874 1000 q 1827 949 1853 982 q 1772 871 1801 915 q 1708 774 1742 826 q 1640 665 1675 721 q 1547 515 1594 590 q 1452 376 1499 440 q 1362 263 1406 311 q 1281 192 1318 214 q 1227 175 1257 179 q 1174 181 1197 171 q 1142 215 1150 190 q 1135 274 1133 240 q 1144 346 1136 307 q 1163 421 1153 385 q 1184 488 1174 457 q 1200 536 1194 518 q 1224 610 1214 575 q 1240 674 1233 646 q 1244 689 1243 681 q 1249 706 1246 697 q 1233 672 1242 690 q 1214 632 1225 653 q 1157 505 1189 574 q 1090 373 1125 436 q 1018 260 1056 310 q 943 193 981 211 q 897 182 919 182 q 854 191 874 182 q 823 219 835 200 q 811 264 811 238 q 833 378 813 314 q 878 513 853 442 q 917 625 896 563 q 951 752 939 688 q 960 877 964 817 q 925 986 957 938 q 822 1057 885 1043 q 692 1057 758 1071 q 708 974 713 1024 q 682 849 708 917 q 645 776 668 815 q 592 699 622 736 q 526 628 563 661 q 451 576 490 596 q 371 553 413 557 q 289 569 329 550 q 244 608 258 585 q 230 660 231 632 q 239 717 229 688 q 264 776 249 747 q 336 872 290 826 q 438 956 382 918 q 553 1023 493 994 q 669 1065 614 1051 m 319 761 q 298 717 307 740 q 285 672 289 693 q 287 630 282 650 q 308 594 292 610 q 380 576 333 571 q 480 613 426 581 q 585 705 533 644 q 669 853 636 765 q 696 974 696 918 q 678 1054 700 1021 q 574 1010 628 1042 q 472 936 521 978 q 383 849 424 894 q 319 761 343 803 z "},"X":{"ha":983,"x_min":163,"x_max":1332,"o":"m 943 757 q 1109 1006 1010 888 q 1326 1214 1208 1125 l 1332 1204 q 1209 1097 1268 1156 q 1098 974 1150 1039 q 1003 838 1046 908 q 926 697 960 768 q 865 529 890 621 q 840 351 839 438 q 880 191 842 264 q 1010 79 918 118 l 1006 68 q 884 161 925 101 q 832 294 843 221 q 834 446 821 367 q 874 600 847 525 q 774 478 833 538 q 644 369 714 418 q 499 285 575 321 q 351 238 424 250 q 311 233 336 235 q 260 232 286 231 q 213 240 233 233 q 189 260 193 246 l 200 265 q 219 248 204 253 q 254 244 233 243 q 299 251 275 246 q 346 263 324 256 q 497 325 419 283 q 643 422 574 367 q 768 547 713 478 q 856 690 824 615 q 881 774 871 729 q 894 865 892 819 q 888 952 896 910 q 857 1028 879 994 q 756 1099 819 1085 q 624 1099 692 1113 q 642 1015 646 1065 q 614 890 642 957 q 578 817 601 857 q 526 740 556 778 q 460 670 496 703 q 385 618 424 638 q 305 594 346 599 q 224 611 264 590 q 178 650 192 626 q 163 701 164 674 q 172 759 163 729 q 196 818 181 789 q 269 914 224 868 q 371 998 315 960 q 487 1065 426 1036 q 603 1107 547 1093 q 549 1135 583 1128 q 460 1126 514 1142 l 456 1139 q 544 1148 499 1150 q 619 1110 590 1146 q 695 1121 657 1118 q 770 1119 733 1124 q 839 1101 807 1114 q 896 1064 871 1088 q 940 1001 925 1036 q 958 926 954 965 q 958 843 963 886 q 943 757 953 800 m 253 803 q 231 758 240 782 q 218 713 221 735 q 220 672 215 692 q 240 636 225 651 q 313 617 267 613 q 413 654 360 622 q 517 747 467 686 q 603 894 568 807 q 629 1015 629 960 q 627 1060 632 1039 q 613 1096 622 1081 q 509 1051 563 1083 q 406 978 456 1019 q 317 890 357 936 q 253 803 276 844 z "},"Y":{"ha":1321,"x_min":147,"x_max":1271,"o":"m 1271 664 q 1235 563 1256 621 q 1187 440 1214 506 q 1127 304 1160 375 q 1057 165 1094 233 q 1118 159 1088 163 q 1182 150 1149 156 l 1174 138 q 1110 147 1140 143 q 1051 153 1081 150 q 979 31 1022 99 q 883 -98 936 -36 q 770 -206 831 -160 q 644 -262 710 -251 q 532 -240 578 -274 q 479 -136 486 -206 q 499 -28 475 -75 q 565 54 522 19 q 664 111 608 89 q 778 147 719 133 q 894 165 838 161 q 997 168 951 169 q 1057 292 1029 231 q 1110 414 1085 353 q 1051 340 1082 375 q 985 275 1021 304 q 938 242 968 261 q 874 210 907 224 q 810 197 840 197 q 764 221 781 197 q 751 277 749 243 q 765 348 754 311 q 791 419 776 385 q 815 479 806 454 q 869 688 860 596 q 864 846 879 779 q 786 963 839 925 q 687 994 742 994 q 581 979 632 994 q 607 899 607 949 q 589 772 610 838 q 552 678 575 725 q 499 590 529 631 q 431 516 468 549 q 353 465 394 483 q 255 449 299 442 q 185 484 211 456 q 153 557 158 513 q 169 654 147 601 q 194 701 181 678 q 228 749 208 725 q 269 794 246 771 q 319 842 292 818 q 433 925 372 886 q 560 986 493 964 q 502 1008 538 1006 q 414 992 467 1011 l 410 1004 q 508 1021 468 1026 q 572 992 549 1015 l 574 990 q 626 1003 596 997 q 687 1010 656 1008 q 747 1010 718 1013 q 799 1001 776 1008 q 878 949 847 985 q 924 868 908 913 q 938 774 938 824 q 931 673 939 724 q 910 572 924 622 q 879 479 896 522 q 858 424 871 457 q 832 356 844 390 q 811 291 819 322 q 806 242 803 260 q 833 215 810 214 q 883 228 856 215 q 938 258 911 240 q 975 285 964 276 q 1062 371 1022 322 q 1133 469 1101 419 q 1172 567 1154 521 q 1201 649 1189 613 l 1271 664 m 349 478 q 424 526 389 494 q 490 597 460 557 q 542 683 519 638 q 578 775 564 729 q 592 839 586 807 q 594 899 597 871 q 568 975 593 944 q 467 925 519 960 q 367 846 414 890 q 283 750 321 801 q 229 649 246 699 q 221 578 219 615 q 236 513 222 542 q 278 473 250 485 q 349 478 306 461 m 633 -242 q 744 -174 692 -219 q 842 -72 796 -128 q 925 44 888 -15 q 990 157 963 104 q 893 153 947 158 q 782 136 839 149 q 672 101 725 124 q 576 47 618 79 q 511 -31 535 14 q 492 -136 488 -76 q 506 -190 494 -165 q 537 -229 518 -214 q 580 -249 556 -244 q 633 -242 604 -253 z "},"Z":{"ha":894,"x_min":56,"x_max":1204,"o":"m 1094 1136 q 979 1075 1032 1113 q 920 1032 949 1056 q 864 981 892 1008 q 1002 1000 943 985 q 1101 1036 1061 1015 q 1167 1083 1143 1057 q 1192 1128 1190 1108 q 1169 1152 1193 1147 q 1094 1136 1146 1157 m 851 967 q 710 806 776 892 q 579 638 644 721 q 686 647 633 640 q 783 661 739 654 l 785 649 q 683 634 739 642 q 569 624 628 626 q 468 496 519 558 q 363 379 417 433 q 486 344 425 365 q 606 298 547 322 q 724 249 665 274 q 844 203 783 224 l 839 190 q 718 237 778 211 q 598 288 658 263 q 476 334 538 313 q 353 368 415 356 q 338 353 346 361 q 321 339 329 346 q 245 277 279 301 q 183 239 211 253 q 157 228 172 233 q 126 219 142 222 q 97 217 111 215 q 72 226 82 218 q 56 262 56 240 q 64 303 56 283 q 108 356 81 336 q 169 384 136 375 q 238 394 203 393 q 304 390 272 394 q 404 502 356 443 q 501 624 453 561 q 433 630 469 625 q 365 648 396 635 q 313 685 333 661 q 292 750 292 710 l 304 751 q 326 691 304 714 q 378 656 347 668 q 444 640 408 644 q 510 636 481 636 q 641 804 576 719 q 781 965 706 889 q 544 988 675 967 q 249 1060 413 1010 l 251 1072 q 553 999 419 1021 q 792 978 686 978 q 950 1106 868 1057 q 1019 1142 988 1128 q 1079 1163 1051 1156 q 1168 1169 1138 1179 q 1201 1135 1199 1158 q 1181 1081 1204 1111 q 1107 1025 1157 1050 q 1001 987 1064 1003 q 851 967 938 971 m 292 378 q 232 380 264 381 q 170 371 200 379 q 115 345 140 363 q 76 297 90 328 q 71 281 74 290 q 68 263 68 272 q 72 247 68 254 q 85 238 75 239 q 115 243 96 235 q 157 267 133 251 q 195 294 175 279 q 233 326 215 310 q 267 356 251 342 q 292 378 282 369 z "},"ı":{"ha":244,"x_min":-12,"x_max":283,"o":"m 193 774 q 226 772 211 778 q 243 756 240 767 q 233 731 244 743 q 201 715 221 719 q 168 717 182 711 q 151 735 154 722 q 161 758 149 746 q 193 774 174 769 m 124 640 q 155 644 146 643 q 169 645 164 644 q 178 647 174 646 q 197 649 182 647 q 174 597 190 635 q 135 512 157 560 q 93 411 114 464 q 59 314 72 358 q 44 240 46 269 q 60 207 43 210 q 92 219 71 204 q 149 271 114 233 q 215 351 182 307 q 271 424 249 394 q 278 425 275 431 q 281 417 283 424 q 226 344 260 389 q 158 261 193 299 q 110 217 139 242 q 50 190 81 192 q 6 210 21 190 q -12 265 -11 231 q -3 339 -12 299 q 23 423 7 379 q 58 508 39 467 q 94 583 76 549 q 124 640 111 618 z "},"ﬁ":{"ha":582,"x_min":-154,"x_max":621,"o":"m 110 464 q 56 317 76 375 q 25 229 35 260 q 29 230 26 229 q 35 231 32 231 q 93 238 54 233 q 178 260 132 242 q 272 316 225 278 q 353 424 318 354 q 361 426 356 429 q 365 423 363 425 q 365 418 367 421 q 281 307 329 346 q 185 249 233 268 q 97 226 138 231 q 38 218 57 221 l 36 218 q 83 164 65 194 q 110 99 100 133 q 121 26 119 64 q 121 -47 122 -11 q 96 -151 117 -100 q 46 -243 75 -201 q -17 -313 17 -285 q -79 -349 -50 -342 q -129 -337 -108 -356 q -154 -265 -150 -318 q -142 -176 -154 -237 q -106 -32 -129 -115 q -53 151 -83 51 q 14 354 -22 250 q 77 541 43 447 q 145 719 111 635 q 215 877 179 804 q 283 1002 250 950 q 344 1082 315 1054 q 399 1106 374 1110 q 433 1065 422 1101 q 435 971 443 1028 q 393 827 422 901 q 322 685 364 753 q 226 559 279 617 q 110 464 172 501 m 113 475 q 219 565 168 507 q 313 694 271 624 q 383 838 354 764 q 421 972 411 911 q 423 1046 428 1017 q 401 1078 418 1075 q 358 1040 385 1079 q 301 940 332 1001 q 240 803 271 878 q 182 662 208 729 q 137 542 156 594 q 113 475 118 490 m 24 215 q 8 171 19 203 q -17 97 -3 139 q -47 4 -31 54 q -76 -95 -62 -46 q -100 -188 -90 -144 q -112 -264 -110 -232 q -103 -326 -117 -311 q -66 -333 -89 -342 q -15 -297 -43 -325 q 40 -230 14 -269 q 85 -142 67 -190 q 108 -47 104 -94 q 108 26 110 -11 q 97 97 106 63 q 70 162 88 132 q 24 215 53 192 m 531 774 q 563 772 549 778 q 581 756 578 767 q 570 731 582 743 q 539 715 558 719 q 506 717 519 711 q 489 735 492 722 q 499 758 486 746 q 531 774 511 769 m 461 640 q 492 644 483 643 q 506 645 501 644 q 515 647 511 646 q 535 649 519 647 q 511 597 528 635 q 473 512 494 560 q 431 411 451 464 q 397 314 410 358 q 382 240 383 269 q 397 207 381 210 q 430 219 408 204 q 486 271 451 233 q 553 351 519 307 q 608 424 586 394 q 615 425 613 431 q 618 417 621 424 q 564 344 597 389 q 496 261 531 299 q 447 217 476 242 q 388 190 418 192 q 343 210 358 190 q 326 265 326 231 q 335 339 325 299 q 360 423 344 379 q 395 508 376 467 q 432 583 414 549 q 461 640 450 618 z "},"":{"ha":514,"x_min":-761,"x_max":553,"o":"m 383 597 l 400 632 q 433 636 425 635 q 445 638 442 638 q 453 638 449 638 q 472 640 457 639 q 451 599 465 626 q 421 538 438 572 q 386 465 404 504 q 351 386 368 425 q 333 331 342 361 q 319 274 324 300 q 316 228 314 247 q 331 207 318 210 q 363 219 342 204 q 418 271 383 235 q 485 352 451 308 q 539 425 518 396 q 550 426 544 428 q 552 422 553 424 q 551 417 551 419 q 497 344 531 389 q 426 263 463 300 q 381 218 408 243 q 321 192 353 193 q 274 213 286 190 q 261 267 261 236 q 269 331 261 299 q 282 379 276 363 q 253 327 271 358 q 213 267 235 296 q 165 217 190 238 q 115 196 140 196 q 45 216 71 196 q 9 269 19 236 q 3 345 -1 303 q 26 431 8 388 q 46 470 35 450 q 72 510 57 490 q -57 417 10 464 q -190 329 -124 369 q -322 260 -257 289 q -444 218 -386 231 q -567 214 -511 206 q -662 246 -622 222 q -719 290 -697 263 q -750 350 -740 318 q -760 422 -761 383 q -743 501 -758 461 q -606 693 -712 596 q -599 697 -603 696 q -593 694 -594 697 q -592 688 -590 692 q -596 681 -593 685 q -679 590 -646 636 q -729 500 -712 544 q -744 426 -743 463 q -736 360 -746 390 q -656 258 -712 294 q -443 235 -572 211 q -312 281 -382 247 q -169 359 -242 314 q -25 456 -97 404 q 114 557 47 508 l 133 571 l 132 569 q 210 616 168 599 q 297 632 253 633 q 342 622 315 631 q 383 597 368 614 m 379 586 q 347 611 371 601 q 303 618 322 621 q 235 591 267 613 q 178 540 204 569 q 132 478 153 511 q 96 415 111 444 q 76 364 88 399 q 63 294 65 329 q 71 233 60 260 q 118 207 82 207 q 274 383 174 207 q 326 483 301 432 q 379 586 351 535 z "},"":{"ha":425,"x_min":-528,"x_max":463,"o":"m -10 318 q 19 410 -4 351 q 74 538 42 468 q 144 685 106 608 q 221 835 183 763 q 292 972 258 908 q 349 1078 326 1035 q 210 977 282 1029 q 65 881 138 925 q -78 802 -8 836 q -211 756 -149 768 q -333 751 -278 743 q -428 783 -387 760 q -484 828 -462 800 q -515 888 -506 856 q -526 960 -528 921 q -508 1039 -524 999 q -371 1231 -478 1133 q -364 1234 -368 1233 q -358 1232 -360 1235 q -362 1218 -356 1228 q -445 1128 -412 1174 q -494 1038 -478 1082 q -511 964 -510 1000 q -501 897 -512 928 q -421 796 -478 832 q -211 772 -339 749 q -79 818 -149 785 q 63 897 -10 851 q 208 994 136 942 q 349 1094 281 1046 l 364 1104 q 395 1110 386 1108 q 408 1111 404 1111 q 415 1112 411 1111 q 433 1114 419 1113 q 361 967 404 1051 q 271 792 318 882 q 181 618 224 703 q 108 471 138 533 q 139 519 122 493 q 174 566 156 544 q 214 602 193 588 q 256 617 235 617 q 333 594 306 618 q 368 531 361 569 q 365 445 375 493 q 329 351 354 397 q 278 279 308 313 q 211 222 249 246 q 280 252 249 235 q 340 294 311 269 q 396 351 368 319 q 453 424 424 383 q 460 425 457 431 q 463 417 463 424 q 331 271 399 325 q 165 197 263 217 q 120 184 143 189 q 74 181 97 179 q 21 192 40 182 q -8 221 1 203 q -16 264 -17 239 q -10 318 -15 289 m 46 310 q 35 267 39 289 q 33 228 32 244 q 42 201 33 211 q 68 194 50 192 q 123 215 96 199 q 175 254 150 231 q 222 308 200 278 q 261 371 243 339 q 296 454 283 413 q 309 530 308 496 q 296 585 310 564 q 251 606 282 606 q 213 589 233 606 q 171 545 192 572 q 130 485 150 518 q 93 419 110 451 q 64 357 76 386 q 46 310 51 328 z "},"":{"ha":358,"x_min":-761,"x_max":396,"o":"m 19 415 q 39 460 26 438 q 67 506 51 483 q -62 414 4 460 q -194 328 -128 368 q -324 260 -260 289 q -444 218 -387 231 q -567 214 -511 206 q -662 246 -622 222 q -719 290 -697 263 q -750 350 -740 318 q -760 422 -761 383 q -743 501 -758 461 q -606 693 -712 596 q -599 697 -603 696 q -593 694 -594 697 q -592 688 -590 692 q -596 681 -593 685 q -679 590 -646 636 q -729 500 -712 544 q -744 426 -743 463 q -736 360 -746 390 q -656 258 -712 294 q -443 235 -572 211 q -313 280 -382 247 q -174 356 -244 313 q -32 451 -103 400 q 106 550 39 501 q 165 600 133 579 q 230 630 197 621 q 294 632 263 639 q 354 597 326 625 q 350 592 354 594 q 344 590 346 589 q 313 613 335 604 q 272 618 290 621 q 213 590 240 613 q 163 536 185 567 q 123 473 140 506 q 94 415 106 440 q 72 342 82 386 q 64 263 61 299 q 90 209 67 226 q 167 213 113 192 q 247 263 207 228 q 313 331 286 297 q 353 381 335 357 q 383 425 371 406 q 393 426 388 429 q 396 417 396 424 q 365 375 383 400 q 324 322 346 350 q 253 250 292 283 q 169 201 214 217 q 76 194 113 182 q 21 240 39 207 q 3 320 3 274 q 19 415 3 367 z "},"":{"ha":496,"x_min":-761,"x_max":658,"o":"m 379 619 q 431 741 400 669 q 492 885 461 813 q 550 1018 524 957 q 589 1107 576 1079 q 621 1111 613 1110 q 633 1113 629 1113 q 640 1113 636 1113 q 658 1115 643 1114 l 454 640 q 438 599 449 626 q 412 538 426 572 q 382 465 397 504 q 354 386 367 425 q 339 331 346 361 q 329 274 332 300 q 330 228 326 247 q 346 207 333 210 q 377 219 357 204 q 429 271 397 235 q 481 352 460 308 q 522 425 501 396 q 532 426 526 429 q 535 417 535 424 q 492 344 514 389 q 439 263 471 300 q 395 218 422 243 q 338 192 368 193 q 290 213 304 190 q 273 267 275 236 q 275 331 271 299 q 283 379 279 363 q 258 327 274 358 q 223 267 243 296 q 180 217 203 238 q 132 196 157 196 q 60 216 88 196 q 19 269 32 236 q 8 345 7 303 q 24 431 10 388 q 38 465 29 447 q 57 499 46 482 q -69 408 -4 453 q -198 325 -133 364 q -326 258 -262 286 q -444 218 -389 231 q -567 214 -511 206 q -662 246 -622 222 q -719 290 -697 263 q -750 350 -740 318 q -760 422 -761 383 q -743 501 -758 461 q -606 693 -712 596 q -599 697 -603 696 q -593 694 -594 697 q -592 688 -590 692 q -596 681 -593 685 q -679 590 -646 636 q -729 500 -712 544 q -744 426 -743 463 q -736 360 -746 390 q -656 258 -712 294 q -443 235 -572 211 q -318 278 -385 247 q -183 351 -251 308 q -46 442 -114 393 q 86 538 22 490 q 174 607 125 579 q 282 632 224 635 q 326 623 299 632 q 369 599 354 614 l 379 619 m 365 586 q 332 611 357 601 q 288 618 307 621 q 222 591 251 613 q 169 540 193 569 q 127 478 146 511 q 96 415 108 444 q 81 364 89 399 q 72 294 72 329 q 85 233 72 260 q 135 207 99 207 q 276 383 188 207 q 322 483 301 432 q 365 586 343 535 z "},"":{"ha":361,"x_min":-761,"x_max":401,"o":"m 21 415 q 39 460 28 439 q 64 503 50 482 q -64 412 1 457 q -195 327 -129 367 q -324 259 -261 288 q -444 218 -387 231 q -567 214 -511 206 q -662 246 -622 222 q -719 290 -697 263 q -750 350 -740 318 q -760 422 -761 383 q -743 501 -758 461 q -606 693 -712 596 q -599 697 -603 696 q -593 694 -594 697 q -592 688 -590 692 q -596 681 -593 685 q -679 590 -646 636 q -729 500 -712 544 q -744 426 -743 463 q -736 360 -746 390 q -656 258 -712 294 q -443 235 -572 211 q -316 278 -383 247 q -179 353 -249 310 q -41 445 -110 396 q 93 543 28 494 q 153 593 121 571 q 225 626 185 615 q 271 633 250 633 q 313 627 293 633 q 344 609 332 621 q 361 580 357 597 q 357 539 365 563 q 317 487 346 507 q 251 456 288 467 q 176 445 214 446 q 113 451 139 444 q 92 402 103 432 q 74 341 81 372 q 65 280 67 310 q 74 230 64 250 q 106 203 83 210 q 168 213 128 197 q 232 249 201 225 q 290 303 263 274 q 342 365 318 333 q 386 425 365 397 q 397 426 393 431 q 399 418 401 422 q 351 355 378 389 q 296 290 325 321 q 234 233 267 258 q 168 196 201 208 q 73 190 110 176 q 19 238 36 204 q 3 319 3 272 q 21 415 4 367 m 235 604 q 167 540 199 581 q 119 464 136 499 q 178 459 143 458 q 247 469 213 460 q 308 496 281 478 q 344 543 336 514 q 346 587 354 569 q 320 612 338 604 q 279 618 303 619 q 235 604 256 617 z "},"":{"ha":314,"x_min":-843,"x_max":429,"o":"m 96 464 q 42 317 63 375 q 11 229 21 260 q 15 230 13 229 q 21 231 18 231 q 79 238 40 233 q 165 260 118 242 q 258 316 211 278 q 339 424 304 354 q 347 426 342 429 q 351 423 349 425 q 351 418 353 421 q 267 307 315 346 q 172 249 219 268 q 83 226 124 231 q 24 218 43 221 l 22 218 q 69 164 51 194 q 96 99 86 133 q 107 26 106 64 q 107 -47 108 -11 q 82 -151 103 -100 q 32 -243 61 -201 q -31 -313 3 -285 q -93 -349 -64 -342 q -143 -337 -122 -356 q -168 -265 -164 -318 q -156 -176 -168 -237 q -120 -32 -143 -115 q -67 151 -97 51 q 0 354 -36 250 l 19 419 q -115 321 -46 371 q -256 228 -185 271 q -395 152 -326 185 q -526 107 -464 119 q -648 103 -593 94 q -744 135 -703 111 q -799 179 -778 151 q -831 239 -821 207 q -841 311 -843 272 q -824 390 -839 350 q -774 485 -808 436 q -686 582 -740 533 q -679 585 -683 585 q -674 583 -675 586 q -678 569 -671 579 q -760 479 -728 525 q -810 389 -793 433 q -818 249 -837 311 q -736 147 -794 185 q -525 124 -654 101 q -394 169 -464 136 q -253 246 -325 201 q -109 342 -181 290 q 28 442 -37 393 q 119 693 71 571 q 216 909 168 815 q 308 1058 264 1003 q 385 1106 351 1113 q 419 1065 408 1101 q 421 971 429 1028 q 379 827 408 901 q 308 685 350 753 q 212 559 265 617 q 96 464 158 501 m 10 215 q -6 171 6 203 q -31 97 -17 139 q -60 4 -44 54 q -90 -95 -76 -46 q -114 -188 -104 -144 q -126 -264 -124 -232 q -117 -326 -131 -311 q -80 -333 -103 -342 q -28 -297 -57 -325 q 26 -230 0 -269 q 72 -142 53 -190 q 94 -47 90 -94 q 94 26 96 -11 q 83 97 92 63 q 56 162 74 132 q 10 215 39 192 m 99 485 q 206 574 154 517 q 299 699 257 631 q 369 839 340 767 q 407 972 397 911 q 409 1046 414 1017 q 388 1078 404 1075 q 344 1041 371 1079 q 288 942 318 1003 q 226 808 257 882 q 169 669 196 735 q 124 551 143 603 q 99 485 104 500 z "},"":{"ha":513,"x_min":-776,"x_max":556,"o":"m 281 375 q 263 326 274 356 q 235 269 251 297 q 189 215 214 233 q 138 193 164 196 q 88 203 113 190 q 43 243 63 215 q 15 327 19 278 q 21 426 10 376 q 40 478 28 453 q 67 528 51 504 q -64 433 4 481 q -201 344 -132 385 q -335 272 -269 303 q -460 229 -401 242 q -582 225 -526 217 q -678 257 -637 233 q -733 301 -711 274 q -765 361 -754 329 q -775 433 -776 394 q -758 513 -774 472 q -708 607 -743 558 q -619 704 -672 656 q -612 708 -617 707 q -606 706 -608 708 q -610 692 -604 703 q -694 601 -660 647 q -744 511 -728 556 q -759 438 -758 474 q -750 371 -760 401 q -671 269 -729 307 q -458 246 -586 224 q -326 292 -396 258 q -184 370 -257 325 q -39 467 -111 415 q 100 568 33 519 l 108 575 q 172 615 136 600 q 249 628 207 629 q 296 619 267 628 q 342 594 325 610 q 347 611 344 603 q 351 629 350 619 q 387 632 368 631 q 421 636 406 633 q 364 419 392 528 q 304 203 336 311 q 367 243 333 217 q 433 300 400 269 q 493 363 465 331 q 540 424 521 396 q 550 424 544 428 q 551 417 556 421 q 501 353 532 388 q 436 285 471 318 q 365 226 401 253 q 299 185 329 199 q 229 -19 265 79 q 157 -194 193 -117 q 87 -322 121 -271 q 22 -385 53 -374 q -34 -376 -11 -397 q -65 -310 -57 -354 q -62 -206 -72 -267 q -19 -78 -53 -144 q 73 54 14 -12 q 221 175 132 121 q 253 274 236 219 q 281 375 269 329 m 338 582 q 302 607 328 597 q 260 614 276 617 q 198 587 225 608 q 151 536 171 565 q 115 474 131 507 q 90 411 100 440 q 83 385 86 401 q 78 348 79 368 q 77 307 76 328 q 82 267 78 286 q 111 212 93 225 q 150 205 129 199 q 192 233 171 211 q 228 283 213 254 q 250 326 239 303 q 272 379 261 350 q 307 479 292 428 q 338 582 322 531 m 217 156 q 80 38 133 103 q -3 -90 26 -26 q -41 -210 -32 -153 q -44 -304 -50 -267 q -23 -355 -39 -342 q 13 -344 -7 -368 q 44 -296 26 -329 q 81 -218 63 -262 q 119 -123 100 -174 q 156 -22 139 -72 q 190 74 174 28 q 217 156 206 121 z "},"":{"ha":451,"x_min":-589,"x_max":493,"o":"m 385 1126 l 139 540 q 177 573 156 554 q 222 608 199 592 q 270 633 246 624 q 315 638 294 642 q 357 599 343 633 q 365 561 364 581 q 363 521 365 542 q 325 392 350 454 q 285 267 300 331 q 282 251 283 260 q 281 232 281 242 q 285 215 282 222 q 297 207 289 208 q 342 232 315 204 q 395 298 368 260 q 444 373 422 336 q 478 425 467 410 q 488 426 482 431 q 490 417 493 422 q 449 356 472 393 q 401 281 426 318 q 346 218 375 244 q 286 190 317 192 q 240 208 253 189 q 226 260 226 228 q 236 333 226 293 q 259 410 246 372 q 285 481 272 449 q 304 529 299 513 q 319 572 313 553 q 324 601 325 590 q 313 621 325 617 q 269 615 296 628 q 215 582 243 603 q 161 538 186 561 q 124 501 136 515 l 3 194 l -64 196 l 117 658 l 296 1083 q 154 981 228 1033 q 7 883 81 929 q -138 803 -67 838 q -272 756 -210 769 q -394 751 -339 743 q -489 783 -449 760 q -545 828 -524 800 q -576 888 -567 856 q -587 960 -589 921 q -569 1039 -585 999 q -432 1231 -539 1133 q -425 1234 -429 1233 q -419 1232 -421 1235 q -424 1218 -417 1228 q -506 1128 -474 1174 q -556 1038 -539 1082 q -572 964 -571 1000 q -562 897 -574 928 q -482 796 -539 832 q -272 772 -400 749 q -140 818 -210 785 q 2 897 -71 851 q 147 994 75 942 q 288 1094 219 1046 l 306 1108 l 385 1126 z "},"":{"ha":244,"x_min":-772,"x_max":283,"o":"m 124 640 l 197 649 q 174 597 190 635 q 135 512 157 560 q 93 411 114 464 q 59 314 72 358 q 44 240 46 269 q 60 207 43 210 q 92 219 71 204 q 149 271 114 233 q 215 351 182 307 q 271 424 249 394 q 278 425 275 431 q 281 417 283 424 q 226 344 260 389 q 158 261 193 299 q 110 217 139 242 q 50 190 81 192 q 6 210 21 190 q -10 290 -15 239 q 16 400 -4 342 q 63 515 36 458 q 110 613 89 572 q -30 512 43 564 q -176 415 -103 460 q -319 335 -249 369 q -454 288 -390 301 q -577 283 -521 275 q -674 315 -633 292 q -728 360 -706 332 q -761 419 -750 388 q -770 492 -772 453 q -753 571 -768 531 q -703 665 -737 617 q -614 763 -668 714 q -601 764 -610 769 q -606 750 -600 761 q -689 660 -656 706 q -740 569 -722 614 q -746 429 -765 493 q -714 372 -735 397 q -665 328 -693 347 q -454 304 -583 282 q -322 350 -392 317 q -179 428 -251 383 q -35 526 -107 474 q 104 626 38 578 l 124 640 m 193 774 q 226 772 211 778 q 243 756 240 767 q 233 731 244 743 q 201 715 221 719 q 168 717 182 711 q 151 735 154 722 q 161 758 149 746 q 193 774 174 769 z "},"":{"ha":226,"x_min":-818,"x_max":264,"o":"m 89 635 q 124 638 106 636 q 158 642 142 639 q 92 425 124 533 q 28 208 61 317 q 88 248 57 222 q 149 303 119 274 q 206 365 179 333 q 253 424 233 396 q 261 425 256 431 q 264 417 264 424 q 215 354 244 388 q 151 289 185 321 q 84 231 118 257 q 19 190 50 204 q -56 -13 -17 85 q -135 -188 -96 -111 q -212 -317 -175 -265 q -281 -379 -250 -368 q -340 -370 -317 -392 q -371 -305 -364 -349 q -365 -200 -378 -261 q -316 -73 -353 -139 q -215 60 -279 -7 q -57 181 -151 126 q 13 395 -18 288 q 79 610 43 503 l 78 610 q -62 508 11 560 q -208 410 -135 456 q -353 330 -282 364 q -489 282 -425 296 q -611 278 -556 269 q -707 310 -667 286 q -761 354 -739 326 q -794 414 -783 382 q -786 565 -818 483 q -737 660 -771 611 q -647 757 -703 708 q -642 760 -646 760 q -636 758 -639 761 q -639 744 -633 754 q -723 654 -690 700 q -774 564 -756 608 q -779 424 -799 488 q -699 322 -757 358 q -487 299 -617 276 q -355 344 -425 311 q -212 423 -285 378 q -69 520 -140 468 q 69 621 3 572 l 89 635 m -61 161 q -208 44 -150 108 q -300 -84 -267 -21 q -344 -204 -333 -147 q -351 -299 -356 -261 q -331 -349 -347 -336 q -290 -339 -314 -362 q -254 -290 -274 -324 q -214 -212 -235 -257 q -172 -117 -193 -168 q -130 -17 -150 -67 q -92 80 -110 33 q -61 161 -75 126 m 139 768 q 172 767 158 772 q 192 749 186 761 q 186 726 196 738 q 157 710 176 714 q 124 711 139 706 q 103 728 108 717 q 110 752 100 740 q 139 768 119 764 z "},"":{"ha":467,"x_min":-543,"x_max":533,"o":"m 432 1126 l 147 540 l 149 542 q 151 549 149 542 q 242 629 193 588 q 340 704 290 671 q 438 754 389 738 q 529 760 486 771 q 533 753 533 757 q 525 747 532 747 q 459 747 494 756 q 387 719 424 739 q 313 670 350 699 q 240 611 275 642 q 288 634 264 626 q 331 638 311 642 q 369 599 358 633 q 375 561 376 581 q 368 521 374 542 q 348 456 360 488 q 323 392 336 424 q 297 330 310 361 q 275 267 285 299 q 272 251 274 260 q 269 232 269 242 q 272 215 268 222 q 283 207 275 208 q 332 232 301 204 q 395 298 363 260 q 455 373 428 336 q 493 425 482 410 q 503 426 497 431 q 504 417 508 422 q 450 344 483 389 q 381 263 417 300 q 331 217 361 242 q 271 190 301 192 q 224 208 236 189 q 215 260 213 228 q 230 333 217 293 q 259 410 243 372 q 290 481 275 449 q 313 529 306 513 q 328 572 321 553 q 336 601 336 590 q 326 621 338 617 q 283 615 310 628 q 226 582 256 603 q 169 538 196 561 q 129 501 143 515 l -11 194 l -79 196 l 133 658 l 339 1082 q 198 980 271 1032 q 51 883 125 928 q -93 803 -22 838 q -226 756 -164 769 q -348 751 -293 743 q -443 783 -403 760 q -499 828 -478 800 q -531 888 -521 856 q -541 960 -543 921 q -524 1039 -539 999 q -386 1231 -493 1133 q -379 1234 -383 1233 q -374 1232 -375 1235 q -378 1218 -371 1228 q -460 1128 -428 1174 q -510 1038 -493 1082 q -526 964 -525 1000 q -517 897 -528 928 q -436 796 -493 832 q -226 772 -354 749 q -94 818 -164 785 q 48 897 -25 851 q 193 994 121 942 q 333 1094 265 1046 l 351 1108 l 432 1126 z "},"":{"ha":242,"x_min":-568,"x_max":397,"o":"m 326 1111 q 358 1115 350 1114 q 371 1117 367 1117 q 379 1117 375 1117 q 397 1119 383 1118 q 371 1060 393 1111 q 315 936 349 1010 q 244 776 282 863 q 170 608 206 689 q 108 463 135 528 q 71 371 81 399 q 52 310 60 339 q 42 260 44 282 q 44 224 40 238 q 60 208 49 210 q 92 221 71 206 q 146 272 113 236 q 211 350 179 308 q 265 421 243 392 q 277 428 274 432 q 278 417 281 424 q 223 345 257 389 q 154 264 189 301 q 110 219 139 244 q 50 193 81 194 q 22 197 32 192 q 3 211 11 201 q -12 284 -15 239 q 7 382 -8 329 q 35 457 14 404 q 86 578 57 510 q 149 722 115 646 q 214 869 182 799 q 272 997 246 939 q 313 1085 299 1054 q 173 983 246 1035 q 27 885 100 931 q -117 806 -46 840 q -251 758 -187 772 q -374 754 -318 746 q -469 786 -429 763 q -524 831 -503 803 q -557 890 -546 858 q -567 963 -568 924 q -550 1042 -565 1001 q -499 1136 -535 1088 q -411 1233 -464 1185 q -397 1235 -404 1240 q -401 1221 -396 1232 q -485 1131 -451 1176 q -536 1040 -519 1085 q -542 900 -561 964 q -461 799 -519 835 q -250 775 -379 753 q -119 821 -189 788 q 24 899 -49 854 q 169 997 96 944 q 308 1097 242 1049 l 326 1111 z "},"":{"ha":649,"x_min":-782,"x_max":686,"o":"m 176 251 q 251 432 224 365 q 293 534 279 499 q 311 581 307 569 q 317 599 315 593 q 307 618 317 613 q 268 615 292 624 q 218 588 244 606 q 166 550 192 571 q 122 513 140 529 q 88 424 106 471 q 52 332 69 376 q 21 249 35 288 q -1 183 7 210 l -67 181 q -32 276 -54 215 q 15 401 -10 336 q 62 527 39 467 q 100 622 85 588 q -40 520 33 572 q -185 423 -112 468 q -330 344 -258 378 q -465 296 -401 310 q -587 292 -532 283 q -683 324 -643 300 q -739 368 -717 340 q -771 428 -761 396 q -781 500 -782 461 q -764 579 -779 539 q -714 674 -749 625 q -625 771 -679 722 q -619 774 -622 774 q -614 772 -615 775 q -617 758 -610 768 q -700 668 -667 714 q -750 578 -733 622 q -756 438 -778 501 q -676 336 -735 374 q -464 313 -593 289 q -332 358 -401 325 q -190 437 -262 392 q -46 534 -118 482 q 93 635 26 586 l 113 649 l 181 657 q 165 619 178 649 q 138 550 153 590 q 176 578 154 563 q 222 608 199 594 q 269 630 246 622 q 310 635 293 638 q 345 607 338 631 q 356 561 353 583 q 392 590 372 575 q 433 617 413 606 q 473 633 453 628 q 510 635 493 639 q 547 596 536 631 q 546 518 560 563 q 526 453 538 485 q 501 390 514 421 q 475 327 488 358 q 453 264 463 296 q 449 248 451 257 q 447 229 447 239 q 451 213 447 219 q 463 204 454 206 q 511 229 481 201 q 574 295 542 257 q 635 370 607 333 q 674 422 663 407 q 681 424 676 428 q 682 414 686 419 q 639 353 665 390 q 581 278 613 315 q 515 215 549 242 q 451 188 481 189 q 404 206 417 186 q 394 258 392 225 q 408 330 396 290 q 437 408 421 369 q 468 478 453 446 q 490 526 483 510 q 507 569 500 550 q 515 599 514 588 q 507 618 515 613 q 476 617 494 624 q 436 599 457 611 q 393 571 415 588 q 351 539 371 554 q 336 473 349 513 q 308 392 324 433 q 275 313 292 351 q 249 251 258 275 l 176 251 z "},"":{"ha":450,"x_min":-781,"x_max":489,"o":"m -65 181 q -31 276 -53 215 q 16 401 -8 336 q 63 527 40 467 q 101 622 86 588 q -38 520 35 572 q -184 423 -111 468 q -328 344 -257 378 q -464 296 -400 310 q -586 292 -531 283 q -682 324 -642 300 q -737 368 -715 340 q -769 428 -760 396 q -779 500 -781 461 q -762 579 -778 539 q -712 674 -747 625 q -624 771 -678 722 q -617 774 -621 774 q -612 772 -614 775 q -615 758 -608 768 q -699 668 -665 714 q -749 578 -732 622 q -754 438 -776 501 q -675 336 -733 374 q -462 313 -592 289 q -331 358 -400 325 q -189 437 -261 392 q -44 534 -117 482 q 94 635 28 586 l 114 649 l 182 657 q 167 619 179 649 q 139 550 154 590 q 178 578 156 563 q 224 608 200 594 q 271 630 247 622 q 311 635 294 638 q 350 596 339 631 q 349 518 363 563 q 303 390 333 451 q 254 264 274 328 q 251 248 253 257 q 250 229 250 239 q 253 213 250 219 q 264 204 256 206 q 313 229 282 201 q 376 295 343 257 q 436 370 408 333 q 475 422 464 407 q 483 424 478 428 q 485 414 489 419 q 431 342 465 386 q 363 260 396 297 q 313 214 342 239 q 253 188 283 189 q 206 206 218 186 q 197 258 194 225 q 211 330 199 290 q 240 408 224 369 q 271 478 256 446 q 293 526 286 510 q 309 569 303 550 q 318 599 315 588 q 308 618 318 613 q 269 615 293 624 q 219 588 246 606 q 167 550 193 571 q 124 513 142 529 q 89 424 107 471 q 53 332 71 376 q 22 249 36 288 q 0 183 8 210 l -65 181 z "},"":{"ha":454,"x_min":-762,"x_max":492,"o":"m 296 342 q 398 357 349 335 q 481 422 447 379 q 485 424 483 425 q 489 421 488 422 q 492 417 490 418 q 455 376 476 394 q 406 347 433 358 q 350 330 379 335 q 292 329 321 325 l 289 329 q 226 250 263 285 q 146 200 190 215 q 61 194 94 182 q 12 235 28 206 q -4 306 -4 264 q 11 392 -4 349 q 56 479 25 436 q -71 390 -6 435 q -201 306 -136 344 q -328 240 -265 268 q -446 200 -390 213 q -568 196 -512 188 q -664 228 -624 204 q -719 272 -697 244 q -750 332 -740 300 q -760 404 -762 365 q -743 483 -758 443 q -694 578 -728 529 q -606 675 -660 626 q -599 678 -603 678 q -593 676 -594 679 q -592 670 -590 674 q -597 663 -594 667 q -680 572 -647 618 q -731 482 -712 526 q -746 408 -744 444 q -737 342 -747 372 q -656 240 -714 278 q -446 217 -575 193 q -318 261 -386 229 q -180 336 -250 293 q -39 429 -110 379 q 97 528 32 479 q 163 570 125 551 q 239 588 201 589 q 294 573 271 588 q 326 529 317 558 q 328 437 338 486 q 296 342 319 388 m 314 525 q 287 564 307 549 q 239 575 267 579 q 178 542 208 569 q 124 476 149 515 q 79 392 96 436 q 58 326 68 365 q 51 255 49 288 q 74 206 53 222 q 143 210 94 190 q 218 258 183 225 q 279 332 253 290 q 226 351 251 338 q 181 383 200 364 q 153 428 163 403 q 146 486 143 454 q 151 496 146 492 q 161 501 156 500 q 171 499 167 501 q 175 490 175 497 q 285 343 163 365 q 317 435 308 388 q 314 525 326 483 z "},"":{"ha":438,"x_min":-828,"x_max":478,"o":"m 79 604 q 116 610 96 607 q 153 618 136 614 q 128 538 140 578 q 104 458 115 499 q 125 505 113 481 q 152 549 138 529 q 183 583 167 569 q 219 599 200 597 q 301 583 269 604 q 346 524 332 561 q 357 438 360 486 q 336 342 354 389 q 299 265 324 303 q 242 199 275 226 q 359 286 304 232 q 463 425 414 340 q 472 426 467 429 q 476 417 478 421 q 430 349 457 383 q 372 281 403 314 q 306 219 340 247 q 238 172 272 190 q 183 151 213 158 q 124 143 153 143 q 69 152 94 143 q 29 182 44 161 q -22 27 1 100 q -67 -114 -44 -46 q -110 -247 -89 -182 q -157 -379 -132 -312 l -226 -383 q -148 -136 -187 -262 q -71 115 -108 -10 q 3 357 -33 239 q 72 581 39 475 l 68 579 q -72 477 1 529 q -218 379 -144 425 q -363 299 -292 333 q -499 251 -435 265 q -621 247 -565 239 q -717 279 -676 256 q -772 324 -750 296 q -804 383 -794 351 q -796 535 -828 453 q -658 726 -768 629 q -646 728 -651 733 q -645 722 -643 725 q -650 714 -647 718 q -733 624 -700 669 q -783 533 -765 578 q -790 393 -810 456 q -708 292 -767 329 q -499 268 -626 244 q -366 314 -436 281 q -223 392 -296 347 q -78 490 -150 438 q 60 590 -7 542 l 79 604 m 61 278 q 65 193 54 218 q 94 168 75 168 q 140 187 114 168 q 190 235 165 206 q 235 297 215 264 q 265 356 256 329 q 285 442 279 399 q 287 518 292 485 q 265 571 282 551 q 217 589 247 590 q 163 548 189 586 q 116 459 138 510 q 80 357 94 408 q 61 278 65 306 z "},"":{"ha":617,"x_min":-761,"x_max":654,"o":"m 300 271 l 311 271 q 364 270 328 271 q 446 282 400 269 q 543 325 492 294 q 640 418 594 356 q 649 422 643 424 q 654 417 654 421 q 589 343 621 369 q 522 297 557 317 q 424 265 476 274 q 310 258 372 257 q 374 128 364 203 q 374 -21 385 53 q 341 -121 365 -72 q 284 -208 317 -169 q 215 -269 251 -246 q 149 -297 179 -293 q 101 -278 119 -300 q 82 -203 82 -256 q 95 -126 82 -176 q 131 -6 108 -75 q 183 145 153 63 q 251 318 214 228 q 220 271 236 296 q 184 227 204 246 q 139 199 164 208 q 82 199 114 190 q 33 228 51 207 q 8 280 15 250 q 5 345 1 310 q 21 417 8 381 q 72 514 38 465 q -57 421 10 468 q -190 334 -124 374 q -322 265 -257 294 q -444 224 -386 236 q -567 219 -511 211 q -662 251 -622 228 q -718 296 -696 268 q -750 356 -740 324 q -760 428 -761 389 q -743 507 -758 467 q -693 601 -728 553 q -604 699 -658 650 q -598 702 -601 701 q -592 700 -594 703 q -596 686 -589 696 q -679 596 -646 642 q -729 506 -712 550 q -735 365 -757 429 q -656 264 -714 301 q -443 240 -571 218 q -311 286 -381 253 q -169 365 -242 319 q -25 462 -97 410 q 114 563 47 514 l 122 568 q 197 614 157 597 q 286 629 238 631 q 331 621 304 629 q 374 597 357 613 q 381 614 376 606 q 389 631 385 622 q 427 633 407 631 q 467 639 447 636 l 439 583 q 368 427 403 504 q 300 271 333 350 m 293 257 q 274 215 288 244 q 244 144 261 185 q 207 54 226 103 q 170 -42 188 6 q 139 -132 153 -89 q 121 -207 125 -175 q 127 -272 114 -254 q 165 -283 140 -289 q 219 -254 189 -278 q 279 -194 250 -231 q 331 -112 308 -158 q 361 -19 353 -67 q 367 54 367 17 q 361 128 368 92 q 338 197 354 164 q 293 257 321 229 m 368 586 q 335 609 358 600 q 292 615 311 618 q 230 593 260 611 q 174 548 200 575 q 127 487 149 521 q 92 418 106 453 q 69 353 76 385 q 60 294 61 321 q 67 245 60 267 q 92 214 75 224 q 148 213 119 196 q 201 260 176 229 q 244 326 225 292 q 272 381 263 361 q 322 482 300 429 q 368 586 343 535 z "},"":{"ha":415,"x_min":-669,"x_max":458,"o":"m 157 669 q 140 701 147 685 q 132 732 132 717 q 153 775 133 758 q 197 795 174 792 q 238 788 221 799 q 251 749 256 776 q 242 720 249 735 q 226 691 235 706 q 208 664 217 676 q 193 643 199 651 q 252 585 226 603 q 290 551 278 567 q 299 510 303 535 q 271 432 296 486 q 244 370 258 404 q 219 303 231 336 q 203 245 208 271 q 207 208 199 219 q 219 201 211 201 q 242 207 228 200 q 277 230 257 214 q 324 274 297 246 q 390 355 357 311 q 444 428 424 399 q 454 428 450 433 q 454 419 458 424 q 401 347 435 392 q 332 265 367 303 q 233 188 275 203 q 169 194 190 172 q 149 268 147 215 q 181 394 151 321 q 223 493 208 463 q 238 541 238 524 q 225 574 239 558 q 182 631 211 590 q 63 505 125 569 q -62 382 1 440 q -188 277 -125 324 q -311 206 -251 231 q -431 178 -374 181 q -531 189 -487 175 q -595 222 -568 200 q -639 274 -622 244 q -663 342 -657 303 q -661 421 -669 381 q -562 635 -650 519 q -557 639 -561 638 q -550 639 -553 640 q -549 633 -547 636 q -551 624 -550 629 q -616 519 -593 571 q -647 422 -639 468 q -649 348 -654 383 q -628 285 -643 313 q -526 203 -592 228 q -314 222 -439 174 q -192 292 -254 246 q -67 397 -129 339 q 56 518 -4 454 q 174 642 117 582 l 157 669 m 185 654 q 197 672 189 661 q 214 697 206 683 q 229 723 222 710 q 239 749 236 736 q 229 778 243 769 q 197 783 215 786 q 162 767 178 779 q 146 733 146 754 q 159 689 144 710 q 185 654 174 668 z "},"":{"ha":304,"x_min":-746,"x_max":346,"o":"m 142 581 q 185 634 160 615 q 233 658 210 653 q 274 658 257 664 q 296 635 292 651 q 278 592 303 617 q 269 592 272 586 q 269 601 264 596 q 285 629 286 618 q 273 642 285 640 q 244 635 261 644 q 213 604 226 626 q 196 530 192 571 q 207 454 200 489 q 220 360 218 406 q 190 260 222 314 q 176 242 183 251 q 163 225 169 233 q 184 243 174 232 q 208 269 194 254 q 276 351 243 307 q 332 424 310 394 q 339 425 335 429 q 342 415 346 419 q 288 343 321 388 q 218 261 254 299 q 174 223 200 242 q 121 192 149 204 q 65 178 93 179 q 13 196 36 178 q -11 236 -10 214 q -1 281 -12 258 q 28 324 10 304 q 64 357 47 344 q 74 356 72 360 q 72 346 79 353 q 42 317 58 335 q 14 281 25 300 q 2 242 3 261 q 21 207 1 222 q 53 199 36 196 q 85 214 69 203 q 114 240 101 225 q 133 268 126 256 q 156 314 149 292 q 163 358 163 336 q 160 401 164 381 q 153 444 157 422 q 144 497 149 468 q 138 563 139 525 q -2 460 71 513 q -149 363 -75 408 q -293 283 -222 317 q -428 235 -364 249 q -551 231 -494 222 q -647 263 -607 239 q -702 307 -681 279 q -735 367 -724 335 q -744 439 -746 400 q -728 518 -743 478 q -677 613 -712 564 q -589 710 -642 661 q -575 711 -582 717 q -579 697 -574 708 q -662 607 -629 653 q -714 517 -696 561 q -719 376 -739 440 q -639 275 -699 314 q -428 251 -557 229 q -295 297 -365 264 q -151 376 -225 331 q -3 476 -78 422 q 142 581 71 529 z "},"":{"ha":242,"x_min":-565,"x_max":772,"o":"m 397 1106 l 326 946 l 772 947 l 771 935 l 322 933 q 251 775 289 861 q 178 609 213 689 q 115 465 143 529 q 78 372 88 400 q 58 311 67 340 q 47 260 50 282 q 47 224 43 238 q 61 208 50 210 q 93 221 72 206 q 149 272 114 236 q 213 350 181 308 q 267 421 244 392 q 279 428 275 432 q 281 417 283 424 q 224 345 258 389 q 156 264 190 301 q 111 219 140 244 q 51 193 82 194 q 6 211 21 192 q -10 284 -14 239 q 8 382 -7 329 q 42 469 17 407 q 103 611 68 532 q 177 776 139 690 q 249 933 215 863 l 114 933 q -74 819 19 869 q -249 751 -167 768 q -371 747 -315 739 q -467 779 -426 756 q -522 824 -500 796 q -554 883 -543 851 q -564 956 -565 917 q -547 1035 -562 994 q -497 1129 -532 1081 q -408 1226 -461 1178 q -396 1228 -401 1233 q -399 1214 -393 1224 q -483 1124 -450 1169 q -533 1033 -517 1078 q -548 960 -547 996 q -539 893 -549 924 q -460 792 -518 831 q -247 768 -376 744 q -85 828 -172 783 q 89 933 1 874 l 74 933 l 74 946 l 107 946 q 211 1018 160 982 q 311 1090 263 1054 l 331 1104 l 328 1097 q 357 1100 349 1099 q 369 1102 365 1101 q 378 1103 374 1103 q 397 1106 383 1104 m 253 946 l 313 1075 q 223 1010 269 1043 q 131 946 176 978 l 253 946 z "},"":{"ha":488,"x_min":-772,"x_max":528,"o":"m 124 633 q 155 638 146 636 q 168 640 164 639 q 177 640 172 640 q 196 642 182 640 q 173 591 190 628 q 135 507 156 554 q 93 408 114 460 q 59 313 72 357 q 44 240 46 269 q 58 207 42 210 q 90 219 69 204 q 147 271 111 235 q 213 349 181 307 q 268 422 244 392 q 319 544 292 488 q 367 633 347 600 q 398 638 389 636 q 411 639 407 639 q 419 640 415 639 q 439 642 424 640 q 416 591 433 628 q 378 507 399 554 q 337 408 357 460 q 303 313 317 357 q 289 240 290 269 q 304 207 288 210 q 336 219 315 204 q 393 271 357 235 q 460 352 426 308 q 514 425 493 396 q 524 426 518 429 q 525 417 528 422 q 472 344 506 389 q 401 263 438 300 q 355 218 383 243 q 296 192 326 193 q 250 210 265 190 q 234 283 231 238 q 253 382 238 329 q 208 322 233 354 q 156 263 182 290 q 109 218 138 243 q 50 192 81 193 q 4 210 19 190 q -11 290 -17 239 q 14 398 -6 340 q 60 511 33 456 q 107 606 86 567 q -32 504 40 556 q -177 408 -104 453 q -321 328 -250 363 q -454 281 -392 294 q -578 276 -522 268 q -674 308 -633 285 q -728 353 -707 325 q -761 413 -750 381 q -771 485 -772 446 q -754 564 -769 524 q -703 658 -739 610 q -615 756 -668 707 q -601 757 -608 763 q -606 743 -600 754 q -690 653 -656 699 q -740 563 -724 607 q -755 489 -754 525 q -746 422 -756 453 q -667 321 -725 360 q -454 297 -582 275 q -322 343 -392 310 q -180 422 -253 376 q -35 519 -107 467 q 104 619 38 571 l 124 633 z "},"":{"ha":504,"x_min":-772,"x_max":543,"o":"m 124 640 q 155 644 146 643 q 168 645 164 644 q 177 646 172 646 q 196 647 182 646 q 176 604 190 635 q 143 533 161 574 q 106 447 125 493 q 72 357 88 400 q 49 278 57 314 q 44 224 40 243 q 63 199 49 204 q 97 201 78 193 q 124 217 110 207 q 150 237 138 226 q 172 256 163 247 q 183 269 181 265 q 242 339 214 301 q 293 406 269 376 q 272 509 274 451 q 282 617 269 567 q 303 674 292 649 q 331 719 315 700 q 385 765 357 753 q 432 772 413 778 q 460 740 451 765 q 458 671 468 714 q 438 613 451 646 q 401 540 425 581 q 356 471 378 503 q 308 404 333 439 q 357 351 328 364 q 418 344 386 338 q 480 372 450 350 q 531 425 510 393 l 543 418 q 488 360 521 383 q 419 331 454 338 q 353 339 385 325 q 300 392 321 353 q 250 328 278 364 q 194 261 222 292 q 154 224 179 247 q 99 190 129 201 q 47 183 74 179 q 6 208 21 188 q -10 290 -15 238 q 15 400 -4 342 q 62 515 35 458 q 110 613 89 572 q -30 512 43 564 q -176 415 -103 460 q -319 335 -249 369 q -454 288 -390 301 q -577 283 -521 275 q -674 315 -633 292 q -728 360 -706 332 q -761 419 -750 388 q -770 492 -772 453 q -753 571 -768 531 q -703 665 -737 617 q -614 763 -668 714 q -601 764 -610 769 q -606 750 -600 761 q -689 660 -656 706 q -740 569 -722 614 q -746 429 -765 493 q -714 372 -735 397 q -665 328 -693 347 q -454 304 -583 282 q -322 350 -392 317 q -179 428 -251 383 q -35 526 -107 474 q 104 626 38 578 l 124 640 m 303 417 q 347 481 328 451 q 389 546 367 510 q 425 618 413 586 q 444 674 438 650 q 448 734 454 713 q 426 760 442 756 q 387 751 410 764 q 340 710 364 739 q 314 668 325 692 q 296 614 303 644 q 284 515 283 568 q 303 417 285 461 z "},"":{"ha":749,"x_min":-785,"x_max":788,"o":"m 447 661 q 424 610 439 644 q 390 534 408 576 q 352 445 371 492 q 318 356 333 399 q 294 277 303 313 q 289 224 286 242 q 308 198 293 203 q 342 200 322 193 q 369 216 356 206 q 395 237 383 226 q 415 256 407 247 q 428 269 424 265 q 487 338 458 301 q 538 404 515 375 q 516 508 518 451 q 526 615 514 565 q 576 718 544 678 q 630 765 603 751 q 676 772 657 778 q 704 740 696 765 q 703 671 713 714 q 683 613 696 644 q 646 540 669 581 q 601 470 624 501 q 553 403 578 439 q 603 349 572 365 q 676 347 633 332 q 732 379 707 357 q 776 425 757 401 l 788 417 q 740 369 767 392 q 681 335 713 346 q 599 335 633 319 q 544 392 565 351 q 494 327 522 364 q 439 260 467 290 q 400 224 426 246 q 346 189 374 201 q 292 182 318 178 q 251 208 267 186 q 234 251 236 225 q 236 307 232 276 q 253 381 240 342 q 207 320 233 353 q 156 260 181 288 q 135 238 147 250 q 109 215 124 226 q 79 197 94 204 q 50 189 64 189 q 6 208 19 188 q -11 288 -17 238 q 15 397 -6 339 q 62 510 35 454 q 110 607 89 567 q -30 506 43 558 q -176 409 -103 454 q -320 330 -249 364 q -456 282 -392 296 q -578 278 -522 269 q -674 310 -633 286 q -728 354 -706 326 q -761 414 -750 382 q -753 565 -785 483 q -703 660 -737 611 q -614 757 -669 708 q -609 760 -612 760 q -603 758 -606 761 q -606 744 -600 754 q -690 654 -657 700 q -740 564 -722 608 q -746 424 -765 488 q -665 322 -724 358 q -454 299 -583 276 q -322 344 -392 311 q -180 423 -251 378 q -36 520 -108 468 q 103 621 36 572 l 122 635 q 156 639 147 638 q 170 640 165 640 q 179 641 175 640 q 199 643 183 642 q 174 592 192 629 q 135 508 157 556 q 93 408 114 460 q 59 312 72 356 q 44 238 46 268 q 58 206 42 208 q 91 217 69 203 q 146 269 113 232 q 213 348 181 306 q 265 419 244 390 q 291 483 276 450 q 321 547 306 515 q 349 604 336 578 q 372 650 363 631 l 447 661 m 547 417 q 592 479 571 450 q 635 546 613 508 q 689 674 679 626 q 692 733 699 711 q 670 759 686 754 q 631 751 654 764 q 585 710 608 739 q 559 667 571 690 q 540 614 547 643 q 528 514 528 567 q 547 417 529 461 z "},"":{"ha":481,"x_min":-825,"x_max":521,"o":"m 133 632 q 144 585 138 613 q 157 529 150 558 q 172 471 164 500 q 186 418 179 442 q 406 642 307 532 l 414 632 q 307 521 364 578 q 189 406 250 464 q 237 285 211 339 q 293 219 263 232 q 325 220 308 213 q 357 242 342 228 q 385 271 372 256 q 408 297 399 286 q 467 372 439 335 q 507 424 496 408 q 516 425 511 429 q 518 415 521 421 q 474 356 503 394 q 410 278 444 317 q 342 213 376 240 q 279 186 307 185 q 233 207 254 188 q 196 253 213 226 q 166 311 179 281 q 144 364 153 342 q 43 269 93 315 q -56 179 -7 224 l -61 189 q 37 280 -15 233 q 140 375 89 326 q 119 441 129 404 q 101 513 110 478 q 85 581 92 549 q 74 633 78 613 l 72 635 q 71 636 71 635 l 58 626 q -81 524 -8 576 q -228 426 -154 472 q -373 347 -301 381 q -508 299 -444 313 q -631 294 -575 286 q -726 326 -686 303 q -781 371 -760 343 q -812 431 -803 399 q -823 503 -825 464 q -807 582 -821 542 q -757 676 -792 628 q -668 774 -722 725 q -656 775 -661 781 q -655 769 -653 772 q -660 761 -657 765 q -742 671 -710 717 q -792 581 -775 625 q -808 507 -807 543 q -800 440 -810 471 q -718 339 -779 378 q -508 315 -637 292 q -376 361 -446 328 q -233 440 -306 394 q -88 537 -160 485 q 50 638 -17 589 l 69 651 l 133 632 z "},"":{"ha":479,"x_min":-799,"x_max":519,"o":"m 96 632 l 171 640 q 151 590 165 626 q 122 508 138 554 q 91 411 106 461 q 68 319 76 361 q 61 247 60 276 q 81 215 63 218 q 125 240 97 213 q 181 304 153 267 q 233 378 210 342 q 267 431 257 415 l 268 436 q 299 536 283 486 q 333 635 314 586 q 368 638 350 636 q 403 642 386 639 q 338 425 368 533 q 271 208 307 317 q 333 248 300 222 q 399 303 367 274 q 458 365 431 333 q 506 424 486 396 q 515 426 510 429 q 517 417 519 422 q 467 354 497 388 q 401 289 436 321 q 330 231 367 257 q 263 190 293 204 q 186 -13 225 85 q 108 -188 147 -111 q 33 -317 69 -265 q -33 -379 -3 -368 q -93 -370 -69 -392 q -124 -305 -117 -349 q -119 -200 -132 -261 q -71 -73 -107 -139 q 28 60 -35 -7 q 185 181 92 126 q 219 281 204 231 q 251 382 235 332 q 212 326 232 356 q 171 271 192 296 q 129 226 156 251 q 72 200 103 201 q 28 218 43 199 q 3 297 3 247 q 17 403 3 347 q 51 514 31 460 q 88 607 71 568 q -23 531 29 571 q -128 454 -75 490 q -311 344 -219 392 q -482 279 -403 296 q -603 275 -549 267 q -699 307 -658 283 q -755 351 -733 324 q -786 411 -776 379 q -797 483 -799 444 q -781 563 -796 522 q -730 657 -765 608 q -642 754 -694 706 q -629 756 -633 760 q -632 742 -626 751 q -716 651 -683 697 q -765 561 -749 606 q -782 488 -781 524 q -772 421 -783 451 q -692 319 -751 358 q -481 296 -611 272 q -349 342 -418 308 q -206 420 -279 375 q -61 517 -133 465 q 78 618 11 569 l 96 632 m 179 161 q 35 44 92 108 q -55 -84 -22 -21 q -99 -204 -87 -147 q -105 -299 -110 -261 q -83 -349 -100 -336 q -43 -339 -67 -362 q -8 -290 -28 -324 q 31 -212 11 -257 q 72 -117 51 -168 q 113 -17 93 -67 q 150 80 133 33 q 179 161 167 126 z "},"":{"ha":522,"x_min":-710,"x_max":556,"o":"m 158 672 q 140 703 147 688 q 133 735 132 719 q 154 778 133 761 q 199 798 175 794 q 240 790 222 801 q 253 751 257 779 q 242 723 250 738 q 226 694 235 708 q 209 667 218 679 q 194 646 200 654 q 230 610 211 625 q 265 581 249 596 q 293 547 282 565 q 306 503 304 529 q 288 441 307 475 q 235 343 269 407 q 302 300 274 333 q 326 225 331 267 q 388 267 360 246 q 441 313 415 289 q 492 364 467 338 q 546 419 518 390 l 556 414 q 445 303 499 353 q 324 210 392 254 q 295 103 315 161 q 244 -16 275 44 q 175 -135 214 -76 q 90 -241 136 -193 q -7 -324 44 -289 q -111 -372 -58 -358 q -178 -377 -147 -381 q -228 -358 -208 -374 q -253 -316 -247 -343 q -247 -249 -260 -289 q -165 -101 -221 -164 q -40 10 -110 -39 q 106 99 29 60 q 254 181 183 139 q 263 251 267 225 q 245 290 258 276 q 215 309 232 304 q 185 319 199 314 q 167 331 172 324 q 172 357 161 339 q 222 430 196 396 q 258 500 249 464 q 256 540 263 522 q 238 572 250 557 q 211 603 226 588 q 182 635 196 618 q 37 528 111 582 q -112 428 -37 475 q -258 348 -186 382 q -393 300 -329 314 q -515 296 -460 288 q -611 328 -571 304 q -666 372 -644 344 q -699 432 -687 400 q -708 504 -710 465 q -692 583 -707 543 q -641 678 -676 629 q -553 775 -606 726 q -540 776 -546 782 q -543 763 -539 771 q -627 672 -594 718 q -678 582 -660 626 q -683 442 -706 506 q -604 340 -662 379 q -392 317 -521 293 q -259 363 -329 329 q -116 442 -189 396 q 31 540 -43 488 q 175 644 106 593 q 158 672 165 656 m -118 -335 q 2 -248 -56 -308 q 108 -115 60 -187 q 193 33 157 -42 q 249 165 229 108 q 105 87 179 126 q -37 -1 31 47 q -157 -109 -104 -49 q -236 -250 -210 -169 q -242 -308 -247 -286 q -218 -340 -236 -331 q -174 -349 -200 -350 q -118 -335 -147 -347 m 186 656 q 198 674 190 663 q 214 698 206 685 q 229 725 222 711 q 239 751 236 739 q 229 781 243 772 q 197 785 215 789 q 163 769 179 782 q 147 736 147 757 q 161 691 147 713 q 186 656 175 669 z "},"":{"ha":514,"x_min":-1,"x_max":1199,"o":"m 369 225 q 499 317 432 271 q 632 402 565 363 q 762 472 699 442 q 882 513 825 501 q 1005 517 950 525 q 1100 485 1060 508 q 1156 440 1135 468 q 1188 381 1178 413 q 1197 308 1199 347 q 1181 229 1196 269 q 1043 38 1150 135 q 1029 36 1033 32 q 1028 42 1026 39 q 1033 50 1031 46 q 1117 140 1083 94 q 1167 231 1150 186 q 1183 304 1182 268 q 1174 371 1183 340 q 1093 472 1150 436 q 882 496 1010 519 q 760 456 824 485 q 631 388 696 428 q 499 303 565 349 q 368 210 432 257 q 321 192 343 192 q 274 213 286 190 q 261 267 261 236 q 269 331 261 299 q 282 379 276 363 q 253 327 271 358 q 213 267 235 296 q 165 217 190 238 q 115 196 140 196 q 45 216 71 196 q 9 269 19 236 q 3 345 -1 303 q 26 431 8 388 q 69 505 42 468 q 133 571 97 542 q 211 617 169 600 q 297 632 253 633 q 342 622 315 631 q 383 597 368 614 l 400 632 q 433 636 425 635 q 445 638 442 638 q 453 638 449 638 q 472 640 457 639 q 451 599 465 626 q 421 538 438 572 q 386 465 404 504 q 351 386 368 425 q 333 331 342 361 q 319 274 324 300 q 316 228 314 247 q 331 207 318 210 q 369 225 343 204 m 379 586 q 347 611 371 601 q 303 618 322 621 q 235 591 267 613 q 178 540 204 569 q 132 478 153 511 q 96 415 111 444 q 76 364 88 399 q 63 294 65 329 q 71 233 60 260 q 118 207 82 207 q 274 383 174 207 q 326 483 301 432 q 379 586 351 535 z "},"":{"ha":425,"x_min":-17,"x_max":1043,"o":"m 211 222 q 183 210 201 217 q 145 196 165 203 q 106 185 125 189 q 74 181 86 181 q 21 192 40 182 q -8 221 1 203 q -16 264 -17 239 q -10 318 -15 289 q 21 417 -4 354 q 81 555 46 479 q 158 713 117 631 q 239 870 200 794 q 311 1008 278 946 q 363 1106 344 1069 q 395 1110 386 1108 q 408 1111 404 1111 q 415 1112 411 1111 q 433 1114 419 1113 q 361 967 404 1051 q 271 792 318 882 q 181 618 224 703 q 108 471 138 533 q 139 519 122 493 q 174 566 156 544 q 214 602 193 588 q 256 617 235 617 q 333 594 306 618 q 368 531 361 569 q 365 445 375 493 q 329 351 354 397 q 286 285 310 314 q 403 356 344 321 q 520 419 463 390 q 633 469 578 449 q 736 497 688 489 q 859 494 804 506 q 954 457 914 482 q 1006 408 986 438 q 1032 347 1025 379 q 1039 275 1043 314 q 1019 197 1035 236 q 871 13 983 104 q 864 9 868 10 q 858 11 860 8 q 858 17 856 14 q 863 25 860 21 q 951 111 915 67 q 1006 199 986 156 q 1024 271 1021 235 q 1019 339 1028 307 q 943 444 1000 406 q 735 481 865 496 q 622 451 681 472 q 501 398 563 429 q 377 328 440 367 q 253 250 314 290 q 211 222 236 233 m 46 310 q 35 267 39 289 q 33 228 32 244 q 42 201 33 211 q 68 194 50 192 q 123 215 96 199 q 175 254 150 231 q 222 308 200 278 q 261 371 243 339 q 296 454 283 413 q 309 530 308 496 q 296 585 310 564 q 251 606 282 606 q 213 589 233 606 q 171 545 192 572 q 130 485 150 518 q 93 419 110 451 q 64 357 76 386 q 46 310 51 328 z "},"":{"ha":358,"x_min":3,"x_max":1053,"o":"m 736 532 q 830 538 782 540 q 920 520 878 536 q 994 475 963 504 q 1042 400 1026 446 q 1051 328 1053 367 q 1033 249 1049 289 q 896 57 1006 154 q 890 53 893 54 q 883 56 886 53 q 883 62 881 58 q 888 69 885 65 q 970 160 938 114 q 1021 250 1003 206 q 1036 324 1035 288 q 1028 390 1038 360 q 981 466 1013 436 q 909 510 949 496 q 824 526 869 525 q 738 519 779 528 q 634 488 681 508 q 544 443 588 468 q 460 388 501 418 q 375 325 419 357 q 273 253 325 288 q 169 201 221 219 q 76 194 113 182 q 21 240 39 207 q 3 320 3 274 q 19 415 3 367 q 51 481 29 447 q 100 544 72 515 q 160 597 128 574 q 226 629 193 619 q 293 632 260 639 q 354 597 326 625 q 350 592 354 594 q 344 590 346 589 q 296 622 324 621 q 240 608 268 624 q 187 564 213 592 q 143 510 161 536 q 117 463 129 488 q 94 415 106 439 q 72 342 82 386 q 64 263 61 299 q 90 209 67 226 q 167 213 113 192 q 267 265 217 232 q 368 335 318 297 q 456 399 411 368 q 546 457 500 431 q 639 503 592 483 q 736 532 686 524 z "},"":{"ha":496,"x_min":7,"x_max":1263,"o":"m 919 583 q 1042 595 986 600 q 1139 569 1099 590 q 1199 529 1175 556 q 1235 472 1222 503 q 1236 321 1263 406 q 1111 122 1213 226 q 1099 119 1103 114 q 1100 133 1096 124 q 1178 229 1149 181 q 1224 322 1208 278 q 1219 461 1246 400 q 1133 557 1193 525 q 1038 581 1092 578 q 921 567 983 585 q 728 479 814 538 q 567 354 643 421 q 503 299 536 328 q 440 247 471 271 q 382 208 408 224 q 338 192 356 193 q 289 212 303 189 q 272 267 275 235 q 274 331 269 299 q 283 379 279 363 q 258 327 274 358 q 223 267 243 296 q 180 217 203 238 q 132 196 157 196 q 60 216 88 196 q 19 269 32 236 q 8 345 7 303 q 24 431 10 388 q 63 505 38 468 q 122 571 88 542 q 197 617 156 600 q 282 632 238 633 q 326 623 299 632 q 369 599 354 614 l 379 619 q 431 741 400 669 q 492 885 461 813 q 550 1018 524 957 q 589 1107 576 1079 q 621 1111 613 1110 q 633 1113 629 1113 q 640 1113 636 1113 q 658 1115 643 1114 l 454 640 q 438 599 449 626 q 412 538 426 572 q 382 465 397 504 q 354 386 367 425 q 339 331 346 361 q 329 274 332 300 q 330 228 326 247 q 346 207 333 210 q 377 220 354 206 q 430 258 400 235 q 493 309 460 281 q 557 364 526 338 q 730 498 640 439 q 919 583 819 557 m 365 586 q 332 611 357 601 q 288 618 307 621 q 222 591 251 613 q 169 540 193 569 q 127 478 146 511 q 96 415 108 444 q 81 364 89 399 q 72 294 72 329 q 85 233 72 260 q 135 207 99 207 q 276 383 188 207 q 322 483 301 432 q 365 586 343 535 z "},"":{"ha":361,"x_min":3,"x_max":1083,"o":"m 944 681 q 1010 645 982 668 q 1054 591 1038 622 q 1077 524 1071 560 q 1078 450 1083 488 q 1046 348 1071 401 q 976 236 1021 294 q 965 233 968 228 q 965 246 963 239 q 1031 351 1007 299 q 1063 449 1056 403 q 1043 582 1074 524 q 946 664 1013 640 q 833 676 889 683 q 725 646 778 669 q 623 585 672 622 q 529 506 574 547 q 444 423 485 465 q 371 347 404 381 q 270 255 321 296 q 168 196 219 214 q 73 190 110 176 q 19 238 36 204 q 3 319 3 272 q 21 415 4 367 q 97 545 44 486 q 225 626 149 604 q 271 633 250 633 q 313 627 293 633 q 344 609 332 621 q 361 580 357 597 q 357 539 365 563 q 317 487 346 507 q 251 456 288 467 q 176 445 214 446 q 113 451 139 444 q 92 402 103 432 q 74 341 81 372 q 65 280 67 310 q 74 230 64 250 q 106 203 83 210 q 168 213 128 197 q 266 272 218 233 q 363 358 314 311 q 490 489 425 421 q 625 608 554 557 q 774 682 696 658 q 944 681 853 706 m 235 604 q 167 540 199 581 q 119 464 136 499 q 178 459 143 458 q 247 469 213 460 q 308 496 281 478 q 344 543 336 514 q 346 587 354 569 q 320 612 338 604 q 279 618 303 619 q 235 604 256 617 z "},"":{"ha":314,"x_min":-168,"x_max":1076,"o":"m 135 238 q 69 224 99 226 q 24 218 39 221 l 22 218 q 69 164 51 194 q 96 99 86 133 q 107 26 106 64 q 107 -47 108 -11 q 82 -151 103 -100 q 32 -243 61 -201 q -31 -313 3 -285 q -93 -349 -64 -342 q -143 -337 -122 -356 q -168 -265 -164 -318 q -156 -176 -168 -237 q -120 -32 -143 -115 q -67 151 -97 51 q 0 354 -36 250 q 63 541 29 447 q 131 719 97 635 q 201 877 165 804 q 269 1002 236 950 q 331 1082 301 1054 q 385 1106 360 1110 q 419 1065 408 1101 q 421 971 429 1028 q 379 827 408 901 q 308 685 350 753 q 212 559 265 617 q 96 464 158 501 q 42 317 63 375 q 11 229 21 260 q 15 230 13 229 q 21 231 18 231 q 67 236 38 233 q 133 250 96 239 q 265 322 203 269 q 386 436 326 374 q 471 525 429 482 q 555 605 513 568 q 641 669 597 642 q 731 714 685 697 q 819 733 772 729 q 909 728 865 738 q 989 697 953 719 q 1046 636 1025 674 q 1074 543 1072 592 q 1063 447 1076 494 q 1023 354 1049 399 q 971 275 997 310 q 959 272 961 267 q 958 285 957 278 q 1011 367 988 324 q 1047 453 1035 410 q 1058 540 1060 497 q 1035 624 1057 583 q 976 684 1011 663 q 900 713 940 706 q 817 717 860 721 q 738 700 775 713 q 562 594 644 668 q 392 426 479 519 q 268 310 331 363 q 135 238 206 257 m 10 215 q -6 171 6 203 q -31 97 -17 139 q -60 4 -44 54 q -90 -95 -76 -46 q -114 -188 -104 -144 q -126 -264 -124 -232 q -117 -326 -131 -311 q -80 -333 -103 -342 q -28 -297 -57 -325 q 26 -230 0 -269 q 72 -142 53 -190 q 94 -47 90 -94 q 94 26 96 -11 q 83 97 92 63 q 56 162 74 132 q 10 215 39 192 m 99 475 q 206 565 154 507 q 299 694 257 624 q 369 838 340 764 q 407 972 397 911 q 409 1046 414 1017 q 388 1078 404 1075 q 344 1040 371 1079 q 288 940 318 1001 q 226 803 257 878 q 168 662 194 729 q 123 542 142 594 q 99 475 104 490 z "},"":{"ha":513,"x_min":-72,"x_max":1275,"o":"m 1138 728 q 1220 682 1190 711 q 1263 615 1250 653 q 1272 533 1275 576 q 1254 445 1268 489 q 1218 360 1240 401 q 1169 283 1196 318 q 1157 279 1165 276 q 1156 285 1154 282 q 1158 293 1157 289 q 1226 407 1200 340 q 1254 538 1253 474 q 1226 653 1256 601 q 1128 721 1197 704 q 969 720 1044 740 q 825 654 894 700 q 690 545 756 608 q 559 416 624 482 q 430 288 494 350 q 299 185 365 226 q 229 -19 265 79 q 157 -194 193 -117 q 87 -322 121 -271 q 22 -385 53 -374 q -34 -376 -11 -397 q -65 -310 -57 -354 q -62 -206 -72 -267 q -19 -78 -53 -144 q 73 54 14 -12 q 221 175 132 121 q 253 274 236 219 q 281 375 269 329 q 263 326 274 356 q 235 269 251 297 q 189 215 214 233 q 138 193 164 196 q 88 203 113 190 q 43 243 63 215 q 15 327 19 278 q 21 426 10 376 q 51 501 31 464 q 100 567 71 538 q 167 613 129 596 q 249 628 204 629 q 296 619 267 628 q 342 594 325 610 q 347 611 344 603 q 351 629 350 619 q 387 632 368 631 q 421 636 406 633 q 364 419 392 528 q 304 203 336 311 q 438 311 372 247 q 569 442 504 375 q 700 571 633 508 q 836 676 767 633 q 981 736 906 719 q 1138 728 1056 753 m 338 582 q 302 607 328 597 q 260 614 276 617 q 198 587 225 608 q 151 536 171 565 q 115 474 131 507 q 90 411 100 440 q 83 385 86 401 q 78 348 79 368 q 77 307 76 328 q 82 267 78 286 q 111 212 93 225 q 150 205 129 199 q 192 233 171 211 q 228 283 213 254 q 250 326 239 303 q 272 379 261 350 q 307 479 292 428 q 338 582 322 531 m 217 156 q 80 38 133 103 q -3 -90 26 -26 q -41 -210 -32 -153 q -44 -304 -50 -267 q -23 -355 -39 -342 q 13 -344 -7 -368 q 44 -296 26 -329 q 81 -218 63 -262 q 119 -123 100 -174 q 156 -22 139 -72 q 190 74 174 28 q 217 156 206 121 z "},"":{"ha":451,"x_min":-64,"x_max":1185,"o":"m 828 649 q 947 675 890 674 q 1049 664 1004 676 q 1113 629 1086 653 q 1157 574 1140 606 q 1179 507 1174 543 q 1179 433 1185 471 q 1149 331 1172 385 q 1081 219 1125 278 q 1069 217 1072 211 q 1068 229 1067 222 q 1134 334 1110 282 q 1165 432 1158 386 q 1144 568 1176 508 q 1043 651 1111 628 q 829 632 953 682 q 717 571 769 608 q 617 489 664 533 q 526 397 569 444 q 440 304 482 349 q 399 262 419 282 q 358 226 378 242 q 320 201 339 210 q 286 190 301 192 q 240 208 253 189 q 226 260 226 228 q 236 333 226 293 q 259 410 246 372 q 285 481 272 449 q 304 529 299 513 q 313 550 307 536 q 322 578 318 564 q 324 605 325 593 q 313 621 324 617 q 269 615 296 628 q 215 582 243 603 q 161 538 186 561 q 124 501 136 515 l 3 194 l -64 196 l 117 658 l 306 1108 l 385 1126 l 139 540 q 177 573 156 554 q 222 608 199 592 q 270 633 246 624 q 315 638 294 642 q 345 621 335 635 q 360 590 356 607 q 365 553 365 572 q 363 521 364 535 q 325 392 350 454 q 285 267 300 331 q 282 251 283 260 q 281 232 281 242 q 285 215 282 222 q 297 207 289 208 q 320 215 306 206 q 353 239 335 224 q 392 274 371 254 q 433 317 413 294 q 526 415 481 365 q 619 508 572 464 q 718 589 667 553 q 828 649 769 625 z "},"":{"ha":244,"x_min":-12,"x_max":997,"o":"m 110 215 q 80 197 94 204 q 50 190 65 190 q 6 210 21 190 q -12 265 -11 231 q -3 339 -12 299 q 23 423 7 379 q 58 508 39 467 q 94 583 76 549 q 124 640 111 618 l 197 649 q 174 597 190 635 q 135 512 157 560 q 93 411 114 464 q 59 314 72 358 q 44 240 46 269 q 60 207 43 210 q 77 210 67 206 q 103 226 88 214 q 238 353 178 286 q 356 483 297 419 q 482 601 415 546 q 638 694 549 657 q 758 723 701 721 q 858 710 814 725 q 924 677 896 700 q 967 626 951 654 q 992 558 986 596 q 990 479 997 519 q 960 377 985 431 q 892 265 935 324 q 879 261 883 260 q 879 275 875 267 q 944 380 921 328 q 976 478 968 432 q 977 551 983 517 q 956 614 971 586 q 854 697 919 672 q 756 708 810 711 q 640 678 701 704 q 481 583 549 639 q 356 465 414 528 q 240 336 297 401 q 110 215 182 271 m 193 774 q 226 772 211 778 q 243 756 240 767 q 233 731 244 743 q 201 715 221 719 q 168 717 182 711 q 151 735 154 722 q 161 758 149 746 q 193 774 174 769 z "},"":{"ha":226,"x_min":-378,"x_max":976,"o":"m 618 700 q 710 723 663 717 q 803 723 758 729 q 885 695 847 717 q 946 632 922 674 q 971 563 965 601 q 969 485 976 525 q 939 383 964 436 q 871 271 914 329 q 858 267 863 265 q 860 281 856 271 q 924 385 900 333 q 957 483 947 438 q 956 557 963 522 q 935 619 950 592 q 871 683 908 663 q 791 708 833 703 q 704 705 749 713 q 619 683 660 697 q 520 631 569 665 q 422 553 471 597 q 322 458 372 508 q 222 359 272 408 q 122 266 172 310 q 19 190 71 222 q -56 -13 -17 85 q -135 -188 -96 -111 q -212 -317 -175 -265 q -281 -379 -250 -368 q -340 -370 -317 -392 q -371 -305 -364 -349 q -365 -200 -378 -261 q -316 -73 -353 -139 q -215 60 -279 -7 q -57 181 -151 126 q 16 408 -17 293 q 89 635 49 522 q 124 638 106 636 q 158 642 142 639 q 92 425 124 533 q 28 208 61 317 q 173 333 99 261 q 322 477 247 406 q 472 610 397 549 q 618 700 546 671 m -61 161 q -208 44 -150 108 q -300 -84 -267 -21 q -344 -204 -333 -147 q -351 -299 -356 -261 q -331 -349 -347 -336 q -290 -339 -314 -362 q -254 -290 -274 -324 q -214 -212 -235 -257 q -172 -117 -193 -168 q -130 -17 -150 -67 q -92 80 -110 33 q -61 161 -75 126 m 139 768 q 172 767 158 772 q 192 749 186 761 q 186 726 196 738 q 157 710 176 714 q 124 711 139 706 q 103 728 108 717 q 110 752 100 740 q 139 768 119 764 z "},"":{"ha":467,"x_min":-79,"x_max":1189,"o":"m 368 267 q 478 381 421 322 q 593 492 535 440 q 710 586 651 544 q 822 650 768 628 q 942 678 885 675 q 1043 665 999 681 q 1107 633 1079 656 q 1150 582 1135 610 q 1174 435 1189 519 q 1075 221 1163 336 q 1061 217 1069 215 q 1063 231 1060 221 q 1128 335 1104 283 q 1160 433 1151 388 q 1138 569 1171 513 q 1038 653 1106 626 q 825 633 947 681 q 713 570 769 610 q 599 480 656 531 q 485 372 542 429 q 374 256 428 314 q 326 213 354 235 q 271 190 299 192 q 224 208 236 189 q 215 260 213 228 q 230 333 217 293 q 259 410 243 372 q 290 481 275 449 q 313 529 306 513 q 328 572 321 553 q 336 601 336 590 q 326 621 338 617 q 283 615 310 628 q 226 582 256 603 q 169 538 196 561 q 129 501 143 515 l -11 194 l -79 196 l 133 658 l 351 1108 l 432 1126 l 147 540 l 149 542 q 151 549 149 542 q 242 629 193 588 q 340 704 290 671 q 438 754 389 738 q 529 760 486 771 q 533 753 533 757 q 525 747 532 747 q 459 747 494 756 q 387 719 424 739 q 313 670 350 699 q 240 611 275 642 q 288 634 264 626 q 331 638 311 642 q 369 599 358 633 q 375 561 376 581 q 368 521 374 542 q 348 456 360 488 q 323 392 336 424 q 297 330 310 361 q 275 267 285 299 q 272 251 274 260 q 269 232 269 242 q 272 215 268 222 q 283 207 275 208 q 319 222 297 204 q 368 267 342 239 z "},"":{"ha":242,"x_min":-15,"x_max":985,"o":"m 111 221 q 81 202 96 210 q 50 193 65 194 q 22 197 32 192 q 3 211 11 201 q -12 284 -15 239 q 7 382 -8 329 q 39 467 14 407 q 97 603 64 526 q 168 765 131 681 q 238 922 206 849 q 295 1047 271 994 q 326 1111 319 1099 q 358 1115 350 1114 q 371 1117 367 1117 q 379 1117 375 1117 q 397 1119 383 1118 q 371 1060 393 1111 q 315 936 349 1010 q 244 776 282 863 q 170 608 206 689 q 108 463 135 528 q 71 371 81 399 q 52 310 60 339 q 42 260 44 282 q 44 224 40 238 q 60 208 49 210 q 103 229 74 206 q 231 350 171 285 q 351 478 290 415 q 476 594 411 540 q 621 681 542 647 q 758 706 689 707 q 878 677 826 706 q 957 595 929 649 q 972 465 985 542 q 874 251 961 367 q 861 247 865 246 q 863 261 858 251 q 927 366 904 314 q 960 464 950 418 q 938 593 967 543 q 861 667 910 643 q 749 690 813 692 q 624 664 686 689 q 476 574 542 628 q 351 460 410 521 q 234 338 292 400 q 111 221 176 275 z "},"":{"ha":649,"x_min":-67,"x_max":1374,"o":"m 451 188 q 405 206 417 186 q 395 258 393 226 q 410 331 397 290 q 438 408 422 371 q 468 478 453 446 q 490 526 483 510 q 507 569 500 550 q 515 599 514 588 q 507 618 515 613 q 476 617 494 624 q 436 599 457 611 q 393 571 415 588 q 351 539 371 554 q 336 473 349 513 q 308 392 324 433 q 275 313 292 351 q 249 251 258 275 l 176 251 q 251 432 224 365 q 293 534 279 499 q 311 581 307 569 q 317 599 315 593 q 307 618 317 613 q 268 615 292 624 q 218 588 244 606 q 166 550 192 571 q 122 513 140 529 q 88 424 106 471 q 52 332 69 376 q 21 249 35 288 q -1 183 7 210 l -67 181 q -43 248 -58 207 q -10 336 -28 289 q 26 433 7 383 q 61 525 44 482 q 92 601 78 568 q 113 649 106 635 l 181 657 q 165 619 178 649 q 138 550 153 590 q 176 578 154 563 q 222 608 199 594 q 269 630 246 622 q 310 635 293 638 q 345 607 338 631 q 356 561 353 583 q 392 590 372 575 q 433 617 413 606 q 473 633 453 628 q 510 635 493 639 q 547 596 536 631 q 546 518 560 563 q 526 453 538 485 q 501 390 514 421 q 475 327 488 358 q 453 264 463 296 q 449 235 449 249 q 453 214 449 222 q 468 206 458 206 q 493 217 478 206 q 610 332 553 271 q 729 451 668 393 q 875 575 803 519 q 1017 658 947 631 q 1135 686 1079 683 q 1235 674 1190 689 q 1300 641 1272 664 q 1343 590 1328 618 q 1368 522 1363 560 q 1368 443 1374 483 q 1337 341 1361 394 q 1268 229 1313 288 q 1262 225 1265 226 q 1256 225 1258 224 q 1254 231 1253 228 q 1257 239 1256 235 q 1321 344 1297 292 q 1354 442 1344 396 q 1332 578 1365 521 q 1289 627 1314 606 q 1231 661 1264 649 q 1133 670 1188 675 q 1017 642 1079 665 q 878 559 949 614 q 738 438 808 504 q 651 352 693 396 q 567 264 608 308 q 509 210 539 232 q 451 188 479 189 z "},"":{"ha":450,"x_min":-65,"x_max":1183,"o":"m 1047 690 q 1113 656 1085 679 q 1156 601 1140 632 q 1178 533 1172 569 q 1178 460 1183 497 q 1079 246 1167 361 q 1067 242 1071 240 q 1067 256 1064 246 q 1132 360 1108 308 q 1164 458 1156 413 q 1148 594 1172 536 q 1054 674 1124 651 q 916 688 982 697 q 788 644 850 678 q 667 558 725 610 q 550 448 608 507 q 434 328 492 389 q 317 214 376 267 q 253 188 286 188 q 206 206 218 186 q 197 258 194 225 q 211 330 199 290 q 240 408 224 369 q 271 478 256 446 q 293 526 286 510 q 309 569 303 550 q 318 599 315 588 q 308 618 318 613 q 269 615 293 624 q 219 588 246 606 q 167 550 193 571 q 124 513 142 529 q 89 424 107 471 q 53 332 71 376 q 22 249 36 288 q 0 183 8 210 l -65 181 q -42 248 -57 207 q -9 336 -26 289 q 27 433 8 383 q 63 525 46 482 q 93 601 79 568 q 114 649 107 635 l 182 657 q 167 619 179 649 q 139 550 154 590 q 178 578 156 563 q 224 608 200 594 q 271 630 247 622 q 311 635 294 638 q 350 596 339 631 q 349 518 363 563 q 303 390 333 451 q 254 264 274 328 q 251 248 253 257 q 250 229 250 239 q 253 213 250 219 q 264 204 256 206 q 310 226 279 203 q 414 325 360 268 q 526 441 468 382 q 645 555 583 500 q 772 648 707 610 q 906 700 838 686 q 1047 690 975 714 z "},"":{"ha":454,"x_min":-4,"x_max":549,"o":"m 524 514 q 526 583 531 550 q 508 646 522 615 q 410 738 478 706 q 311 761 365 754 q 190 760 257 768 q 178 767 183 761 q 189 775 182 772 q 417 749 328 792 q 481 708 453 733 q 525 650 510 682 q 544 585 539 621 q 536 511 549 549 q 501 434 525 469 q 446 373 478 399 q 374 335 414 347 q 289 329 333 322 q 226 250 263 285 q 146 200 190 215 q 61 194 94 182 q 12 235 28 206 q -4 306 -4 264 q 11 392 -4 349 q 38 451 21 422 q 75 506 54 481 q 108 535 89 521 q 148 562 126 550 q 192 581 169 574 q 239 588 215 588 q 294 573 271 588 q 326 529 317 558 q 328 437 338 486 q 296 342 319 388 q 376 350 339 338 q 442 386 413 363 q 492 443 471 410 q 524 514 513 476 m 314 525 q 287 564 307 549 q 239 575 267 579 q 178 542 208 569 q 124 476 149 515 q 79 392 96 436 q 58 326 68 365 q 51 255 49 288 q 74 206 53 222 q 143 210 94 190 q 218 258 183 225 q 279 332 253 290 q 226 351 251 338 q 181 383 200 364 q 153 428 163 403 q 146 486 143 454 q 151 496 146 492 q 161 501 156 500 q 171 499 167 501 q 175 490 175 497 q 285 343 163 365 q 317 435 308 388 q 314 525 326 483 z "},"":{"ha":438,"x_min":-226,"x_max":1165,"o":"m 1028 676 q 1093 642 1065 665 q 1138 587 1121 618 q 1160 519 1154 556 q 1160 446 1165 483 q 1128 344 1153 397 q 1060 232 1104 290 q 1053 228 1057 229 q 1047 228 1050 226 q 1049 242 1044 232 q 1114 347 1090 294 q 1144 444 1138 399 q 1144 517 1150 482 q 1122 581 1138 551 q 1082 631 1107 610 q 1024 664 1057 653 q 888 674 954 686 q 758 624 821 661 q 635 535 694 588 q 519 424 575 482 q 408 311 463 367 q 304 215 354 256 q 271 192 288 203 q 238 172 254 181 q 183 151 213 158 q 124 143 153 143 q 69 152 94 143 q 29 182 44 161 q -22 27 1 100 q -67 -114 -44 -46 q -110 -247 -89 -182 q -157 -379 -132 -312 l -226 -383 q -146 -130 -186 -260 q -67 128 -106 0 q 8 376 -29 256 q 79 604 46 497 q 116 610 96 607 q 153 618 136 614 q 128 538 140 578 q 104 458 115 499 q 125 505 113 481 q 152 549 138 529 q 183 583 167 569 q 219 599 200 597 q 301 583 269 604 q 346 524 332 561 q 357 438 360 486 q 336 342 354 389 q 299 265 324 303 q 242 199 275 226 q 271 215 257 206 q 299 233 285 224 q 405 327 350 272 q 517 439 460 382 q 634 549 574 496 q 758 637 694 601 q 889 685 822 672 q 1028 676 956 699 m 61 278 q 65 193 54 218 q 94 168 75 168 q 140 187 114 168 q 190 235 165 206 q 235 297 215 264 q 265 356 256 329 q 285 442 279 399 q 287 518 292 485 q 265 571 282 551 q 217 589 247 590 q 163 548 189 586 q 116 459 138 510 q 80 357 94 408 q 61 278 65 306 z "},"":{"ha":617,"x_min":1,"x_max":1399,"o":"m 1389 522 q 1358 420 1382 474 q 1289 308 1333 367 q 1283 304 1286 306 q 1276 304 1279 303 q 1275 310 1274 307 q 1278 318 1276 314 q 1342 423 1319 371 q 1375 521 1365 475 q 1362 630 1381 583 q 1307 706 1343 676 q 1221 745 1271 735 q 1115 747 1171 756 q 973 690 1039 735 q 844 588 907 646 q 722 466 782 529 q 597 353 661 403 q 462 275 532 303 q 310 258 392 247 q 374 128 364 203 q 374 -21 385 53 q 341 -121 365 -72 q 284 -208 317 -169 q 215 -269 251 -246 q 149 -297 179 -293 q 101 -278 119 -300 q 82 -203 82 -256 q 95 -126 82 -176 q 131 -6 108 -75 q 183 145 153 63 q 251 318 214 228 q 220 271 236 296 q 184 227 204 246 q 139 199 164 208 q 82 199 114 190 q 33 228 51 207 q 8 280 15 250 q 5 345 1 310 q 21 417 8 381 q 60 497 35 458 q 119 566 85 536 q 196 613 154 596 q 286 629 238 631 q 331 621 304 629 q 374 597 357 613 q 381 614 376 606 q 389 631 385 622 q 427 633 407 631 q 467 639 447 636 l 439 583 q 368 427 403 504 q 300 271 333 350 q 457 289 385 261 q 593 366 529 317 q 717 477 657 415 q 838 597 776 539 q 964 699 899 654 q 1104 758 1029 743 q 1223 760 1167 771 q 1319 717 1279 749 q 1379 635 1360 685 q 1389 522 1399 586 m 293 257 q 274 215 288 244 q 244 144 261 185 q 207 54 226 103 q 170 -42 188 6 q 139 -132 153 -89 q 121 -207 125 -175 q 127 -272 114 -254 q 165 -283 140 -289 q 219 -254 189 -278 q 279 -194 250 -231 q 331 -112 308 -158 q 361 -19 353 -67 q 367 54 367 17 q 361 128 368 92 q 338 197 354 164 q 293 257 321 229 m 368 586 q 335 609 358 600 q 292 615 311 618 q 230 593 260 611 q 174 548 200 575 q 127 487 149 521 q 92 418 106 453 q 69 353 76 385 q 60 294 61 321 q 67 245 60 267 q 92 214 75 224 q 148 213 119 196 q 201 260 176 229 q 244 326 225 292 q 272 381 263 361 q 322 482 300 429 q 368 586 343 535 z "},"":{"ha":415,"x_min":22,"x_max":1169,"o":"m 324 274 q 419 378 368 321 q 528 490 471 435 q 647 594 586 546 q 772 676 708 643 q 901 719 836 708 q 1031 710 967 731 q 1096 677 1068 700 q 1139 626 1124 654 q 1164 558 1158 596 q 1163 479 1169 519 q 1132 377 1157 431 q 1064 265 1107 324 q 1051 261 1056 260 q 1051 275 1047 267 q 1117 380 1093 328 q 1149 478 1140 432 q 1149 551 1156 517 q 1128 614 1143 586 q 1026 697 1092 672 q 895 701 961 715 q 765 653 829 688 q 638 570 700 619 q 521 467 576 521 q 417 359 465 413 q 332 265 369 306 q 233 188 275 203 q 169 194 190 172 q 149 268 147 215 q 181 394 151 321 q 226 493 210 464 q 243 538 242 522 q 231 569 244 553 q 185 629 217 585 l 114 525 l 33 410 q 24 411 26 404 q 22 417 22 414 l 103 532 l 178 639 l 157 669 q 140 701 147 685 q 132 732 132 717 q 153 775 133 758 q 197 795 174 792 q 238 788 221 799 q 251 749 256 776 q 242 720 249 735 q 226 691 235 706 q 208 664 217 676 q 193 643 199 651 q 252 585 226 603 q 290 551 278 567 q 299 510 303 535 q 271 432 296 486 q 244 370 258 404 q 219 303 231 336 q 203 245 208 271 q 207 208 199 219 q 219 201 211 201 q 242 207 228 200 q 277 230 257 214 q 324 274 297 246 m 186 653 q 199 671 190 660 q 215 695 207 682 q 230 722 224 708 q 239 749 236 736 q 229 778 243 769 q 197 783 215 786 q 162 767 178 779 q 146 733 146 754 q 160 688 144 710 q 186 653 175 667 z "}}}
